M48
; DRILL file {KiCad 6.0.2+dfsg-1} date Sat 07 Jan 2023 19:56:01 CET
; FORMAT={-:-/ absolute / inch / decimal}
; #@! TF.CreationDate,2023-01-07T19:56:01+01:00
; #@! TF.GenerationSoftware,Kicad,Pcbnew,6.0.2+dfsg-1
; #@! TF.FileFunction,Plated,1,2,PTH
FMAT,2
INCH
; #@! TA.AperFunction,Plated,PTH,ComponentDrill
T1C0.0079
; #@! TA.AperFunction,Plated,PTH,ViaDrill
T2C0.0157
; #@! TA.AperFunction,Plated,PTH,ViaDrill
T3C0.0197
; #@! TA.AperFunction,Plated,PTH,ComponentDrill
T4C0.0197
; #@! TA.AperFunction,Plated,PTH,ViaDrill
T5C0.0276
; #@! TA.AperFunction,Plated,PTH,ComponentDrill
T6C0.0394
; #@! TA.AperFunction,Plated,PTH,ComponentDrill
T7C0.0469
; #@! TA.AperFunction,Plated,PTH,ComponentDrill
T8C0.0472
; #@! TA.AperFunction,Plated,PTH,ComponentDrill
T9C0.1181
; #@! TA.AperFunction,Plated,PTH,ComponentDrill
T10C0.1260
%
G90
G05
T1
X-0.2064Y-0.5505
X-0.2064Y-0.6095
X-0.2018Y-0.109
X-0.2018Y-0.1681
X-0.1709Y-0.5505
X-0.1709Y-0.6095
X-0.1664Y-0.109
X-0.1664Y-0.1681
T2
X-0.9104Y0.35
X-0.9104Y0.25
X-0.9104Y0.15
X-0.9104Y0.05
X-0.9104Y-0.05
X-0.9104Y-0.1499
X-0.9104Y-0.25
X-0.9104Y-0.35
X-0.9104Y-0.45
X-0.9104Y-0.55
X-0.9104Y-0.65
X-0.9Y-0.75
X-0.9Y-0.85
X-0.825Y-0.875
X-0.8146Y0.175
X-0.795Y-0.1
X-0.76Y-0.115
X-0.75Y0.175
X-0.705Y-0.1
X-0.675Y0.175
X-0.65Y0.275
X-0.65Y0.225
X-0.65Y0.0
X-0.625Y-0.675
X-0.61Y-0.895
X-0.6Y0.0
X-0.575Y1.175
X-0.575Y1.125
X-0.575Y-0.675
X-0.575Y-0.975
X-0.575Y-1.025
X-0.575Y-1.075
X-0.575Y-1.125
X-0.575Y-1.175
X-0.55Y0.0
X-0.55Y-0.175
X-0.525Y1.175
X-0.525Y1.125
X-0.525Y-0.05
X-0.525Y-0.525
X-0.525Y-0.7
X-0.5Y-0.75
X-0.475Y1.2
X-0.47Y0.53
X-0.425Y1.2
X-0.415Y-0.125
X-0.4Y-0.05
X-0.375Y1.2
X-0.375Y-0.25
X-0.375Y-0.3
X-0.375Y-0.35
X-0.375Y-0.5
X-0.375Y-0.55
X-0.375Y-0.6
X-0.375Y-0.65
X-0.375Y-0.71
X-0.35Y-0.05
X-0.325Y1.2
X-0.325Y-0.3
X-0.325Y-0.35
X-0.31Y0.71
X-0.3Y-0.05
X-0.2891Y-0.1285
X-0.2891Y-0.1985
X-0.28Y-0.59
X-0.28Y-0.66
X-0.275Y1.2
X-0.275Y-0.35
X-0.275Y-0.4
X-0.25Y-0.05
X-0.225Y1.2
X-0.21Y-0.67
X-0.19Y-0.23
X-0.175Y1.2
X-0.165Y-0.67
X-0.1541Y-0.35
X-0.13Y0.71
X-0.12Y-0.67
X-0.1041Y-0.0185
X-0.1Y-0.35
X-0.1Y-0.4
X-0.0841Y-0.1585
X-0.08Y-0.67
X-0.075Y-0.23
X-0.075Y-0.765
X-0.07Y-0.6
X-0.0624Y-0.5
X-0.0541Y-0.0585
X-0.05Y-0.35
X-0.025Y-0.8
X-0.0218Y-1.0027
X-0.02Y-1.1
X-0.02Y-1.15
X0.0Y-0.35
X0.02Y-0.965
X0.025Y-0.8
X0.0401Y0.0665
X0.05Y-0.35
X0.05Y-1.175
X0.0585Y-1.1292
X0.08Y-0.85
X0.1Y-1.025
X0.1Y-1.075
X0.1Y-1.125
X0.1Y-1.175
X0.125Y0.125
X0.125Y0.075
X0.125Y0.025
X0.125Y-0.475
X0.15Y0.15
X0.15Y0.1
X0.15Y0.05
X0.15Y-0.508
X0.15Y-0.55
X0.15Y-1.075
X0.15Y-1.125
X0.15Y-1.175
X0.151Y-0.5999
X0.151Y-0.65
X0.175Y-0.475
X0.2Y0.15
X0.2Y0.1
X0.2Y0.05
X0.2Y-0.55
X0.2Y-0.6
X0.2Y-0.65
X0.2Y-1.075
X0.2Y-1.125
X0.2Y-1.175
X0.225Y1.175
X0.225Y1.125
X0.225Y-0.475
X0.25Y0.25
X0.25Y-1.075
X0.25Y-1.125
X0.25Y-1.175
X0.27Y-0.668
X0.275Y1.175
X0.275Y1.125
X0.275Y-0.475
X0.2974Y0.0969
X0.2974Y-0.6031
X0.3Y0.25
X0.3Y-1.075
X0.3Y-1.125
X0.3Y-1.175
X0.324Y-0.668
X0.3243Y0.2228
X0.325Y1.175
X0.325Y1.125
X0.325Y-0.475
X0.35Y0.25
X0.35Y-1.075
X0.35Y-1.125
X0.35Y-1.175
X0.3749Y0.2228
X0.375Y1.175
X0.375Y1.125
X0.375Y-0.475
X0.4Y0.25
X0.4Y0.15
X0.4Y0.1
X0.4Y0.05
X0.4Y-0.55
X0.4Y-0.6
X0.4Y-0.65
X0.4Y-1.075
X0.4Y-1.125
X0.4Y-1.175
X0.425Y1.175
X0.425Y1.125
X0.45Y0.25
X0.45Y0.15
X0.45Y0.1
X0.45Y0.05
X0.45Y-0.35
X0.45Y-0.4
X0.45Y-0.45
X0.45Y-1.075
X0.45Y-1.125
X0.45Y-1.175
X0.475Y1.175
X0.475Y1.125
X0.5Y0.25
X0.5Y0.2
X0.5Y-0.4
X0.5Y-0.45
X0.5Y-1.075
X0.5Y-1.125
X0.5Y-1.175
X0.55Y-0.4
X0.55Y-0.45
X0.55Y-1.075
X0.55Y-1.125
X0.55Y-1.175
X0.6Y0.875
X0.6Y-0.4
X0.6Y-0.45
X0.65Y0.875
X0.65Y0.15
X0.65Y-0.4
X0.65Y-0.45
X0.675Y0.425
X0.7Y0.875
X0.7Y0.45
X0.7Y0.4
X0.7Y0.15
X0.7Y-0.4
X0.7Y-0.45
X0.725Y0.425
X0.75Y0.875
X0.75Y0.15
X0.75Y0.1
X0.75Y-0.4
X0.75Y-0.45
X0.8Y0.875
X0.8Y0.15
X0.8Y0.1
X0.8Y-0.4
X0.8Y-0.45
X0.85Y0.875
X0.85Y0.35
X0.85Y0.3
X0.85Y0.25
X0.85Y0.2
X0.85Y0.15
X0.85Y0.1
X0.85Y0.05
X0.85Y0.0
X0.85Y-0.05
X0.85Y-0.1
X0.85Y-0.15
X0.85Y-0.2
X0.85Y-0.25
X0.85Y-0.3
X0.85Y-0.35
X0.85Y-0.4
X0.85Y-0.45
X0.85Y-0.5
X0.85Y-0.55
X0.85Y-0.6
X0.85Y-0.65
X0.85Y-0.7
X0.85Y-0.75
X0.85Y-0.8
X0.85Y-0.85
X0.85Y-0.9
X0.9Y0.875
X0.9Y0.825
X0.9Y0.775
X0.9Y0.725
X0.9Y0.675
X0.9Y0.625
X0.9Y0.575
X0.9Y0.525
X0.9Y0.475
X0.9Y0.425
X0.9Y0.375
X0.9Y0.325
X0.9Y0.275
X0.9Y0.225
X0.9Y0.175
X0.9Y0.125
X0.9Y0.075
X0.9Y0.025
X0.9Y-0.025
X0.9Y-0.075
X0.9Y-0.125
X0.9Y-0.175
X0.9Y-0.225
X0.9Y-0.275
X0.9Y-0.325
X0.9Y-0.375
X0.9Y-0.425
X0.9Y-0.475
X0.9Y-0.525
X0.9Y-0.575
X0.9Y-0.625
X0.9Y-0.675
X0.9Y-0.725
X0.9Y-0.775
X0.9Y-0.825
X0.9Y-0.875
X0.9Y-0.925
T3
X0.11Y0.89
X0.11Y0.84
X0.11Y0.79
T4
X-0.8425Y1.063
X-0.8425Y-1.063
X-0.8148Y1.1298
X-0.8148Y0.9962
X-0.8148Y-0.9962
X-0.8148Y-1.1298
X-0.748Y1.1575
X-0.748Y0.9685
X-0.748Y-0.9685
X-0.748Y-1.1575
X-0.6812Y1.1298
X-0.6812Y0.9962
X-0.6812Y-0.9962
X-0.6812Y-1.1298
X-0.6535Y1.063
X-0.6535Y-1.063
X0.6535Y1.063
X0.6535Y-1.063
X0.6812Y1.1298
X0.6812Y0.9962
X0.6812Y-0.9962
X0.6812Y-1.1298
X0.748Y1.1575
X0.748Y0.9685
X0.748Y-0.9685
X0.748Y-1.1575
X0.8148Y1.1298
X0.8148Y0.9962
X0.8148Y-0.9962
X0.8148Y-1.1298
X0.8425Y1.063
X0.8425Y-1.063
T5
X-0.82Y0.65
X-0.82Y0.47
X-0.77Y0.54
X-0.75Y0.82
X-0.71Y0.74
X-0.645Y0.825
X-0.625Y-0.325
X-0.5917Y0.0836
X-0.59Y-0.745
X-0.58Y0.97
X-0.5575Y-0.375
X-0.5575Y-0.475
X-0.51Y1.06
X-0.51Y0.98
X-0.5Y0.63
X-0.44Y1.12
X-0.36Y0.28
X-0.36Y0.2
X-0.34Y0.13
X-0.34Y0.05
X-0.32Y0.47
X-0.24Y1.16
X-0.24Y0.269
X-0.19Y-0.4
X-0.13Y0.92
X-0.04Y1.12
X-0.03Y0.23
X0.04Y0.23
X0.1Y1.11
X0.15Y0.4
T6
X-0.2232Y0.8331
X-0.0264Y0.8331
T7
X-0.7526Y0.38
X-0.7526Y0.28
X-0.7518Y-0.22
X-0.7518Y-0.32
X-0.7518Y-0.42
X-0.7518Y-0.52
X-0.7518Y-0.62
X-0.7518Y-0.72
X-0.75Y0.08
X-0.75Y-0.02
T8
X0.2585Y0.975
X0.4554Y0.975
T9
X0.6974Y0.7197
X0.6974Y0.2785
X0.6974Y-0.2215
X0.6974Y-0.7215
T10
X-0.748Y1.063
X-0.748Y-1.063
X0.748Y1.063
X0.748Y-1.063
T0
M30
