%TF.GenerationSoftware,KiCad,Pcbnew,6.0.2+dfsg-1*%
%TF.CreationDate,2022-12-28T13:01:40+01:00*%
%TF.ProjectId,RobotMotorController,526f626f-744d-46f7-946f-72436f6e7472,rev?*%
%TF.SameCoordinates,Original*%
%TF.FileFunction,Other,Comment*%
%FSLAX46Y46*%
G04 Gerber Fmt 4.6, Leading zero omitted, Abs format (unit mm)*
G04 Created by KiCad (PCBNEW 6.0.2+dfsg-1) date 2022-12-28 13:01:40*
%MOMM*%
%LPD*%
G01*
G04 APERTURE LIST*
%ADD10C,0.150000*%
%ADD11C,0.300000*%
%ADD12C,0.200000*%
G04 APERTURE END LIST*
D10*
X34290000Y2540000D02*
X34290000Y-71120000D01*
X-2540000Y-29210000D02*
X34290000Y-29210000D01*
X34290000Y-29210000D02*
X71120000Y-29210000D01*
X71120000Y2540000D02*
X-2540000Y-60960000D01*
X-2540000Y2540000D02*
X71120000Y-60960000D01*
D11*
X27770000Y32958572D02*
X27841428Y33030000D01*
X27984285Y33101429D01*
X28341428Y33101429D01*
X28484285Y33030000D01*
X28555714Y32958572D01*
X28627142Y32815715D01*
X28627142Y32672858D01*
X28555714Y32458572D01*
X27698571Y31601429D01*
X28627142Y31601429D01*
X29270000Y31744286D02*
X29341428Y31672858D01*
X29270000Y31601429D01*
X29198571Y31672858D01*
X29270000Y31744286D01*
X29270000Y31601429D01*
X30627142Y33101429D02*
X30341428Y33101429D01*
X30198571Y33030000D01*
X30127142Y32958572D01*
X29984285Y32744286D01*
X29912857Y32458572D01*
X29912857Y31887143D01*
X29984285Y31744286D01*
X30055714Y31672858D01*
X30198571Y31601429D01*
X30484285Y31601429D01*
X30627142Y31672858D01*
X30698571Y31744286D01*
X30770000Y31887143D01*
X30770000Y32244286D01*
X30698571Y32387143D01*
X30627142Y32458572D01*
X30484285Y32530000D01*
X30198571Y32530000D01*
X30055714Y32458572D01*
X29984285Y32387143D01*
X29912857Y32244286D01*
X31698571Y33101429D02*
X31841428Y33101429D01*
X31984285Y33030000D01*
X32055714Y32958572D01*
X32127142Y32815715D01*
X32198571Y32530000D01*
X32198571Y32172858D01*
X32127142Y31887143D01*
X32055714Y31744286D01*
X31984285Y31672858D01*
X31841428Y31601429D01*
X31698571Y31601429D01*
X31555714Y31672858D01*
X31484285Y31744286D01*
X31412857Y31887143D01*
X31341428Y32172858D01*
X31341428Y32530000D01*
X31412857Y32815715D01*
X31484285Y32958572D01*
X31555714Y33030000D01*
X31698571Y33101429D01*
X33127142Y33101429D02*
X33270000Y33101429D01*
X33412857Y33030000D01*
X33484285Y32958572D01*
X33555714Y32815715D01*
X33627142Y32530000D01*
X33627142Y32172858D01*
X33555714Y31887143D01*
X33484285Y31744286D01*
X33412857Y31672858D01*
X33270000Y31601429D01*
X33127142Y31601429D01*
X32984285Y31672858D01*
X32912857Y31744286D01*
X32841428Y31887143D01*
X32770000Y32172858D01*
X32770000Y32530000D01*
X32841428Y32815715D01*
X32912857Y32958572D01*
X32984285Y33030000D01*
X33127142Y33101429D01*
X34555714Y33101429D02*
X34698571Y33101429D01*
X34841428Y33030000D01*
X34912857Y32958572D01*
X34984285Y32815715D01*
X35055714Y32530000D01*
X35055714Y32172858D01*
X34984285Y31887143D01*
X34912857Y31744286D01*
X34841428Y31672858D01*
X34698571Y31601429D01*
X34555714Y31601429D01*
X34412857Y31672858D01*
X34341428Y31744286D01*
X34270000Y31887143D01*
X34198571Y32172858D01*
X34198571Y32530000D01*
X34270000Y32815715D01*
X34341428Y32958572D01*
X34412857Y33030000D01*
X34555714Y33101429D01*
X36841428Y31601429D02*
X36841428Y32601429D01*
X36841428Y33101429D02*
X36770000Y33030000D01*
X36841428Y32958572D01*
X36912857Y33030000D01*
X36841428Y33101429D01*
X36841428Y32958572D01*
X37555714Y32601429D02*
X37555714Y31601429D01*
X37555714Y32458572D02*
X37627142Y32530000D01*
X37770000Y32601429D01*
X37984285Y32601429D01*
X38127142Y32530000D01*
X38198571Y32387143D01*
X38198571Y31601429D01*
D12*
X0Y500000D02*
X0Y31066420D01*
X66040000Y500000D02*
X66040000Y31066420D01*
X0Y30480000D02*
X66040000Y30480000D01*
X0Y30480000D02*
X66040000Y30480000D01*
X0Y30480000D02*
X1126504Y29893579D01*
X0Y30480000D02*
X1126504Y31066421D01*
X66040000Y30480000D02*
X64913496Y31066421D01*
X66040000Y30480000D02*
X64913496Y29893579D01*
D11*
X-40721429Y-67122857D02*
X-40721429Y-66980000D01*
X-40650000Y-66837142D01*
X-40578572Y-66765714D01*
X-40435715Y-66694285D01*
X-40150000Y-66622857D01*
X-39792858Y-66622857D01*
X-39507143Y-66694285D01*
X-39364286Y-66765714D01*
X-39292858Y-66837142D01*
X-39221429Y-66980000D01*
X-39221429Y-67122857D01*
X-39292858Y-67265714D01*
X-39364286Y-67337142D01*
X-39507143Y-67408571D01*
X-39792858Y-67480000D01*
X-40150000Y-67480000D01*
X-40435715Y-67408571D01*
X-40578572Y-67337142D01*
X-40650000Y-67265714D01*
X-40721429Y-67122857D01*
X-39364286Y-65980000D02*
X-39292858Y-65908571D01*
X-39221429Y-65980000D01*
X-39292858Y-66051428D01*
X-39364286Y-65980000D01*
X-39221429Y-65980000D01*
X-40721429Y-65408571D02*
X-40721429Y-64480000D01*
X-40150000Y-64980000D01*
X-40150000Y-64765714D01*
X-40078572Y-64622857D01*
X-40007143Y-64551428D01*
X-39864286Y-64480000D01*
X-39507143Y-64480000D01*
X-39364286Y-64551428D01*
X-39292858Y-64622857D01*
X-39221429Y-64765714D01*
X-39221429Y-65194285D01*
X-39292858Y-65337142D01*
X-39364286Y-65408571D01*
X-40721429Y-63551428D02*
X-40721429Y-63408571D01*
X-40650000Y-63265714D01*
X-40578572Y-63194285D01*
X-40435715Y-63122857D01*
X-40150000Y-63051428D01*
X-39792858Y-63051428D01*
X-39507143Y-63122857D01*
X-39364286Y-63194285D01*
X-39292858Y-63265714D01*
X-39221429Y-63408571D01*
X-39221429Y-63551428D01*
X-39292858Y-63694285D01*
X-39364286Y-63765714D01*
X-39507143Y-63837142D01*
X-39792858Y-63908571D01*
X-40150000Y-63908571D01*
X-40435715Y-63837142D01*
X-40578572Y-63765714D01*
X-40650000Y-63694285D01*
X-40721429Y-63551428D01*
X-40721429Y-62122857D02*
X-40721429Y-61980000D01*
X-40650000Y-61837142D01*
X-40578572Y-61765714D01*
X-40435715Y-61694285D01*
X-40150000Y-61622857D01*
X-39792858Y-61622857D01*
X-39507143Y-61694285D01*
X-39364286Y-61765714D01*
X-39292858Y-61837142D01*
X-39221429Y-61980000D01*
X-39221429Y-62122857D01*
X-39292858Y-62265714D01*
X-39364286Y-62337142D01*
X-39507143Y-62408571D01*
X-39792858Y-62480000D01*
X-40150000Y-62480000D01*
X-40435715Y-62408571D01*
X-40578572Y-62337142D01*
X-40650000Y-62265714D01*
X-40721429Y-62122857D01*
X-40721429Y-60694285D02*
X-40721429Y-60551428D01*
X-40650000Y-60408571D01*
X-40578572Y-60337142D01*
X-40435715Y-60265714D01*
X-40150000Y-60194285D01*
X-39792858Y-60194285D01*
X-39507143Y-60265714D01*
X-39364286Y-60337142D01*
X-39292858Y-60408571D01*
X-39221429Y-60551428D01*
X-39221429Y-60694285D01*
X-39292858Y-60837142D01*
X-39364286Y-60908571D01*
X-39507143Y-60980000D01*
X-39792858Y-61051428D01*
X-40150000Y-61051428D01*
X-40435715Y-60980000D01*
X-40578572Y-60908571D01*
X-40650000Y-60837142D01*
X-40721429Y-60694285D01*
X-39221429Y-58408571D02*
X-40221429Y-58408571D01*
X-40721429Y-58408571D02*
X-40650000Y-58480000D01*
X-40578572Y-58408571D01*
X-40650000Y-58337142D01*
X-40721429Y-58408571D01*
X-40578572Y-58408571D01*
X-40221429Y-57694285D02*
X-39221429Y-57694285D01*
X-40078572Y-57694285D02*
X-40150000Y-57622857D01*
X-40221429Y-57480000D01*
X-40221429Y-57265714D01*
X-40150000Y-57122857D01*
X-40007143Y-57051428D01*
X-39221429Y-57051428D01*
D12*
X14740000Y-66040000D02*
X-38686420Y-66040000D01*
X14740000Y-58420000D02*
X-38686420Y-58420000D01*
X-38100000Y-66040000D02*
X-38100000Y-58420000D01*
X-38100000Y-66040000D02*
X-38100000Y-58420000D01*
X-38100000Y-66040000D02*
X-37513579Y-64913496D01*
X-38100000Y-66040000D02*
X-38686421Y-64913496D01*
X-38100000Y-58420000D02*
X-38686421Y-59546504D01*
X-38100000Y-58420000D02*
X-37513579Y-59546504D01*
D11*
X2727142Y-93898571D02*
X2870000Y-93898571D01*
X3012857Y-93970000D01*
X3084285Y-94041428D01*
X3155714Y-94184285D01*
X3227142Y-94470000D01*
X3227142Y-94827142D01*
X3155714Y-95112857D01*
X3084285Y-95255714D01*
X3012857Y-95327142D01*
X2870000Y-95398571D01*
X2727142Y-95398571D01*
X2584285Y-95327142D01*
X2512857Y-95255714D01*
X2441428Y-95112857D01*
X2370000Y-94827142D01*
X2370000Y-94470000D01*
X2441428Y-94184285D01*
X2512857Y-94041428D01*
X2584285Y-93970000D01*
X2727142Y-93898571D01*
X3870000Y-95255714D02*
X3941428Y-95327142D01*
X3870000Y-95398571D01*
X3798571Y-95327142D01*
X3870000Y-95255714D01*
X3870000Y-95398571D01*
X5227142Y-93898571D02*
X4941428Y-93898571D01*
X4798571Y-93970000D01*
X4727142Y-94041428D01*
X4584285Y-94255714D01*
X4512857Y-94541428D01*
X4512857Y-95112857D01*
X4584285Y-95255714D01*
X4655714Y-95327142D01*
X4798571Y-95398571D01*
X5084285Y-95398571D01*
X5227142Y-95327142D01*
X5298571Y-95255714D01*
X5370000Y-95112857D01*
X5370000Y-94755714D01*
X5298571Y-94612857D01*
X5227142Y-94541428D01*
X5084285Y-94470000D01*
X4798571Y-94470000D01*
X4655714Y-94541428D01*
X4584285Y-94612857D01*
X4512857Y-94755714D01*
X6298571Y-93898571D02*
X6441428Y-93898571D01*
X6584285Y-93970000D01*
X6655714Y-94041428D01*
X6727142Y-94184285D01*
X6798571Y-94470000D01*
X6798571Y-94827142D01*
X6727142Y-95112857D01*
X6655714Y-95255714D01*
X6584285Y-95327142D01*
X6441428Y-95398571D01*
X6298571Y-95398571D01*
X6155714Y-95327142D01*
X6084285Y-95255714D01*
X6012857Y-95112857D01*
X5941428Y-94827142D01*
X5941428Y-94470000D01*
X6012857Y-94184285D01*
X6084285Y-94041428D01*
X6155714Y-93970000D01*
X6298571Y-93898571D01*
X7727142Y-93898571D02*
X7870000Y-93898571D01*
X8012857Y-93970000D01*
X8084285Y-94041428D01*
X8155714Y-94184285D01*
X8227142Y-94470000D01*
X8227142Y-94827142D01*
X8155714Y-95112857D01*
X8084285Y-95255714D01*
X8012857Y-95327142D01*
X7870000Y-95398571D01*
X7727142Y-95398571D01*
X7584285Y-95327142D01*
X7512857Y-95255714D01*
X7441428Y-95112857D01*
X7370000Y-94827142D01*
X7370000Y-94470000D01*
X7441428Y-94184285D01*
X7512857Y-94041428D01*
X7584285Y-93970000D01*
X7727142Y-93898571D01*
X9155714Y-93898571D02*
X9298571Y-93898571D01*
X9441428Y-93970000D01*
X9512857Y-94041428D01*
X9584285Y-94184285D01*
X9655714Y-94470000D01*
X9655714Y-94827142D01*
X9584285Y-95112857D01*
X9512857Y-95255714D01*
X9441428Y-95327142D01*
X9298571Y-95398571D01*
X9155714Y-95398571D01*
X9012857Y-95327142D01*
X8941428Y-95255714D01*
X8870000Y-95112857D01*
X8798571Y-94827142D01*
X8798571Y-94470000D01*
X8870000Y-94184285D01*
X8941428Y-94041428D01*
X9012857Y-93970000D01*
X9155714Y-93898571D01*
X11441428Y-95398571D02*
X11441428Y-94398571D01*
X11441428Y-93898571D02*
X11370000Y-93970000D01*
X11441428Y-94041428D01*
X11512857Y-93970000D01*
X11441428Y-93898571D01*
X11441428Y-94041428D01*
X12155714Y-94398571D02*
X12155714Y-95398571D01*
X12155714Y-94541428D02*
X12227142Y-94470000D01*
X12370000Y-94398571D01*
X12584285Y-94398571D01*
X12727142Y-94470000D01*
X12798571Y-94612857D01*
X12798571Y-95398571D01*
D12*
X0Y-58920000D02*
X0Y-97106420D01*
X15240000Y-58920000D02*
X15240000Y-97106420D01*
X0Y-96520000D02*
X15240000Y-96520000D01*
X0Y-96520000D02*
X15240000Y-96520000D01*
X0Y-96520000D02*
X1126504Y-97106421D01*
X0Y-96520000D02*
X1126504Y-95933579D01*
X15240000Y-96520000D02*
X14113496Y-95933579D01*
X15240000Y-96520000D02*
X14113496Y-97106421D01*
M02*
