%TF.GenerationSoftware,KiCad,Pcbnew,6.0.2+dfsg-1*%
%TF.CreationDate,2022-12-28T13:01:40+01:00*%
%TF.ProjectId,RobotMotorController,526f626f-744d-46f7-946f-72436f6e7472,rev?*%
%TF.SameCoordinates,Original*%
%TF.FileFunction,Soldermask,Bot*%
%TF.FilePolarity,Negative*%
%FSLAX46Y46*%
G04 Gerber Fmt 4.6, Leading zero omitted, Abs format (unit mm)*
G04 Created by KiCad (PCBNEW 6.0.2+dfsg-1) date 2022-12-28 13:01:40*
%MOMM*%
%LPD*%
G01*
G04 APERTURE LIST*
G04 Aperture macros list*
%AMRoundRect*
0 Rectangle with rounded corners*
0 $1 Rounding radius*
0 $2 $3 $4 $5 $6 $7 $8 $9 X,Y pos of 4 corners*
0 Add a 4 corners polygon primitive as box body*
4,1,4,$2,$3,$4,$5,$6,$7,$8,$9,$2,$3,0*
0 Add four circle primitives for the rounded corners*
1,1,$1+$1,$2,$3*
1,1,$1+$1,$4,$5*
1,1,$1+$1,$6,$7*
1,1,$1+$1,$8,$9*
0 Add four rect primitives between the rounded corners*
20,1,$1+$1,$2,$3,$4,$5,0*
20,1,$1+$1,$4,$5,$6,$7,0*
20,1,$1+$1,$6,$7,$8,$9,0*
20,1,$1+$1,$8,$9,$2,$3,0*%
G04 Aperture macros list end*
%ADD10RoundRect,0.100000X-0.750000X0.525000X-0.750000X-0.525000X0.750000X-0.525000X0.750000X0.525000X0*%
%ADD11O,1.700000X1.250000*%
%ADD12RoundRect,0.100000X-1.300000X-1.300000X1.300000X-1.300000X1.300000X1.300000X-1.300000X1.300000X0*%
%ADD13C,2.800000*%
%ADD14C,3.600000*%
%ADD15RoundRect,0.350000X-0.620000X-0.845000X0.620000X-0.845000X0.620000X0.845000X-0.620000X0.845000X0*%
%ADD16O,1.940000X2.390000*%
%ADD17RoundRect,0.350000X0.845000X-0.620000X0.845000X0.620000X-0.845000X0.620000X-0.845000X-0.620000X0*%
%ADD18O,2.390000X1.940000*%
%ADD19RoundRect,0.100000X-0.650000X0.650000X-0.650000X-0.650000X0.650000X-0.650000X0.650000X0.650000X0*%
%ADD20C,1.500000*%
%ADD21RoundRect,0.300000X0.200000X0.275000X-0.200000X0.275000X-0.200000X-0.275000X0.200000X-0.275000X0*%
%ADD22RoundRect,0.325000X0.250000X-0.225000X0.250000X0.225000X-0.250000X0.225000X-0.250000X-0.225000X0*%
%ADD23RoundRect,0.300000X-0.275000X0.200000X-0.275000X-0.200000X0.275000X-0.200000X0.275000X0.200000X0*%
%ADD24RoundRect,0.300000X-0.200000X-0.275000X0.200000X-0.275000X0.200000X0.275000X-0.200000X0.275000X0*%
%ADD25RoundRect,0.100000X0.450000X0.600000X-0.450000X0.600000X-0.450000X-0.600000X0.450000X-0.600000X0*%
%ADD26RoundRect,0.300000X0.275000X-0.200000X0.275000X0.200000X-0.275000X0.200000X-0.275000X-0.200000X0*%
%ADD27RoundRect,0.250000X0.150000X-0.587500X0.150000X0.587500X-0.150000X0.587500X-0.150000X-0.587500X0*%
%ADD28RoundRect,0.100000X1.250000X-1.650000X1.250000X1.650000X-1.250000X1.650000X-1.250000X-1.650000X0*%
%ADD29RoundRect,0.325000X-0.250000X0.225000X-0.250000X-0.225000X0.250000X-0.225000X0.250000X0.225000X0*%
%ADD30RoundRect,0.100000X-0.325000X-0.200000X0.325000X-0.200000X0.325000X0.200000X-0.325000X0.200000X0*%
%ADD31RoundRect,0.325000X-0.225000X-0.250000X0.225000X-0.250000X0.225000X0.250000X-0.225000X0.250000X0*%
%ADD32RoundRect,0.325000X0.225000X0.250000X-0.225000X0.250000X-0.225000X-0.250000X0.225000X-0.250000X0*%
%ADD33RoundRect,0.350000X-0.412500X-0.650000X0.412500X-0.650000X0.412500X0.650000X-0.412500X0.650000X0*%
%ADD34RoundRect,0.318750X-0.256250X0.218750X-0.256250X-0.218750X0.256250X-0.218750X0.256250X0.218750X0*%
%ADD35RoundRect,0.100000X-1.100000X-0.600000X1.100000X-0.600000X1.100000X0.600000X-1.100000X0.600000X0*%
%ADD36RoundRect,0.100000X-3.200000X-2.900000X3.200000X-2.900000X3.200000X2.900000X-3.200000X2.900000X0*%
%ADD37RoundRect,0.100000X0.325000X0.200000X-0.325000X0.200000X-0.325000X-0.200000X0.325000X-0.200000X0*%
%ADD38RoundRect,0.318750X0.256250X-0.218750X0.256250X0.218750X-0.256250X0.218750X-0.256250X-0.218750X0*%
%ADD39RoundRect,0.100000X0.850000X0.850000X-0.850000X0.850000X-0.850000X-0.850000X0.850000X-0.850000X0*%
%ADD40O,1.900000X1.900000*%
%ADD41RoundRect,0.350000X0.412500X0.650000X-0.412500X0.650000X-0.412500X-0.650000X0.412500X-0.650000X0*%
%ADD42RoundRect,0.100000X0.850000X-0.850000X0.850000X0.850000X-0.850000X0.850000X-0.850000X-0.850000X0*%
%ADD43RoundRect,0.350000X0.650000X-0.412500X0.650000X0.412500X-0.650000X0.412500X-0.650000X-0.412500X0*%
G04 APERTURE END LIST*
D10*
%TO.C,U6*%
X15240000Y-20320000D03*
D11*
X15240000Y-21590000D03*
X15240000Y-22860000D03*
%TD*%
D12*
%TO.C,J6*%
X27940000Y16510000D03*
D13*
X32940000Y16510000D03*
X37940000Y16510000D03*
X42940000Y16510000D03*
X47940000Y16510000D03*
X52940000Y16510000D03*
X57940000Y16510000D03*
X62940000Y16510000D03*
X67940000Y16510000D03*
%TD*%
D10*
%TO.C,U5*%
X15240000Y-11430000D03*
D11*
X15240000Y-12700000D03*
X15240000Y-13970000D03*
%TD*%
D14*
%TO.C,TP4*%
X13970000Y-54610000D03*
%TD*%
D15*
%TO.C,J8*%
X53340000Y-49550000D03*
D16*
X55880000Y-49550000D03*
X58420000Y-49550000D03*
X60960000Y-49550000D03*
%TD*%
D17*
%TO.C,M2*%
X39370000Y-40640000D03*
D18*
X39370000Y-38100000D03*
X39370000Y-35560000D03*
X39370000Y-33020000D03*
X39370000Y-30480000D03*
X39370000Y-27940000D03*
%TD*%
D19*
%TO.C,U1*%
X15240000Y13716000D03*
D20*
X17780000Y13716000D03*
X20320000Y13716000D03*
%TD*%
D12*
%TO.C,J11*%
X2780000Y16510000D03*
D13*
X7780000Y16510000D03*
%TD*%
D15*
%TO.C,J5*%
X7620000Y-33040000D03*
D16*
X10160000Y-33040000D03*
X12700000Y-33040000D03*
X15240000Y-33040000D03*
%TD*%
D14*
%TO.C,TP5*%
X48260000Y-61976000D03*
%TD*%
D17*
%TO.C,P2*%
X39370000Y-21590000D03*
D18*
X39370000Y-19050000D03*
%TD*%
D17*
%TO.C,P1*%
X29210000Y-21590000D03*
D18*
X29210000Y-19050000D03*
%TD*%
D17*
%TO.C,E2*%
X39390000Y-58420000D03*
D18*
X39390000Y-55880000D03*
X39390000Y-53340000D03*
X39390000Y-50800000D03*
X39390000Y-48260000D03*
%TD*%
D15*
%TO.C,J10*%
X53340000Y-16530000D03*
D16*
X55880000Y-16530000D03*
X58420000Y-16530000D03*
X60960000Y-16530000D03*
%TD*%
D14*
%TO.C,TP8*%
X34544000Y-5588000D03*
%TD*%
%TO.C,TP6*%
X34544000Y-762000D03*
%TD*%
D15*
%TO.C,J7*%
X53340000Y-33020000D03*
D16*
X55880000Y-33020000D03*
X58420000Y-33020000D03*
X60960000Y-33020000D03*
%TD*%
D17*
%TO.C,M1*%
X29230000Y-40640000D03*
D18*
X29230000Y-38100000D03*
X29230000Y-35560000D03*
X29230000Y-33020000D03*
X29230000Y-30480000D03*
X29230000Y-27940000D03*
%TD*%
D10*
%TO.C,U3*%
X8530000Y-11430000D03*
D11*
X8530000Y-12700000D03*
X8530000Y-13970000D03*
%TD*%
D10*
%TO.C,U4*%
X8509000Y-20320000D03*
D11*
X8509000Y-21590000D03*
X8509000Y-22860000D03*
%TD*%
D17*
%TO.C,P3*%
X29210000Y-12700000D03*
D18*
X29210000Y-10160000D03*
%TD*%
D14*
%TO.C,TP7*%
X39116000Y-5588000D03*
%TD*%
D17*
%TO.C,J4*%
X67838000Y4572000D03*
D18*
X67838000Y7112000D03*
X67838000Y9652000D03*
%TD*%
D17*
%TO.C,E1*%
X29230000Y-58420000D03*
D18*
X29230000Y-55880000D03*
X29230000Y-53340000D03*
X29230000Y-50800000D03*
X29230000Y-48260000D03*
%TD*%
D17*
%TO.C,P4*%
X39370000Y-12700000D03*
D18*
X39370000Y-10160000D03*
%TD*%
D15*
%TO.C,J9*%
X53340000Y-20000D03*
D16*
X55880000Y-20000D03*
X58420000Y-20000D03*
X60960000Y-20000D03*
%TD*%
D21*
%TO.C,R4*%
X24955000Y-55880000D03*
X23305000Y-55880000D03*
%TD*%
D22*
%TO.C,C11*%
X46990000Y-21095000D03*
X46990000Y-19545000D03*
%TD*%
D23*
%TO.C,R36*%
X8890000Y-2985000D03*
X8890000Y-4635000D03*
%TD*%
D24*
%TO.C,R24*%
X43625000Y-19050000D03*
X45275000Y-19050000D03*
%TD*%
D23*
%TO.C,R17*%
X6985000Y-16320000D03*
X6985000Y-17970000D03*
%TD*%
D24*
%TO.C,R13*%
X43625000Y-33020000D03*
X45275000Y-33020000D03*
%TD*%
D23*
%TO.C,R18*%
X6985000Y-25210000D03*
X6985000Y-26860000D03*
%TD*%
D25*
%TO.C,D11*%
X32130000Y10795000D03*
X28830000Y10795000D03*
%TD*%
D24*
%TO.C,R2*%
X43625000Y-53340000D03*
X45275000Y-53340000D03*
%TD*%
D26*
%TO.C,R28*%
X15240000Y-26860000D03*
X15240000Y-25210000D03*
%TD*%
D25*
%TO.C,D12*%
X42036000Y10795000D03*
X38736000Y10795000D03*
%TD*%
D21*
%TO.C,R31*%
X24955000Y-10160000D03*
X23305000Y-10160000D03*
%TD*%
D27*
%TO.C,Q3*%
X41336000Y6047500D03*
X39436000Y6047500D03*
X40386000Y7922500D03*
%TD*%
D21*
%TO.C,R27*%
X15557000Y-16510000D03*
X13907000Y-16510000D03*
%TD*%
D24*
%TO.C,R3*%
X43625000Y-50800000D03*
X45275000Y-50800000D03*
%TD*%
D27*
%TO.C,Q2*%
X31430000Y6047500D03*
X29530000Y6047500D03*
X30480000Y7922500D03*
%TD*%
D22*
%TO.C,C13*%
X46990000Y-12205000D03*
X46990000Y-10655000D03*
%TD*%
D28*
%TO.C,D5*%
X6546000Y6350000D03*
X-254000Y6350000D03*
%TD*%
D29*
%TO.C,C10*%
X21590000Y-19545000D03*
X21590000Y-21095000D03*
%TD*%
D24*
%TO.C,R21*%
X23305000Y-21590000D03*
X24955000Y-21590000D03*
%TD*%
D23*
%TO.C,R15*%
X63246000Y4444000D03*
X63246000Y2794000D03*
%TD*%
D22*
%TO.C,C5*%
X19050000Y8890000D03*
X19050000Y10440000D03*
%TD*%
D30*
%TO.C,D1*%
X18100000Y-55260000D03*
X18100000Y-54610000D03*
X18100000Y-53960000D03*
X20000000Y-53960000D03*
X20000000Y-54610000D03*
X20000000Y-55260000D03*
%TD*%
D23*
%TO.C,R26*%
X17272000Y-25210000D03*
X17272000Y-26860000D03*
%TD*%
D24*
%TO.C,R1*%
X43625000Y-55880000D03*
X45275000Y-55880000D03*
%TD*%
D21*
%TO.C,R8*%
X24955000Y-30480000D03*
X23305000Y-30480000D03*
%TD*%
%TO.C,R5*%
X24955000Y-53340000D03*
X23305000Y-53340000D03*
%TD*%
D31*
%TO.C,C15*%
X43675000Y-58420000D03*
X45225000Y-58420000D03*
%TD*%
D24*
%TO.C,R29*%
X23305000Y-12700000D03*
X24955000Y-12700000D03*
%TD*%
D21*
%TO.C,R30*%
X45275000Y-12700000D03*
X43625000Y-12700000D03*
%TD*%
D32*
%TO.C,C2*%
X24905000Y-40640000D03*
X23355000Y-40640000D03*
%TD*%
D21*
%TO.C,R9*%
X24955000Y-33020000D03*
X23305000Y-33020000D03*
%TD*%
D23*
%TO.C,R40*%
X49784000Y-2477000D03*
X49784000Y-4127000D03*
%TD*%
D33*
%TO.C,C4*%
X13677500Y10160000D03*
X16802500Y10160000D03*
%TD*%
D23*
%TO.C,R34*%
X43688000Y-2477000D03*
X43688000Y-4127000D03*
%TD*%
D31*
%TO.C,C1*%
X43675000Y-40640000D03*
X45225000Y-40640000D03*
%TD*%
D27*
%TO.C,Q4*%
X51750000Y6047500D03*
X49850000Y6047500D03*
X50800000Y7922500D03*
%TD*%
D21*
%TO.C,R7*%
X24955000Y-27940000D03*
X23305000Y-27940000D03*
%TD*%
D34*
%TO.C,D7*%
X49530000Y-19532500D03*
X49530000Y-21107500D03*
%TD*%
D21*
%TO.C,R39*%
X46545000Y254000D03*
X44895000Y254000D03*
%TD*%
%TO.C,R10*%
X24955000Y-35560000D03*
X23305000Y-35560000D03*
%TD*%
D35*
%TO.C,U7*%
X14679000Y-247000D03*
D36*
X20979000Y2033000D03*
D35*
X14679000Y4313000D03*
%TD*%
D21*
%TO.C,R35*%
X43243000Y254000D03*
X41593000Y254000D03*
%TD*%
D33*
%TO.C,C6*%
X21297500Y8890000D03*
X24422500Y8890000D03*
%TD*%
D21*
%TO.C,R22*%
X45275000Y-21590000D03*
X43625000Y-21590000D03*
%TD*%
D26*
%TO.C,R16*%
X63246000Y6033000D03*
X63246000Y7683000D03*
%TD*%
D23*
%TO.C,R38*%
X46482000Y-2477000D03*
X46482000Y-4127000D03*
%TD*%
D33*
%TO.C,C8*%
X21297500Y-5080000D03*
X24422500Y-5080000D03*
%TD*%
D23*
%TO.C,R25*%
X17272000Y-16320000D03*
X17272000Y-17970000D03*
%TD*%
D37*
%TO.C,D2*%
X50480000Y-53960000D03*
X50480000Y-54610000D03*
X50480000Y-55260000D03*
X48580000Y-55260000D03*
X48580000Y-54610000D03*
X48580000Y-53960000D03*
%TD*%
D29*
%TO.C,C16*%
X11430000Y-6845000D03*
X11430000Y-8395000D03*
%TD*%
D38*
%TO.C,D6*%
X19050000Y-21107500D03*
X19050000Y-19532500D03*
%TD*%
D24*
%TO.C,R11*%
X43625000Y-27940000D03*
X45275000Y-27940000D03*
%TD*%
D39*
%TO.C,J3*%
X66040000Y0D03*
D40*
X68580000Y0D03*
X66040000Y-2540000D03*
X68580000Y-2540000D03*
X66040000Y-5080000D03*
X68580000Y-5080000D03*
X66040000Y-7620000D03*
X68580000Y-7620000D03*
X66040000Y-10160000D03*
X68580000Y-10160000D03*
X66040000Y-12700000D03*
X68580000Y-12700000D03*
X66040000Y-15240000D03*
X68580000Y-15240000D03*
X66040000Y-17780000D03*
X68580000Y-17780000D03*
X66040000Y-20320000D03*
X68580000Y-20320000D03*
X66040000Y-22860000D03*
X68580000Y-22860000D03*
X66040000Y-25400000D03*
X68580000Y-25400000D03*
X66040000Y-27940000D03*
X68580000Y-27940000D03*
X66040000Y-30480000D03*
X68580000Y-30480000D03*
X66040000Y-33020000D03*
X68580000Y-33020000D03*
X66040000Y-35560000D03*
X68580000Y-35560000D03*
X66040000Y-38100000D03*
X68580000Y-38100000D03*
X66040000Y-40640000D03*
X68580000Y-40640000D03*
X66040000Y-43180000D03*
X68580000Y-43180000D03*
X66040000Y-45720000D03*
X68580000Y-45720000D03*
X66040000Y-48260000D03*
X68580000Y-48260000D03*
X66040000Y-50800000D03*
X68580000Y-50800000D03*
X66040000Y-53340000D03*
X68580000Y-53340000D03*
X66040000Y-55880000D03*
X68580000Y-55880000D03*
X66040000Y-58420000D03*
X68580000Y-58420000D03*
%TD*%
D25*
%TO.C,D13*%
X52450000Y10795000D03*
X49150000Y10795000D03*
%TD*%
D23*
%TO.C,R37*%
X8890000Y-6795000D03*
X8890000Y-8445000D03*
%TD*%
D31*
%TO.C,C9*%
X25895000Y-2540000D03*
X27445000Y-2540000D03*
%TD*%
D24*
%TO.C,R32*%
X43625000Y-10160000D03*
X45275000Y-10160000D03*
%TD*%
D26*
%TO.C,R19*%
X8890000Y-17970000D03*
X8890000Y-16320000D03*
%TD*%
D41*
%TO.C,C3*%
X10452500Y-762000D03*
X7327500Y-762000D03*
%TD*%
D26*
%TO.C,R20*%
X8890000Y-26860000D03*
X8890000Y-25210000D03*
%TD*%
D24*
%TO.C,R12*%
X43625000Y-30480000D03*
X45275000Y-30480000D03*
%TD*%
D25*
%TO.C,D10*%
X61594000Y8128000D03*
X58294000Y8128000D03*
%TD*%
D42*
%TO.C,J1*%
X53340000Y-66040000D03*
D40*
X53340000Y-68580000D03*
X50800000Y-66040000D03*
X50800000Y-68580000D03*
X48260000Y-66040000D03*
X48260000Y-68580000D03*
X45720000Y-66040000D03*
X45720000Y-68580000D03*
X43180000Y-66040000D03*
X43180000Y-68580000D03*
X40640000Y-66040000D03*
X40640000Y-68580000D03*
X38100000Y-66040000D03*
X38100000Y-68580000D03*
X35560000Y-66040000D03*
X35560000Y-68580000D03*
X33020000Y-66040000D03*
X33020000Y-68580000D03*
X30480000Y-66040000D03*
X30480000Y-68580000D03*
X27940000Y-66040000D03*
X27940000Y-68580000D03*
X25400000Y-66040000D03*
X25400000Y-68580000D03*
X22860000Y-66040000D03*
X22860000Y-68580000D03*
X20320000Y-66040000D03*
X20320000Y-68580000D03*
X17780000Y-66040000D03*
X17780000Y-68580000D03*
X15240000Y-66040000D03*
X15240000Y-68580000D03*
%TD*%
D23*
%TO.C,R33*%
X65024000Y4381000D03*
X65024000Y2731000D03*
%TD*%
D27*
%TO.C,Q1*%
X61656000Y3888500D03*
X59756000Y3888500D03*
X60706000Y5763500D03*
%TD*%
D38*
%TO.C,D8*%
X19050000Y-12217500D03*
X19050000Y-10642500D03*
%TD*%
D21*
%TO.C,R41*%
X49847000Y254000D03*
X48197000Y254000D03*
%TD*%
%TO.C,R6*%
X24955000Y-50800000D03*
X23305000Y-50800000D03*
%TD*%
D22*
%TO.C,C18*%
X11938000Y5829000D03*
X11938000Y7379000D03*
%TD*%
D39*
%TO.C,J2*%
X0Y0D03*
D40*
X2540000Y0D03*
X0Y-2540000D03*
X2540000Y-2540000D03*
X0Y-5080000D03*
X2540000Y-5080000D03*
X0Y-7620000D03*
X2540000Y-7620000D03*
X0Y-10160000D03*
X2540000Y-10160000D03*
X0Y-12700000D03*
X2540000Y-12700000D03*
X0Y-15240000D03*
X2540000Y-15240000D03*
X0Y-17780000D03*
X2540000Y-17780000D03*
X0Y-20320000D03*
X2540000Y-20320000D03*
X0Y-22860000D03*
X2540000Y-22860000D03*
X0Y-25400000D03*
X2540000Y-25400000D03*
X0Y-27940000D03*
X2540000Y-27940000D03*
X0Y-30480000D03*
X2540000Y-30480000D03*
X0Y-33020000D03*
X2540000Y-33020000D03*
X0Y-35560000D03*
X2540000Y-35560000D03*
X0Y-38100000D03*
X2540000Y-38100000D03*
X0Y-40640000D03*
X2540000Y-40640000D03*
X0Y-43180000D03*
X2540000Y-43180000D03*
X0Y-45720000D03*
X2540000Y-45720000D03*
X0Y-48260000D03*
X2540000Y-48260000D03*
X0Y-50800000D03*
X2540000Y-50800000D03*
X0Y-53340000D03*
X2540000Y-53340000D03*
X0Y-55880000D03*
X2540000Y-55880000D03*
X0Y-58420000D03*
X2540000Y-58420000D03*
%TD*%
D31*
%TO.C,C7*%
X22085000Y11430000D03*
X23635000Y11430000D03*
%TD*%
D21*
%TO.C,R23*%
X24955000Y-19050000D03*
X23305000Y-19050000D03*
%TD*%
D29*
%TO.C,C12*%
X21590000Y-10655000D03*
X21590000Y-12205000D03*
%TD*%
D32*
%TO.C,C14*%
X24905000Y-58420000D03*
X23355000Y-58420000D03*
%TD*%
D34*
%TO.C,D9*%
X49530000Y-10642500D03*
X49530000Y-12217500D03*
%TD*%
D24*
%TO.C,R14*%
X43625000Y-35560000D03*
X45275000Y-35560000D03*
%TD*%
D43*
%TO.C,C17*%
X9398000Y5041500D03*
X9398000Y8166500D03*
%TD*%
D30*
%TO.C,D3*%
X19370000Y-34940000D03*
X19370000Y-34290000D03*
X19370000Y-33640000D03*
X21270000Y-33640000D03*
X21270000Y-34290000D03*
X21270000Y-34940000D03*
%TD*%
D37*
%TO.C,D4*%
X49210000Y-33640000D03*
X49210000Y-34290000D03*
X49210000Y-34940000D03*
X47310000Y-34940000D03*
X47310000Y-34290000D03*
X47310000Y-33640000D03*
%TD*%
M02*
