M48
; DRILL file {KiCad 6.0.2+dfsg-1} date Wed 28 Dec 2022 13:01:40 CET
; FORMAT={-:-/ absolute / inch / decimal}
; #@! TF.CreationDate,2022-12-28T13:01:40+01:00
; #@! TF.GenerationSoftware,Kicad,Pcbnew,6.0.2+dfsg-1
; #@! TF.FileFunction,Plated,1,2,PTH
FMAT,2
INCH
; #@! TA.AperFunction,Plated,PTH,ViaDrill
T1C0.0157
; #@! TA.AperFunction,Plated,PTH,ViaDrill
T2C0.0197
; #@! TA.AperFunction,Plated,PTH,ViaDrill
T3C0.0276
; #@! TA.AperFunction,Plated,PTH,ComponentDrill
T4C0.0276
; #@! TA.AperFunction,Plated,PTH,ComponentDrill
T5C0.0295
; #@! TA.AperFunction,Plated,PTH,ViaDrill
T6C0.0315
; #@! TA.AperFunction,Plated,PTH,ComponentDrill
T7C0.0394
; #@! TA.AperFunction,Plated,PTH,ComponentDrill
T8C0.0469
; #@! TA.AperFunction,Plated,PTH,ComponentDrill
T9C0.0512
; #@! TA.AperFunction,Plated,PTH,ComponentDrill
T10C0.0728
%
G90
G05
T1
X0.0Y0.1
X0.05Y0.1
X0.1Y0.1
X0.15Y0.1
X0.2Y0.55
X0.2Y-2.05
X0.2085Y-1.0423
X0.21Y-0.34
X0.22Y-1.26
X0.22Y-1.34
X0.22Y-1.48
X0.22Y-1.62
X0.22Y-1.76
X0.25Y0.55
X0.25Y-1.95
X0.3Y0.55
X0.3Y-1.38
X0.3Y-1.8
X0.32Y-1.5
X0.32Y-1.62
X0.34Y-1.38
X0.35Y0.55
X0.35Y-1.85
X0.35Y-2.3
X0.4Y0.7
X0.4Y0.65
X0.4Y0.6
X0.4Y0.55
X0.4Y-2.3
X0.425Y-0.175
X0.4472Y-2.3028
X0.5Y0.08
X0.5Y-0.2
X0.5Y-1.0
X0.5Y-1.05
X0.5Y-1.1
X0.53Y-0.12
X0.5317Y0.2874
X0.54Y0.24
X0.55Y0.08
X0.55Y-0.2
X0.6Y-0.12
X0.6Y-0.2
X0.6Y-1.8
X0.61Y0.08
X0.62Y-1.58
X0.65Y-0.2
X0.66Y-0.12
X0.66Y-1.54
X0.66Y-1.64
X0.67Y0.19
X0.67Y0.12
X0.67Y0.05
X0.67Y-0.03
X0.67Y-0.34
X0.7Y-0.2
X0.71Y-0.36
X0.72Y0.22
X0.72Y-0.12
X0.75Y-0.2
X0.76Y-1.12
X0.76Y-1.27
X0.76Y-1.84
X0.78Y0.22
X0.79Y-0.12
X0.8Y-0.65
X0.8Y-1.08
X0.8Y-2.45
X0.84Y0.22
X0.85Y-0.65
X0.86Y-1.06
X0.88Y-1.77
X0.88Y-2.2
X0.89Y-0.12
X0.9Y0.22
X0.9Y-0.65
X0.9Y-2.45
X0.95Y-0.12
X0.96Y0.22
X1.0Y-2.45
X1.01Y0.22
X1.01Y0.16
X1.01Y-0.04
X1.0114Y0.0114
X1.04Y-1.06
X1.05Y-1.15
X1.05Y-1.25
X1.05Y-1.35
X1.05Y-1.5
X1.05Y-1.95
X1.05Y-2.05
X1.05Y-2.15
X1.05Y-2.25
X1.05Y-2.35
X1.1Y-0.6
X1.1Y-0.65
X1.1Y-2.45
X1.13Y-0.15
X1.15Y-0.6
X1.15Y-0.65
X1.15Y-1.85
X1.2Y-1.85
X1.2Y-2.45
X1.22Y-0.13
X1.25Y-1.15
X1.25Y-1.25
X1.25Y-1.35
X1.25Y-1.5
X1.25Y-1.85
X1.25Y-1.9
X1.25Y-1.95
X1.25Y-2.0
X1.25Y-2.05
X1.25Y-2.1
X1.25Y-2.15
X1.25Y-2.2
X1.25Y-2.25
X1.26Y-1.06
X1.3Y-2.45
X1.35Y0.2
X1.35Y-0.45
X1.35Y-0.55
X1.35Y-0.65
X1.35Y-0.75
X1.35Y-0.85
X1.35Y-1.85
X1.4Y0.4
X1.4Y0.3
X1.4Y0.2
X1.4Y-0.5
X1.4Y-0.6
X1.4Y-0.7
X1.4Y-0.8
X1.4Y-1.2
X1.4Y-1.3
X1.4Y-1.4
X1.4Y-1.5
X1.4Y-1.85
X1.4Y-1.9
X1.4Y-1.95
X1.4Y-2.0
X1.4Y-2.05
X1.4Y-2.1
X1.4Y-2.15
X1.4Y-2.2
X1.4Y-2.25
X1.4Y-2.45
X1.43Y-0.13
X1.45Y0.2
X1.45Y-1.85
X1.5Y-1.85
X1.5Y-2.45
X1.54Y-0.12
X1.55Y-1.85
X1.6Y-1.85
X1.6Y-2.45
X1.6375Y0.05
X1.65Y-1.85
X1.65Y-1.9
X1.65Y-1.95
X1.65Y-2.05
X1.65Y-2.15
X1.65Y-2.25
X1.68Y-0.28
X1.7Y-1.85
X1.7Y-2.45
X1.75Y0.2
X1.78Y-0.19
X1.8Y0.4
X1.8Y0.3
X1.8Y0.2
X1.8Y-2.45
X1.82Y-0.23
X1.85Y0.2
X1.85Y-0.6
X1.85Y-0.65
X1.9Y-0.6
X1.9Y-0.65
X1.9Y-1.0
X1.9374Y-1.2674
X1.95Y-0.6
X1.95Y-0.65
X1.95Y-1.8
X2.01Y-1.8
X2.02Y-2.45
X2.05Y-1.63
X2.06Y-0.26
X2.09Y-1.6
X2.1Y-0.1
X2.1Y-1.85
X2.12Y-0.4
X2.12Y-0.48
X2.12Y-0.76
X2.12Y-0.86
X2.12Y-1.0
X2.12Y-2.45
X2.14Y-0.24
X2.2Y0.4
X2.2Y0.3
X2.2Y0.2
X2.25Y-2.2
X2.255Y-1.86
X2.26Y-0.09
X2.28Y-1.16
X2.295Y-0.225
X2.3Y0.4
X2.3Y-0.415
X2.3Y-0.49
X2.3Y-0.76
X2.3Y-0.86
X2.3Y-1.4
X2.3Y-1.475
X2.3Y-2.15
X2.305Y0.235
X2.31Y-0.095
X2.34Y-1.16
X2.35Y-1.4
X2.35Y-2.2
X2.4Y0.4
X2.4Y-1.4
X2.4Y-1.475
X2.4Y-2.15
X2.44Y-0.17
X2.5Y0.4
X2.5Y-1.85
X2.5Y-1.9
X2.5Y-1.95
X2.5Y-2.0
X2.5Y-2.15
X2.5Y-2.2
X2.5Y-2.3
X2.5Y-2.35
T2
X0.2346Y-0.7445
X0.24Y-0.03
X0.2695Y-1.1235
X0.3368Y-1.9268
X0.39Y-0.12
X0.41Y-0.9
X0.49Y-0.63
X0.5Y-0.45
X0.51Y-0.01
X0.51Y-0.7098
X0.57Y-1.49
X0.58Y0.27
X0.58Y-0.06
X0.59Y-0.29
X0.6185Y-1.11
X0.6799Y-2.15
X0.7Y-1.16
X0.71Y-0.43
X0.71Y-1.44
X0.7108Y-1.35
X0.7261Y-1.7497
X0.81Y-1.43
X0.84Y0.27
X0.86Y-1.21
X0.86Y-1.6
X0.87Y-1.47
X0.87Y-2.3
X0.88Y-1.34
X0.88Y-2.1
X0.98Y0.45
X1.0Y-1.7008
X1.02Y0.35
X1.02Y-0.2
X1.13Y-0.1
X1.28Y-2.3
X1.3Y-1.6
X1.45Y-0.67
X1.45Y-1.02
X1.7Y-1.45
X1.7Y-1.67
X1.74Y-0.98
X1.81Y-1.25
X1.8191Y-1.6109
X1.82Y-1.8
X1.83Y-2.2
X1.84Y-2.3
X1.8595Y-2.1016
X1.8792Y-1.27
X1.8792Y-2.0
X1.9381Y-1.9217
X1.94Y-1.11
X1.98Y-1.35
X1.98Y-1.98
X2.03Y-2.15
X2.67Y0.47
T3
X0.37Y0.38
X0.42Y0.12
X0.47Y0.33
X0.75Y-0.54
X0.75Y-0.89
X0.85Y-0.54
X0.85Y-0.89
X0.98Y-0.91
X0.99Y-0.55
X1.01Y0.08
X1.07Y0.27
X1.175Y0.175
X1.575Y0.175
X1.66Y-0.85
X1.67Y-0.5
X1.77Y-0.04
X1.85Y-0.37
X1.9Y-0.04
X1.95Y0.175
X1.95Y-0.37
X1.99Y-0.73
X1.99Y-0.79
T4
X0.6Y0.54
X0.7Y0.54
X0.8Y0.54
T5
X0.335Y-0.8
X0.335Y-0.85
X0.335Y-0.9
X0.3358Y-0.45
X0.3358Y-0.5
X0.3358Y-0.55
X0.6Y-0.45
X0.6Y-0.5
X0.6Y-0.55
X0.6Y-0.8
X0.6Y-0.85
X0.6Y-0.9
T6
X0.54Y0.55
X0.86Y0.76
T7
X0.0Y0.0
X0.0Y-0.1
X0.0Y-0.2
X0.0Y-0.3
X0.0Y-0.4
X0.0Y-0.5
X0.0Y-0.6
X0.0Y-0.7
X0.0Y-0.8
X0.0Y-0.9
X0.0Y-1.0
X0.0Y-1.1
X0.0Y-1.2
X0.0Y-1.3
X0.0Y-1.4
X0.0Y-1.5
X0.0Y-1.6
X0.0Y-1.7
X0.0Y-1.8
X0.0Y-1.9
X0.0Y-2.0
X0.0Y-2.1
X0.0Y-2.2
X0.0Y-2.3
X0.1Y0.0
X0.1Y-0.1
X0.1Y-0.2
X0.1Y-0.3
X0.1Y-0.4
X0.1Y-0.5
X0.1Y-0.6
X0.1Y-0.7
X0.1Y-0.8
X0.1Y-0.9
X0.1Y-1.0
X0.1Y-1.1
X0.1Y-1.2
X0.1Y-1.3
X0.1Y-1.4
X0.1Y-1.5
X0.1Y-1.6
X0.1Y-1.7
X0.1Y-1.8
X0.1Y-1.9
X0.1Y-2.0
X0.1Y-2.1
X0.1Y-2.2
X0.1Y-2.3
X0.6Y-2.6
X0.6Y-2.7
X0.7Y-2.6
X0.7Y-2.7
X0.8Y-2.6
X0.8Y-2.7
X0.9Y-2.6
X0.9Y-2.7
X1.0Y-2.6
X1.0Y-2.7
X1.1Y-2.6
X1.1Y-2.7
X1.2Y-2.6
X1.2Y-2.7
X1.3Y-2.6
X1.3Y-2.7
X1.4Y-2.6
X1.4Y-2.7
X1.5Y-2.6
X1.5Y-2.7
X1.6Y-2.6
X1.6Y-2.7
X1.7Y-2.6
X1.7Y-2.7
X1.8Y-2.6
X1.8Y-2.7
X1.9Y-2.6
X1.9Y-2.7
X2.0Y-2.6
X2.0Y-2.7
X2.1Y-2.6
X2.1Y-2.7
X2.6Y0.0
X2.6Y-0.1
X2.6Y-0.2
X2.6Y-0.3
X2.6Y-0.4
X2.6Y-0.5
X2.6Y-0.6
X2.6Y-0.7
X2.6Y-0.8
X2.6Y-0.9
X2.6Y-1.0
X2.6Y-1.1
X2.6Y-1.2
X2.6Y-1.3
X2.6Y-1.4
X2.6Y-1.5
X2.6Y-1.6
X2.6Y-1.7
X2.6Y-1.8
X2.6Y-1.9
X2.6Y-2.0
X2.6Y-2.1
X2.6Y-2.2
X2.6Y-2.3
X2.7Y0.0
X2.7Y-0.1
X2.7Y-0.2
X2.7Y-0.3
X2.7Y-0.4
X2.7Y-0.5
X2.7Y-0.6
X2.7Y-0.7
X2.7Y-0.8
X2.7Y-0.9
X2.7Y-1.0
X2.7Y-1.1
X2.7Y-1.2
X2.7Y-1.3
X2.7Y-1.4
X2.7Y-1.5
X2.7Y-1.6
X2.7Y-1.7
X2.7Y-1.8
X2.7Y-1.9
X2.7Y-2.0
X2.7Y-2.1
X2.7Y-2.2
X2.7Y-2.3
T8
X0.3Y-1.3008
X0.4Y-1.3008
X0.5Y-1.3008
X0.6Y-1.3008
X1.15Y-0.4
X1.15Y-0.5
X1.15Y-0.75
X1.15Y-0.85
X1.1508Y-1.1
X1.1508Y-1.2
X1.1508Y-1.3
X1.1508Y-1.4
X1.1508Y-1.5
X1.1508Y-1.6
X1.1508Y-1.9
X1.1508Y-2.0
X1.1508Y-2.1
X1.1508Y-2.2
X1.1508Y-2.3
X1.55Y-0.4
X1.55Y-0.5
X1.55Y-0.75
X1.55Y-0.85
X1.55Y-1.1
X1.55Y-1.2
X1.55Y-1.3
X1.55Y-1.4
X1.55Y-1.5
X1.55Y-1.6
X1.5508Y-1.9
X1.5508Y-2.0
X1.5508Y-2.1
X1.5508Y-2.2
X1.5508Y-2.3
X2.1Y-0.0008
X2.1Y-0.6508
X2.1Y-1.3
X2.1Y-1.9508
X2.2Y-0.0008
X2.2Y-0.6508
X2.2Y-1.3
X2.2Y-1.9508
X2.3Y-0.0008
X2.3Y-0.6508
X2.3Y-1.3
X2.3Y-1.9508
X2.4Y-0.0008
X2.4Y-0.6508
X2.4Y-1.3
X2.4Y-1.9508
X2.6708Y0.38
X2.6708Y0.28
X2.6708Y0.18
T9
X0.1094Y0.65
X0.3063Y0.65
X1.1Y0.65
X1.2969Y0.65
X1.4937Y0.65
X1.6906Y0.65
X1.8874Y0.65
X2.0843Y0.65
X2.2811Y0.65
X2.478Y0.65
X2.6748Y0.65
T10
X0.55Y-2.15
X1.36Y-0.03
X1.36Y-0.22
X1.54Y-0.22
X1.9Y-2.44
T0
M30
