%TF.GenerationSoftware,KiCad,Pcbnew,6.0.2+dfsg-1*%
%TF.CreationDate,2022-12-28T13:01:40+01:00*%
%TF.ProjectId,RobotMotorController,526f626f-744d-46f7-946f-72436f6e7472,rev?*%
%TF.SameCoordinates,Original*%
%TF.FileFunction,Soldermask,Top*%
%TF.FilePolarity,Negative*%
%FSLAX46Y46*%
G04 Gerber Fmt 4.6, Leading zero omitted, Abs format (unit mm)*
G04 Created by KiCad (PCBNEW 6.0.2+dfsg-1) date 2022-12-28 13:01:40*
%MOMM*%
%LPD*%
G01*
G04 APERTURE LIST*
G04 Aperture macros list*
%AMRoundRect*
0 Rectangle with rounded corners*
0 $1 Rounding radius*
0 $2 $3 $4 $5 $6 $7 $8 $9 X,Y pos of 4 corners*
0 Add a 4 corners polygon primitive as box body*
4,1,4,$2,$3,$4,$5,$6,$7,$8,$9,$2,$3,0*
0 Add four circle primitives for the rounded corners*
1,1,$1+$1,$2,$3*
1,1,$1+$1,$4,$5*
1,1,$1+$1,$6,$7*
1,1,$1+$1,$8,$9*
0 Add four rect primitives between the rounded corners*
20,1,$1+$1,$2,$3,$4,$5,0*
20,1,$1+$1,$4,$5,$6,$7,0*
20,1,$1+$1,$6,$7,$8,$9,0*
20,1,$1+$1,$8,$9,$2,$3,0*%
G04 Aperture macros list end*
%ADD10RoundRect,0.100000X-0.750000X0.525000X-0.750000X-0.525000X0.750000X-0.525000X0.750000X0.525000X0*%
%ADD11O,1.700000X1.250000*%
%ADD12RoundRect,0.100000X-1.300000X-1.300000X1.300000X-1.300000X1.300000X1.300000X-1.300000X1.300000X0*%
%ADD13C,2.800000*%
%ADD14C,3.600000*%
%ADD15RoundRect,0.350000X-0.620000X-0.845000X0.620000X-0.845000X0.620000X0.845000X-0.620000X0.845000X0*%
%ADD16O,1.940000X2.390000*%
%ADD17RoundRect,0.350000X0.845000X-0.620000X0.845000X0.620000X-0.845000X0.620000X-0.845000X-0.620000X0*%
%ADD18O,2.390000X1.940000*%
%ADD19RoundRect,0.100000X-0.650000X0.650000X-0.650000X-0.650000X0.650000X-0.650000X0.650000X0.650000X0*%
%ADD20C,1.500000*%
%ADD21RoundRect,0.100000X-1.250000X-1.250000X1.250000X-1.250000X1.250000X1.250000X-1.250000X1.250000X0*%
%ADD22RoundRect,0.100000X0.850000X0.850000X-0.850000X0.850000X-0.850000X-0.850000X0.850000X-0.850000X0*%
%ADD23O,1.900000X1.900000*%
%ADD24RoundRect,0.100000X0.850000X-0.850000X0.850000X0.850000X-0.850000X0.850000X-0.850000X-0.850000X0*%
G04 APERTURE END LIST*
D10*
%TO.C,U6*%
X15240000Y-20320000D03*
D11*
X15240000Y-21590000D03*
X15240000Y-22860000D03*
%TD*%
D12*
%TO.C,J6*%
X27940000Y16510000D03*
D13*
X32940000Y16510000D03*
X37940000Y16510000D03*
X42940000Y16510000D03*
X47940000Y16510000D03*
X52940000Y16510000D03*
X57940000Y16510000D03*
X62940000Y16510000D03*
X67940000Y16510000D03*
%TD*%
D10*
%TO.C,U5*%
X15240000Y-11430000D03*
D11*
X15240000Y-12700000D03*
X15240000Y-13970000D03*
%TD*%
D14*
%TO.C,TP4*%
X13970000Y-54610000D03*
%TD*%
D15*
%TO.C,J8*%
X53340000Y-49550000D03*
D16*
X55880000Y-49550000D03*
X58420000Y-49550000D03*
X60960000Y-49550000D03*
%TD*%
D17*
%TO.C,M2*%
X39370000Y-40640000D03*
D18*
X39370000Y-38100000D03*
X39370000Y-35560000D03*
X39370000Y-33020000D03*
X39370000Y-30480000D03*
X39370000Y-27940000D03*
%TD*%
D19*
%TO.C,U1*%
X15240000Y13716000D03*
D20*
X17780000Y13716000D03*
X20320000Y13716000D03*
%TD*%
D12*
%TO.C,J11*%
X2780000Y16510000D03*
D13*
X7780000Y16510000D03*
%TD*%
D15*
%TO.C,J5*%
X7620000Y-33040000D03*
D16*
X10160000Y-33040000D03*
X12700000Y-33040000D03*
X15240000Y-33040000D03*
%TD*%
D21*
%TO.C,TP1*%
X30480000Y-5588000D03*
%TD*%
D14*
%TO.C,TP5*%
X48260000Y-61976000D03*
%TD*%
D17*
%TO.C,P2*%
X39370000Y-21590000D03*
D18*
X39370000Y-19050000D03*
%TD*%
D17*
%TO.C,P1*%
X29210000Y-21590000D03*
D18*
X29210000Y-19050000D03*
%TD*%
D17*
%TO.C,E2*%
X39390000Y-58420000D03*
D18*
X39390000Y-55880000D03*
X39390000Y-53340000D03*
X39390000Y-50800000D03*
X39390000Y-48260000D03*
%TD*%
D15*
%TO.C,J10*%
X53340000Y-16530000D03*
D16*
X55880000Y-16530000D03*
X58420000Y-16530000D03*
X60960000Y-16530000D03*
%TD*%
D14*
%TO.C,TP8*%
X34544000Y-5588000D03*
%TD*%
%TO.C,TP6*%
X34544000Y-762000D03*
%TD*%
D15*
%TO.C,J7*%
X53340000Y-33020000D03*
D16*
X55880000Y-33020000D03*
X58420000Y-33020000D03*
X60960000Y-33020000D03*
%TD*%
D21*
%TO.C,TP2*%
X38862000Y-1016000D03*
%TD*%
D17*
%TO.C,M1*%
X29230000Y-40640000D03*
D18*
X29230000Y-38100000D03*
X29230000Y-35560000D03*
X29230000Y-33020000D03*
X29230000Y-30480000D03*
X29230000Y-27940000D03*
%TD*%
D10*
%TO.C,U3*%
X8530000Y-11430000D03*
D11*
X8530000Y-12700000D03*
X8530000Y-13970000D03*
%TD*%
D10*
%TO.C,U4*%
X8509000Y-20320000D03*
D11*
X8509000Y-21590000D03*
X8509000Y-22860000D03*
%TD*%
D17*
%TO.C,P3*%
X29210000Y-12700000D03*
D18*
X29210000Y-10160000D03*
%TD*%
D14*
%TO.C,TP7*%
X39116000Y-5588000D03*
%TD*%
D17*
%TO.C,J4*%
X67838000Y4572000D03*
D18*
X67838000Y7112000D03*
X67838000Y9652000D03*
%TD*%
D21*
%TO.C,TP3*%
X30480000Y-762000D03*
%TD*%
D17*
%TO.C,E1*%
X29230000Y-58420000D03*
D18*
X29230000Y-55880000D03*
X29230000Y-53340000D03*
X29230000Y-50800000D03*
X29230000Y-48260000D03*
%TD*%
D17*
%TO.C,P4*%
X39370000Y-12700000D03*
D18*
X39370000Y-10160000D03*
%TD*%
D15*
%TO.C,J9*%
X53340000Y-20000D03*
D16*
X55880000Y-20000D03*
X58420000Y-20000D03*
X60960000Y-20000D03*
%TD*%
D22*
%TO.C,J3*%
X66040000Y0D03*
D23*
X68580000Y0D03*
X66040000Y-2540000D03*
X68580000Y-2540000D03*
X66040000Y-5080000D03*
X68580000Y-5080000D03*
X66040000Y-7620000D03*
X68580000Y-7620000D03*
X66040000Y-10160000D03*
X68580000Y-10160000D03*
X66040000Y-12700000D03*
X68580000Y-12700000D03*
X66040000Y-15240000D03*
X68580000Y-15240000D03*
X66040000Y-17780000D03*
X68580000Y-17780000D03*
X66040000Y-20320000D03*
X68580000Y-20320000D03*
X66040000Y-22860000D03*
X68580000Y-22860000D03*
X66040000Y-25400000D03*
X68580000Y-25400000D03*
X66040000Y-27940000D03*
X68580000Y-27940000D03*
X66040000Y-30480000D03*
X68580000Y-30480000D03*
X66040000Y-33020000D03*
X68580000Y-33020000D03*
X66040000Y-35560000D03*
X68580000Y-35560000D03*
X66040000Y-38100000D03*
X68580000Y-38100000D03*
X66040000Y-40640000D03*
X68580000Y-40640000D03*
X66040000Y-43180000D03*
X68580000Y-43180000D03*
X66040000Y-45720000D03*
X68580000Y-45720000D03*
X66040000Y-48260000D03*
X68580000Y-48260000D03*
X66040000Y-50800000D03*
X68580000Y-50800000D03*
X66040000Y-53340000D03*
X68580000Y-53340000D03*
X66040000Y-55880000D03*
X68580000Y-55880000D03*
X66040000Y-58420000D03*
X68580000Y-58420000D03*
%TD*%
D24*
%TO.C,J1*%
X53340000Y-66040000D03*
D23*
X53340000Y-68580000D03*
X50800000Y-66040000D03*
X50800000Y-68580000D03*
X48260000Y-66040000D03*
X48260000Y-68580000D03*
X45720000Y-66040000D03*
X45720000Y-68580000D03*
X43180000Y-66040000D03*
X43180000Y-68580000D03*
X40640000Y-66040000D03*
X40640000Y-68580000D03*
X38100000Y-66040000D03*
X38100000Y-68580000D03*
X35560000Y-66040000D03*
X35560000Y-68580000D03*
X33020000Y-66040000D03*
X33020000Y-68580000D03*
X30480000Y-66040000D03*
X30480000Y-68580000D03*
X27940000Y-66040000D03*
X27940000Y-68580000D03*
X25400000Y-66040000D03*
X25400000Y-68580000D03*
X22860000Y-66040000D03*
X22860000Y-68580000D03*
X20320000Y-66040000D03*
X20320000Y-68580000D03*
X17780000Y-66040000D03*
X17780000Y-68580000D03*
X15240000Y-66040000D03*
X15240000Y-68580000D03*
%TD*%
D22*
%TO.C,J2*%
X0Y0D03*
D23*
X2540000Y0D03*
X0Y-2540000D03*
X2540000Y-2540000D03*
X0Y-5080000D03*
X2540000Y-5080000D03*
X0Y-7620000D03*
X2540000Y-7620000D03*
X0Y-10160000D03*
X2540000Y-10160000D03*
X0Y-12700000D03*
X2540000Y-12700000D03*
X0Y-15240000D03*
X2540000Y-15240000D03*
X0Y-17780000D03*
X2540000Y-17780000D03*
X0Y-20320000D03*
X2540000Y-20320000D03*
X0Y-22860000D03*
X2540000Y-22860000D03*
X0Y-25400000D03*
X2540000Y-25400000D03*
X0Y-27940000D03*
X2540000Y-27940000D03*
X0Y-30480000D03*
X2540000Y-30480000D03*
X0Y-33020000D03*
X2540000Y-33020000D03*
X0Y-35560000D03*
X2540000Y-35560000D03*
X0Y-38100000D03*
X2540000Y-38100000D03*
X0Y-40640000D03*
X2540000Y-40640000D03*
X0Y-43180000D03*
X2540000Y-43180000D03*
X0Y-45720000D03*
X2540000Y-45720000D03*
X0Y-48260000D03*
X2540000Y-48260000D03*
X0Y-50800000D03*
X2540000Y-50800000D03*
X0Y-53340000D03*
X2540000Y-53340000D03*
X0Y-55880000D03*
X2540000Y-55880000D03*
X0Y-58420000D03*
X2540000Y-58420000D03*
%TD*%
M02*
