%TF.GenerationSoftware,KiCad,Pcbnew,6.0.2+dfsg-1*%
%TF.CreationDate,2023-01-07T19:56:01+01:00*%
%TF.ProjectId,hBridge3620,68427269-6467-4653-9336-32302e6b6963,1.0*%
%TF.SameCoordinates,Original*%
%TF.FileFunction,Copper,L1,Top*%
%TF.FilePolarity,Positive*%
%FSLAX46Y46*%
G04 Gerber Fmt 4.6, Leading zero omitted, Abs format (unit mm)*
G04 Created by KiCad (PCBNEW 6.0.2+dfsg-1) date 2023-01-07 19:56:01*
%MOMM*%
%LPD*%
G01*
G04 APERTURE LIST*
G04 Aperture macros list*
%AMRoundRect*
0 Rectangle with rounded corners*
0 $1 Rounding radius*
0 $2 $3 $4 $5 $6 $7 $8 $9 X,Y pos of 4 corners*
0 Add a 4 corners polygon primitive as box body*
4,1,4,$2,$3,$4,$5,$6,$7,$8,$9,$2,$3,0*
0 Add four circle primitives for the rounded corners*
1,1,$1+$1,$2,$3*
1,1,$1+$1,$4,$5*
1,1,$1+$1,$6,$7*
1,1,$1+$1,$8,$9*
0 Add four rect primitives between the rounded corners*
20,1,$1+$1,$2,$3,$4,$5,0*
20,1,$1+$1,$4,$5,$6,$7,0*
20,1,$1+$1,$6,$7,$8,$9,0*
20,1,$1+$1,$8,$9,$2,$3,0*%
G04 Aperture macros list end*
%TA.AperFunction,ComponentPad*%
%ADD10RoundRect,0.249999X-1.950001X-1.950001X1.950001X-1.950001X1.950001X1.950001X-1.950001X1.950001X0*%
%TD*%
%TA.AperFunction,ComponentPad*%
%ADD11R,2.400000X2.400000*%
%TD*%
%TA.AperFunction,ComponentPad*%
%ADD12C,2.400000*%
%TD*%
%TA.AperFunction,ComponentPad*%
%ADD13RoundRect,0.250000X0.845000X-0.620000X0.845000X0.620000X-0.845000X0.620000X-0.845000X-0.620000X0*%
%TD*%
%TA.AperFunction,ComponentPad*%
%ADD14O,2.190000X1.740000*%
%TD*%
%TA.AperFunction,SMDPad,CuDef*%
%ADD15R,2.500000X2.500000*%
%TD*%
%TA.AperFunction,ComponentPad*%
%ADD16R,2.000000X2.000000*%
%TD*%
%TA.AperFunction,ComponentPad*%
%ADD17C,2.000000*%
%TD*%
%TA.AperFunction,ComponentPad*%
%ADD18C,0.800000*%
%TD*%
%TA.AperFunction,ComponentPad*%
%ADD19C,6.400000*%
%TD*%
%TA.AperFunction,ComponentPad*%
%ADD20C,0.500000*%
%TD*%
%TA.AperFunction,SMDPad,CuDef*%
%ADD21R,1.800000X2.600000*%
%TD*%
%TA.AperFunction,ViaPad*%
%ADD22C,1.000000*%
%TD*%
%TA.AperFunction,ViaPad*%
%ADD23C,0.800000*%
%TD*%
%TA.AperFunction,Conductor*%
%ADD24C,0.600000*%
%TD*%
%TA.AperFunction,Conductor*%
%ADD25C,0.300000*%
%TD*%
%TA.AperFunction,Conductor*%
%ADD26C,0.250000*%
%TD*%
G04 APERTURE END LIST*
D10*
%TO.P,M2,1,Pin_1*%
%TO.N,GND*%
X17715000Y7075000D03*
%TD*%
D11*
%TO.P,C5,1*%
%TO.N,VMOT*%
X6566041Y24765000D03*
D12*
%TO.P,C5,2*%
%TO.N,GND*%
X11566041Y24765000D03*
%TD*%
D13*
%TO.P,M3,1,P1*%
%TO.N,Net-(M3-Pad1)*%
X-19095000Y-18288000D03*
D14*
%TO.P,M3,2,P2*%
%TO.N,GND*%
X-19095000Y-15748000D03*
%TO.P,M3,3,P3*%
%TO.N,AUX*%
X-19095000Y-13208000D03*
%TO.P,M3,4,P4*%
%TO.N,EN*%
X-19095000Y-10668000D03*
%TO.P,M3,5,P5*%
%TO.N,PWMB*%
X-19095000Y-8128000D03*
%TO.P,M3,6,P6*%
%TO.N,PWMA*%
X-19095000Y-5588000D03*
%TD*%
D15*
%TO.P,TP3,1,TP*%
%TO.N,+3V3*%
X-11176000Y16002000D03*
%TD*%
%TO.P,TP1,1,TP*%
%TO.N,+12V*%
X-11073500Y24827000D03*
%TD*%
D10*
%TO.P,M1,1,Pin_1*%
%TO.N,VMOT*%
X17715000Y18280000D03*
%TD*%
D13*
%TO.P,P1,1,P1*%
%TO.N,GND*%
X-19115000Y7112000D03*
D14*
%TO.P,P1,2,P2*%
%TO.N,Net-(C18-Pad1)*%
X-19115000Y9652000D03*
%TD*%
D16*
%TO.P,C2,1*%
%TO.N,/CSP*%
X-5669677Y21162000D03*
D17*
%TO.P,C2,2*%
%TO.N,GND*%
X-669677Y21162000D03*
%TD*%
D18*
%TO.P,H1,1,1*%
%TO.N,GND*%
X21400000Y27000000D03*
X19000000Y29400000D03*
X20697056Y28697056D03*
D19*
X19000000Y27000000D03*
D18*
X17302944Y25302944D03*
X20697056Y25302944D03*
X19000000Y24600000D03*
X17302944Y28697056D03*
X16600000Y27000000D03*
%TD*%
%TO.P,H2,1,1*%
%TO.N,GND*%
X16600000Y-27000000D03*
X20697056Y-28697056D03*
X19000000Y-24600000D03*
X21400000Y-27000000D03*
X20697056Y-25302944D03*
X17302944Y-28697056D03*
X17302944Y-25302944D03*
D19*
X19000000Y-27000000D03*
D18*
X19000000Y-29400000D03*
%TD*%
D15*
%TO.P,TP2,1,TP*%
%TO.N,GND*%
X-11073500Y20447000D03*
%TD*%
D18*
%TO.P,H4,1,1*%
%TO.N,GND*%
X-21400000Y-27000000D03*
X-17302944Y-25302944D03*
D19*
X-19000000Y-27000000D03*
D18*
X-20697056Y-25302944D03*
X-19000000Y-24600000D03*
X-16600000Y-27000000D03*
X-19000000Y-29400000D03*
X-20697056Y-28697056D03*
X-17302944Y-28697056D03*
%TD*%
%TO.P,H3,1,1*%
%TO.N,GND*%
X-19000000Y24600000D03*
X-16600000Y27000000D03*
X-19000000Y29400000D03*
X-20697056Y28697056D03*
X-17302944Y28697056D03*
X-20697056Y25302944D03*
X-17302944Y25302944D03*
X-21400000Y27000000D03*
D19*
X-19000000Y27000000D03*
%TD*%
D10*
%TO.P,OUTA1,1,Pin_1*%
%TO.N,/OUTA*%
X17715000Y-5625000D03*
%TD*%
D13*
%TO.P,P2,1,P1*%
%TO.N,GND*%
X-19050000Y-508000D03*
D14*
%TO.P,P2,2,P2*%
%TO.N,/CURRENT*%
X-19050000Y2032000D03*
%TD*%
D10*
%TO.P,OUTB1,1,Pin_1*%
%TO.N,/OUTB*%
X17715000Y-18325000D03*
%TD*%
D20*
%TO.P,U5,11,PAD*%
%TO.N,GND*%
X-5242000Y-13982000D03*
D21*
X-4792000Y-14732000D03*
D20*
X-5242000Y-15482000D03*
X-4342000Y-13982000D03*
X-4342000Y-15482000D03*
%TD*%
%TO.P,U3,11,PAD*%
%TO.N,GND*%
X-4225499Y-4268501D03*
X-5125499Y-4268501D03*
D21*
X-4675499Y-3518501D03*
D20*
X-4225499Y-2768501D03*
X-5125499Y-2768501D03*
%TD*%
D22*
%TO.N,GND*%
X-14732000Y24638000D03*
D23*
X22860000Y8255000D03*
X1270000Y-29845000D03*
D22*
X-762000Y5842000D03*
D23*
X17780000Y11430000D03*
X22860000Y4445000D03*
X22860000Y1905000D03*
X12700000Y-29845000D03*
X-5334000Y-17018000D03*
X-23124500Y6351043D03*
X-23124500Y-16510000D03*
X-14605000Y-29845000D03*
X-6985000Y30480000D03*
X22860000Y-635000D03*
D22*
X3810000Y10160000D03*
D23*
X22860000Y-15875000D03*
X22860000Y14605000D03*
X-8255000Y30480000D03*
X-9525000Y-8890000D03*
X12065000Y29845000D03*
X21590000Y-10160000D03*
X17780000Y22225000D03*
X22860000Y3175000D03*
X-2540000Y-8890000D03*
X8890000Y-27305000D03*
X-12700000Y-19050000D03*
X1270000Y-8890000D03*
X-635000Y-20320000D03*
D22*
X-15875000Y-8255000D03*
D23*
X-23124500Y-1270000D03*
X22860000Y-5715000D03*
X11430000Y-10160000D03*
X-9525000Y-18034000D03*
X2540000Y-28575000D03*
X-20955000Y-22225000D03*
X22860000Y-14605000D03*
X-9525000Y-15240000D03*
X22860000Y-10795000D03*
X-23124500Y1271043D03*
D22*
X-9144000Y7112000D03*
D23*
X-1270000Y-8890000D03*
X10160000Y-28575000D03*
X7620000Y-28575000D03*
X6985000Y29845000D03*
D22*
X-18034000Y18796000D03*
D23*
X13970000Y-27305000D03*
X12700000Y-28575000D03*
X-13970000Y0D03*
X21590000Y7620000D03*
X22860000Y-6985000D03*
X22860000Y6985000D03*
X1486500Y-28681997D03*
D22*
X-14159500Y-9525000D03*
D23*
X0Y-8890000D03*
X22860000Y-19685000D03*
X2540000Y-26035000D03*
X17780000Y-11430000D03*
X-13335000Y29845000D03*
X-5715000Y30480000D03*
X22860000Y-13335000D03*
X-9525000Y-7620000D03*
D22*
X-9144000Y5080000D03*
D23*
X22860000Y-18415000D03*
X22860000Y-9525000D03*
X21590000Y-5080000D03*
X16510000Y3810000D03*
X-4445000Y30480000D03*
X2794000Y22606000D03*
X11430000Y-27305000D03*
X22860000Y17145000D03*
X22860000Y5715000D03*
X-23124500Y-13970000D03*
D22*
X-19558000Y13716000D03*
D23*
X10795000Y28575000D03*
X19050000Y3810000D03*
X13970000Y-10160000D03*
X2540000Y-29845000D03*
X21590000Y6350000D03*
X22860000Y12065000D03*
X20320000Y2540000D03*
X-10795000Y30480000D03*
D22*
X-14159500Y-12065000D03*
D23*
X21590000Y-19050000D03*
X-23124500Y-6350000D03*
X5715000Y28575000D03*
D22*
X-6096000Y29464000D03*
X-6096000Y6832500D03*
D23*
X-1905000Y-19431000D03*
X-8255000Y-7620000D03*
X13970000Y-28575000D03*
X-23124500Y-11430000D03*
X20320000Y22225000D03*
X7620000Y-29845000D03*
X-2032000Y-17018000D03*
X2540000Y-27305000D03*
X-17145000Y4445000D03*
X21590000Y-3810000D03*
X15240000Y-10160000D03*
X15240000Y22225000D03*
X3810000Y-28575000D03*
D22*
X-16383000Y20955000D03*
D23*
X17780000Y3810000D03*
X19050000Y22225000D03*
X15240000Y-11430000D03*
X11430000Y-8890000D03*
X9525000Y28575000D03*
X-23124500Y3811043D03*
X21590000Y1270000D03*
X-14605000Y29845000D03*
X21590000Y0D03*
X22860000Y-12065000D03*
X19050000Y2540000D03*
X8255000Y28575000D03*
X-7620000Y-1270000D03*
X13970000Y-29845000D03*
X22860000Y-4445000D03*
X-8890000Y-1270000D03*
X12700000Y-11430000D03*
X5080000Y-28575000D03*
X22860000Y13335000D03*
X11430000Y-29845000D03*
X-3048000Y-17018000D03*
X-22860000Y-21590000D03*
X5715000Y29845000D03*
X21590000Y5080000D03*
X6350000Y-29845000D03*
X6985000Y28575000D03*
X8890000Y-28575000D03*
X17780000Y-10160000D03*
X11430000Y-28575000D03*
X21590000Y-11430000D03*
X-13335000Y28575000D03*
X-14605000Y-28575000D03*
D22*
X-8128000Y11938000D03*
D23*
X-19050000Y4445000D03*
X22860000Y-22225000D03*
X2794000Y20066000D03*
X21590000Y-12700000D03*
X22860000Y-17145000D03*
X21590000Y-15240000D03*
X21590000Y-6350000D03*
X-20690500Y4445000D03*
X21590000Y-16510000D03*
X-15240000Y0D03*
X16510000Y22225000D03*
D22*
X2540000Y28194000D03*
D23*
X22860000Y-23495000D03*
X12065000Y28575000D03*
X17780000Y10160000D03*
X-14605000Y-26035000D03*
X8890000Y-29845000D03*
X-6350000Y-1270000D03*
X-20193000Y-2540000D03*
D22*
X-3302000Y23368000D03*
D23*
X21590000Y-20320000D03*
D22*
X1016000Y5842000D03*
D23*
X21590000Y3810000D03*
X1019518Y1690184D03*
X-9525000Y-12700000D03*
X5080000Y-29845000D03*
X21590000Y-17780000D03*
X-9525000Y-13970000D03*
X11430000Y-11430000D03*
X22860000Y15875000D03*
X16510000Y-10160000D03*
X21590000Y-22860000D03*
D22*
X-20828000Y11938000D03*
D23*
X8255000Y29845000D03*
X-14605000Y-17145000D03*
X-4826000Y-5842000D03*
X20320000Y-11430000D03*
X9525000Y29845000D03*
X-16510000Y0D03*
D22*
X-11176000Y28448000D03*
D23*
X-12065000Y30480000D03*
X-22860000Y-19050000D03*
X3810000Y-29845000D03*
X-14605000Y-27305000D03*
X21590000Y2540000D03*
D22*
X-19050000Y20828000D03*
D23*
X20320000Y-10160000D03*
D22*
X-1016000Y28448000D03*
D23*
X20320000Y3810000D03*
X22860000Y22225000D03*
X22860000Y20955000D03*
X-10160000Y-1270000D03*
X5080000Y-27305000D03*
X-6985000Y-10160000D03*
X-4191000Y-17018000D03*
X-19304000Y-2921000D03*
X6350000Y-27305000D03*
X12700000Y-10160000D03*
X-2540000Y-10160000D03*
X-9525000Y-16510000D03*
X21590000Y-8890000D03*
X21590000Y-21590000D03*
X22860000Y-20955000D03*
X-6985000Y-8890000D03*
D22*
X-4826000Y-10160000D03*
D23*
X22860000Y-3175000D03*
X-15875000Y-17145000D03*
X22860000Y-8255000D03*
X-13335000Y-1270000D03*
X10795000Y29845000D03*
X19050000Y-11430000D03*
X-23124500Y-3808525D03*
X-16510000Y5715000D03*
X-13335000Y-17780000D03*
X16510000Y-11430000D03*
X3810000Y-27305000D03*
X-1905000Y-5842000D03*
X21590000Y-2540000D03*
X21590000Y22225000D03*
X21590000Y-7620000D03*
X6350000Y-28575000D03*
X2794000Y21336000D03*
D22*
X-12954000Y26924000D03*
D23*
X22860000Y18415000D03*
X22860000Y10795000D03*
X-14605000Y-24765000D03*
X635000Y-20320000D03*
D22*
X-14986000Y-18923000D03*
D23*
X10160000Y-27305000D03*
X12700000Y-27305000D03*
X18415000Y10795000D03*
X21590000Y-13970000D03*
X22860000Y19685000D03*
X19050000Y-10160000D03*
X21590000Y-1270000D03*
X-23124500Y8891043D03*
X-9525000Y-6350000D03*
X22860000Y-1905000D03*
X22860000Y635000D03*
X-23124500Y-8890000D03*
X10160000Y-29845000D03*
X-8255000Y-8890000D03*
X22860000Y9525000D03*
X-16510000Y6985000D03*
X-14605000Y28575000D03*
X7620000Y-27305000D03*
X21590000Y8890000D03*
X13970000Y-11430000D03*
X-9525000Y30480000D03*
X17145000Y10795000D03*
D22*
%TO.N,+12V*%
X-12954000Y24892000D03*
D23*
X-15494000Y-22733000D03*
X-3913499Y-8890000D03*
X-2643499Y-470501D03*
X-11938000Y13462000D03*
%TO.N,/VMOTOUT*%
X3175000Y635000D03*
X11430000Y2540000D03*
X10160000Y-13970000D03*
X3835011Y-15237803D03*
X7555000Y-15320000D03*
X9525000Y-12065000D03*
X5080000Y-16510000D03*
X12700000Y6350000D03*
X7620000Y6350000D03*
X5080000Y3810000D03*
X11430000Y6350000D03*
X10160000Y-16510000D03*
X7555000Y2460000D03*
X8890000Y6350000D03*
X10160000Y3810000D03*
X3835011Y-16510000D03*
X3810000Y1270000D03*
X4445000Y-12065000D03*
X5080000Y1270000D03*
X8237240Y5659383D03*
X3175000Y1905000D03*
X6858000Y-16967200D03*
X12700000Y5080000D03*
X10160000Y2540000D03*
X3810000Y2540000D03*
X5715000Y-12065000D03*
X10160000Y-15240000D03*
X11430000Y1270000D03*
X5080000Y-13970000D03*
X6985000Y-12065000D03*
X8229600Y-16967200D03*
X3810000Y-13970000D03*
X3810000Y-12903200D03*
X10160000Y6350000D03*
X3175000Y3175000D03*
X3175000Y-12065000D03*
X5080000Y-15240000D03*
X5080000Y2540000D03*
X6350000Y6350000D03*
X3810000Y3810000D03*
X9522273Y5659383D03*
X8255000Y-12065000D03*
X11430000Y3810000D03*
X10160000Y1270000D03*
%TO.N,Net-(C9-Pad2)*%
X-7874000Y18034000D03*
X-3302000Y18034000D03*
D22*
%TO.N,+3V3*%
X-20828000Y16510000D03*
X-12700000Y16002000D03*
X-15029024Y2123500D03*
X-8636000Y3302000D03*
X-8636000Y1270000D03*
D23*
%TO.N,/HOA*%
X-1373499Y-1486501D03*
X-2135499Y-4026501D03*
%TO.N,PWMA*%
X-10541000Y-3175000D03*
X-17907000Y-2540000D03*
X-7342499Y-3264501D03*
%TO.N,PWMB*%
X-7112000Y-14986000D03*
X508000Y-24511000D03*
%TO.N,EN*%
X-7342499Y-5042501D03*
X-508000Y-29210000D03*
X-13970000Y-4445000D03*
X-7112000Y-16764000D03*
X-554424Y-25469636D03*
X2032002Y-21590000D03*
%TO.N,/HOB*%
X-1778000Y-15240000D03*
X-1585980Y-12700000D03*
%TO.N,AUX*%
X-13335000Y-13335000D03*
X-508000Y-27940000D03*
%TD*%
D24*
%TO.N,+12V*%
X-22225000Y22860000D02*
X-13335000Y22860000D01*
X-8128000Y254000D02*
X-9144000Y254000D01*
X-22860000Y10541000D02*
X-22860000Y22225000D01*
X-18415000Y-22733000D02*
X-21590000Y-19558000D01*
X-11938000Y508000D02*
X-11938000Y13462000D01*
X-12954000Y23241000D02*
X-12954000Y24892000D01*
X-4384000Y254000D02*
X-9144000Y254000D01*
X-11073500Y24827000D02*
X-12889000Y24827000D01*
X-3275988Y-854012D02*
X-4384000Y254000D01*
X-21590000Y-19558000D02*
X-21590000Y9271000D01*
X-12889000Y24827000D02*
X-12954000Y24892000D01*
X-3275988Y-1102990D02*
X-2643499Y-470501D01*
X-3275988Y-1102990D02*
X-3275988Y-854012D01*
X-15494000Y-22733000D02*
X-18415000Y-22733000D01*
X-21590000Y9271000D02*
X-22860000Y10541000D01*
X-22860000Y22225000D02*
X-22225000Y22860000D01*
X-3275988Y-8252489D02*
X-3913499Y-8890000D01*
X-9144000Y254000D02*
X-11684000Y254000D01*
X-3275988Y-1102990D02*
X-3275988Y-8252489D01*
X-13335000Y22860000D02*
X-12954000Y23241000D01*
X-11684000Y254000D02*
X-11938000Y508000D01*
D25*
%TO.N,Net-(C9-Pad2)*%
X-7874000Y18034000D02*
X-3302000Y18034000D01*
D24*
%TO.N,+3V3*%
X-16256000Y16510000D02*
X-20828000Y16510000D01*
X-15029024Y15283024D02*
X-16256000Y16510000D01*
X-11176000Y16002000D02*
X-12700000Y16002000D01*
X-15029024Y2123500D02*
X-15029024Y15283024D01*
X-8636000Y1270000D02*
X-8636000Y3302000D01*
D26*
%TO.N,/HOA*%
X-2135499Y-2248501D02*
X-1373499Y-1486501D01*
X-2135499Y-4026501D02*
X-2135499Y-2248501D01*
%TO.N,PWMA*%
X-17234002Y-2540000D02*
X-16509501Y-3264501D01*
X-18870000Y-5625000D02*
X-19095000Y-5625000D01*
X-10451499Y-3264501D02*
X-10541000Y-3175000D01*
X-10630501Y-3264501D02*
X-10541000Y-3175000D01*
X-16509501Y-3264501D02*
X-10630501Y-3264501D01*
X-17907000Y-2540000D02*
X-17234002Y-2540000D01*
X-7342499Y-3264501D02*
X-10451499Y-3264501D01*
X-16509501Y-3264501D02*
X-18870000Y-5625000D01*
%TO.N,PWMB*%
X-7836501Y-19024703D02*
X-7836501Y-15710501D01*
X-19095000Y-8165000D02*
X-16592000Y-10668000D01*
X508000Y-24511000D02*
X-2350204Y-24511000D01*
X-8763000Y-10668000D02*
X-7112000Y-12319000D01*
X-16592000Y-10668000D02*
X-8763000Y-10668000D01*
X-2350204Y-24511000D02*
X-7836501Y-19024703D01*
X-7836501Y-15710501D02*
X-7112000Y-14986000D01*
X-7112000Y-12319000D02*
X-7112000Y-14986000D01*
%TO.N,EN*%
X2032000Y-23368000D02*
X2032000Y-24892000D01*
X762000Y-25527000D02*
X704636Y-25469636D01*
X2032000Y-23368000D02*
X-2857500Y-23368000D01*
X1454364Y-25469636D02*
X-554424Y-25469636D01*
X-20066000Y-6858000D02*
X-16383000Y-6858000D01*
X-20701000Y-7493000D02*
X-20066000Y-6858000D01*
X-13970000Y-4445000D02*
X-7940000Y-4445000D01*
X-16383000Y-6858000D02*
X-13970000Y-4445000D01*
X-508000Y-29210000D02*
X381000Y-29210000D01*
X704636Y-25469636D02*
X-554424Y-25469636D01*
X2032000Y-21590000D02*
X2032000Y-23368000D01*
X2032000Y-21590000D02*
X2032002Y-21590000D01*
X-7112000Y-19113500D02*
X-7112000Y-16764000D01*
X-19095000Y-10705000D02*
X-20701000Y-9099000D01*
X2032000Y-24892000D02*
X1454364Y-25469636D01*
X-2857500Y-23368000D02*
X-7112000Y-19113500D01*
X-7342499Y-5042501D02*
X-6016511Y-6368489D01*
X-6016511Y-6368489D02*
X-6016511Y-15668511D01*
X-6016511Y-15668511D02*
X-7112000Y-16764000D01*
X-7940000Y-4445000D02*
X-7342499Y-5042501D01*
X381000Y-29210000D02*
X762000Y-28829000D01*
X-20701000Y-9099000D02*
X-20701000Y-7493000D01*
X762000Y-28829000D02*
X762000Y-25527000D01*
%TO.N,/HOB*%
X-1585980Y-12700000D02*
X-1585980Y-15047980D01*
X-1585980Y-15047980D02*
X-1778000Y-15240000D01*
%TO.N,AUX*%
X-13335000Y-14859000D02*
X-13335000Y-13335000D01*
X-508000Y-27940000D02*
X-508000Y-27051000D01*
X-10160000Y-19685000D02*
X-11493500Y-18351500D01*
X-11493500Y-16700500D02*
X-13335000Y-14859000D01*
X-508000Y-27051000D02*
X-7874000Y-19685000D01*
X-13425000Y-13245000D02*
X-13335000Y-13335000D01*
X-7874000Y-19685000D02*
X-10160000Y-19685000D01*
X-11493500Y-18351500D02*
X-11493500Y-16700500D01*
X-19095000Y-13245000D02*
X-13425000Y-13245000D01*
%TD*%
%TA.AperFunction,Conductor*%
%TO.N,/VMOTOUT*%
G36*
X14674121Y6837998D02*
G01*
X14720614Y6784342D01*
X14732000Y6732000D01*
X14732000Y-128000D01*
X14711998Y-196121D01*
X14658342Y-242614D01*
X14606000Y-254000D01*
X10414000Y-254000D01*
X10414000Y-17654000D01*
X10393998Y-17722121D01*
X10340342Y-17768614D01*
X10288000Y-17780000D01*
X2666000Y-17780000D01*
X2597879Y-17759998D01*
X2551386Y-17706342D01*
X2540000Y-17654000D01*
X2540000Y-616126D01*
X2560002Y-548005D01*
X2613658Y-501512D01*
X2630636Y-495191D01*
X2635165Y-493867D01*
X2644045Y-492595D01*
X2652210Y-488883D01*
X2652212Y-488882D01*
X2696666Y-468670D01*
X2776510Y-432367D01*
X2809155Y-404238D01*
X2879949Y-343239D01*
X2879951Y-343237D01*
X2886747Y-337381D01*
X2965893Y-215273D01*
X3007587Y-75859D01*
X3008476Y69652D01*
X2968488Y209565D01*
X2890840Y332631D01*
X2781772Y428956D01*
X2650052Y490799D01*
X2641184Y492180D01*
X2632598Y494805D01*
X2633434Y497541D01*
X2582387Y521575D01*
X2544700Y581743D01*
X2540000Y615834D01*
X2540000Y6732000D01*
X2560002Y6800121D01*
X2613658Y6846614D01*
X2666000Y6858000D01*
X14606000Y6858000D01*
X14674121Y6837998D01*
G37*
%TD.AperFunction*%
%TD*%
%TA.AperFunction,Conductor*%
%TO.N,GND*%
G36*
X23642121Y31679998D02*
G01*
X23688614Y31626342D01*
X23700000Y31574000D01*
X23700000Y-31574000D01*
X23679998Y-31642121D01*
X23626342Y-31688614D01*
X23574000Y-31700000D01*
X-23574000Y-31700000D01*
X-23642121Y-31679998D01*
X-23688614Y-31626342D01*
X-23700000Y-31574000D01*
X-23700000Y-29686428D01*
X-21397649Y-29686428D01*
X-21390191Y-29696797D01*
X-21121507Y-29914372D01*
X-21116156Y-29918260D01*
X-20805239Y-30120172D01*
X-20799529Y-30123469D01*
X-20469201Y-30291779D01*
X-20463176Y-30294461D01*
X-20117078Y-30427316D01*
X-20110796Y-30429357D01*
X-19752698Y-30525308D01*
X-19746248Y-30526679D01*
X-19380067Y-30584678D01*
X-19373529Y-30585364D01*
X-19003301Y-30604767D01*
X-18996699Y-30604767D01*
X-18626471Y-30585364D01*
X-18619933Y-30584678D01*
X-18253752Y-30526679D01*
X-18247302Y-30525308D01*
X-17889204Y-30429357D01*
X-17882922Y-30427316D01*
X-17536824Y-30294461D01*
X-17530799Y-30291779D01*
X-17200471Y-30123469D01*
X-17194761Y-30120172D01*
X-16883844Y-29918260D01*
X-16878493Y-29914372D01*
X-16610760Y-29697566D01*
X-16602292Y-29685308D01*
X-16608625Y-29674218D01*
X-16716873Y-29565970D01*
X-11995500Y-29565970D01*
X-11995235Y-29568850D01*
X-11995235Y-29568858D01*
X-11986420Y-29664783D01*
X-11980454Y-29729711D01*
X-11978885Y-29735273D01*
X-11978885Y-29735275D01*
X-11964807Y-29785191D01*
X-11920565Y-29942064D01*
X-11822980Y-30139947D01*
X-11690967Y-30316733D01*
X-11528949Y-30466501D01*
X-11342350Y-30584236D01*
X-11137421Y-30665994D01*
X-11131761Y-30667120D01*
X-11131757Y-30667121D01*
X-10926691Y-30707911D01*
X-10926688Y-30707911D01*
X-10921024Y-30709038D01*
X-10915249Y-30709114D01*
X-10915245Y-30709114D01*
X-10804504Y-30710563D01*
X-10700406Y-30711926D01*
X-10694708Y-30710947D01*
X-10488654Y-30675541D01*
X-10488653Y-30675541D01*
X-10482957Y-30674562D01*
X-10275957Y-30598196D01*
X-10155748Y-30526679D01*
X-10091306Y-30488340D01*
X-10091305Y-30488339D01*
X-10086341Y-30485386D01*
X-9920457Y-30339910D01*
X-9783863Y-30166640D01*
X-9681131Y-29971380D01*
X-9615703Y-29760667D01*
X-9605471Y-29674218D01*
X-9594936Y-29585211D01*
X-9594936Y-29585205D01*
X-9594500Y-29581524D01*
X-9594500Y-28854030D01*
X-9609546Y-28690289D01*
X-9669435Y-28477936D01*
X-9767020Y-28280053D01*
X-9781728Y-28260356D01*
X-9895580Y-28107891D01*
X-9895580Y-28107890D01*
X-9899033Y-28103267D01*
X-10061051Y-27953499D01*
X-10247650Y-27835764D01*
X-10452579Y-27754006D01*
X-10458237Y-27752880D01*
X-10458239Y-27752880D01*
X-10486196Y-27747319D01*
X-10549105Y-27714410D01*
X-10584236Y-27652715D01*
X-10580435Y-27581820D01*
X-10538909Y-27524234D01*
X-10494222Y-27502033D01*
X-10488651Y-27500540D01*
X-10482957Y-27499562D01*
X-10453931Y-27488854D01*
X-10281373Y-27425194D01*
X-10281374Y-27425194D01*
X-10275957Y-27423196D01*
X-10247314Y-27406155D01*
X-10091306Y-27313340D01*
X-10091305Y-27313339D01*
X-10086341Y-27310386D01*
X-9920457Y-27164910D01*
X-9783863Y-26991640D01*
X-9681131Y-26796380D01*
X-9615703Y-26585667D01*
X-9594500Y-26406524D01*
X-9594500Y-25679030D01*
X-9609546Y-25515289D01*
X-9669435Y-25302936D01*
X-9767020Y-25105053D01*
X-9787109Y-25078150D01*
X-9895580Y-24932891D01*
X-9895580Y-24932890D01*
X-9899033Y-24928267D01*
X-10061051Y-24778499D01*
X-10247650Y-24660764D01*
X-10452579Y-24579006D01*
X-10458237Y-24577880D01*
X-10458239Y-24577880D01*
X-10486196Y-24572319D01*
X-10549105Y-24539410D01*
X-10584236Y-24477715D01*
X-10580435Y-24406820D01*
X-10538909Y-24349234D01*
X-10494222Y-24327033D01*
X-10488651Y-24325540D01*
X-10482957Y-24324562D01*
X-10453931Y-24313854D01*
X-10281373Y-24250194D01*
X-10281374Y-24250194D01*
X-10275957Y-24248196D01*
X-10086341Y-24135386D01*
X-9920457Y-23989910D01*
X-9783863Y-23816640D01*
X-9681131Y-23621380D01*
X-9615703Y-23410667D01*
X-9608326Y-23348343D01*
X-9594936Y-23235211D01*
X-9594936Y-23235205D01*
X-9594500Y-23231524D01*
X-9594500Y-22504030D01*
X-9609546Y-22340289D01*
X-9669435Y-22127936D01*
X-9767020Y-21930053D01*
X-9781728Y-21910356D01*
X-9895580Y-21757891D01*
X-9895580Y-21757890D01*
X-9899033Y-21753267D01*
X-10061051Y-21603499D01*
X-10247650Y-21485764D01*
X-10452579Y-21404006D01*
X-10458239Y-21402880D01*
X-10458243Y-21402879D01*
X-10663309Y-21362089D01*
X-10663312Y-21362089D01*
X-10668976Y-21360962D01*
X-10674751Y-21360886D01*
X-10674755Y-21360886D01*
X-10785496Y-21359437D01*
X-10889594Y-21358074D01*
X-10895291Y-21359053D01*
X-10895292Y-21359053D01*
X-11101346Y-21394459D01*
X-11101347Y-21394459D01*
X-11107043Y-21395438D01*
X-11314043Y-21471804D01*
X-11503659Y-21584614D01*
X-11669543Y-21730090D01*
X-11806137Y-21903360D01*
X-11908869Y-22098620D01*
X-11974297Y-22309333D01*
X-11974976Y-22315070D01*
X-11985747Y-22406077D01*
X-11995500Y-22488476D01*
X-11995500Y-23215970D01*
X-11980454Y-23379711D01*
X-11978885Y-23385273D01*
X-11978885Y-23385275D01*
X-11955754Y-23467292D01*
X-11920565Y-23592064D01*
X-11822980Y-23789947D01*
X-11819526Y-23794573D01*
X-11819525Y-23794574D01*
X-11806863Y-23811530D01*
X-11690967Y-23966733D01*
X-11528949Y-24116501D01*
X-11342350Y-24234236D01*
X-11137421Y-24315994D01*
X-11131763Y-24317120D01*
X-11131761Y-24317120D01*
X-11103804Y-24322681D01*
X-11040895Y-24355590D01*
X-11005764Y-24417285D01*
X-11009565Y-24488180D01*
X-11051091Y-24545766D01*
X-11095778Y-24567967D01*
X-11101349Y-24569460D01*
X-11107043Y-24570438D01*
X-11112460Y-24572437D01*
X-11112462Y-24572437D01*
X-11210554Y-24608625D01*
X-11314043Y-24646804D01*
X-11319004Y-24649756D01*
X-11319005Y-24649756D01*
X-11491965Y-24752657D01*
X-11503659Y-24759614D01*
X-11669543Y-24905090D01*
X-11806137Y-25078360D01*
X-11908869Y-25273620D01*
X-11974297Y-25484333D01*
X-11995500Y-25663476D01*
X-11995500Y-26390970D01*
X-11980454Y-26554711D01*
X-11920565Y-26767064D01*
X-11822980Y-26964947D01*
X-11819526Y-26969573D01*
X-11819525Y-26969574D01*
X-11794340Y-27003301D01*
X-11690967Y-27141733D01*
X-11665894Y-27164910D01*
X-11570973Y-27252654D01*
X-11528949Y-27291501D01*
X-11342350Y-27409236D01*
X-11137421Y-27490994D01*
X-11131763Y-27492120D01*
X-11131761Y-27492120D01*
X-11103804Y-27497681D01*
X-11040895Y-27530590D01*
X-11005764Y-27592285D01*
X-11009565Y-27663180D01*
X-11051091Y-27720766D01*
X-11095778Y-27742967D01*
X-11101349Y-27744460D01*
X-11107043Y-27745438D01*
X-11112460Y-27747437D01*
X-11112462Y-27747437D01*
X-11179170Y-27772047D01*
X-11314043Y-27821804D01*
X-11503659Y-27934614D01*
X-11669543Y-28080090D01*
X-11806137Y-28253360D01*
X-11908869Y-28448620D01*
X-11974297Y-28659333D01*
X-11974976Y-28665070D01*
X-11990890Y-28799529D01*
X-11995500Y-28838476D01*
X-11995500Y-29565970D01*
X-16716873Y-29565970D01*
X-18987188Y-27295655D01*
X-19001132Y-27288041D01*
X-19002965Y-27288172D01*
X-19009580Y-27292423D01*
X-21390509Y-29673352D01*
X-21397649Y-29686428D01*
X-23700000Y-29686428D01*
X-23700000Y-27003301D01*
X-22604767Y-27003301D01*
X-22585364Y-27373529D01*
X-22584678Y-27380067D01*
X-22526679Y-27746248D01*
X-22525308Y-27752698D01*
X-22429357Y-28110796D01*
X-22427316Y-28117078D01*
X-22294461Y-28463176D01*
X-22291779Y-28469201D01*
X-22123469Y-28799529D01*
X-22120172Y-28805239D01*
X-21918260Y-29116156D01*
X-21914372Y-29121507D01*
X-21697566Y-29389240D01*
X-21685308Y-29397708D01*
X-21674218Y-29391375D01*
X-19295655Y-27012812D01*
X-19289277Y-27001132D01*
X-18711959Y-27001132D01*
X-18711828Y-27002965D01*
X-18707577Y-27009580D01*
X-16326648Y-29390509D01*
X-16313572Y-29397649D01*
X-16303203Y-29390191D01*
X-16085628Y-29121507D01*
X-16081740Y-29116156D01*
X-15879828Y-28805239D01*
X-15876531Y-28799529D01*
X-15708221Y-28469201D01*
X-15705539Y-28463176D01*
X-15572684Y-28117078D01*
X-15570643Y-28110796D01*
X-15474692Y-27752698D01*
X-15473321Y-27746248D01*
X-15415322Y-27380067D01*
X-15414636Y-27373529D01*
X-15395233Y-27003301D01*
X-15395233Y-26996699D01*
X-15414636Y-26626471D01*
X-15415322Y-26619933D01*
X-15473321Y-26253752D01*
X-15474692Y-26247302D01*
X-15570643Y-25889204D01*
X-15572684Y-25882922D01*
X-15705539Y-25536824D01*
X-15708221Y-25530799D01*
X-15876531Y-25200471D01*
X-15879828Y-25194761D01*
X-16081740Y-24883844D01*
X-16085628Y-24878493D01*
X-16302434Y-24610760D01*
X-16314692Y-24602292D01*
X-16325782Y-24608625D01*
X-18704345Y-26987188D01*
X-18711959Y-27001132D01*
X-19289277Y-27001132D01*
X-19288041Y-26998868D01*
X-19288172Y-26997035D01*
X-19292423Y-26990420D01*
X-21673352Y-24609491D01*
X-21686428Y-24602351D01*
X-21696797Y-24609809D01*
X-21914372Y-24878493D01*
X-21918260Y-24883844D01*
X-22120172Y-25194761D01*
X-22123469Y-25200471D01*
X-22291779Y-25530799D01*
X-22294461Y-25536824D01*
X-22427316Y-25882922D01*
X-22429357Y-25889204D01*
X-22525308Y-26247302D01*
X-22526679Y-26253752D01*
X-22584678Y-26619933D01*
X-22585364Y-26626471D01*
X-22604767Y-26996699D01*
X-22604767Y-27003301D01*
X-23700000Y-27003301D01*
X-23700000Y10398434D01*
X-23679998Y10466555D01*
X-23626342Y10513048D01*
X-23556068Y10523152D01*
X-23491488Y10493658D01*
X-23453104Y10433932D01*
X-23449078Y10414881D01*
X-23445044Y10384238D01*
X-23384536Y10238159D01*
X-23288282Y10112718D01*
X-23281736Y10107695D01*
X-23263329Y10093571D01*
X-23250938Y10082703D01*
X-22227405Y9059170D01*
X-22193379Y8996858D01*
X-22190500Y8970075D01*
X-22190500Y-19510381D01*
X-22191578Y-19526827D01*
X-22195682Y-19558000D01*
X-22190500Y-19597361D01*
X-22175044Y-19714762D01*
X-22114536Y-19860841D01*
X-22018282Y-19986282D01*
X-22011736Y-19991305D01*
X-21993329Y-20005429D01*
X-21980938Y-20016297D01*
X-18873297Y-23123938D01*
X-18862430Y-23136328D01*
X-18843282Y-23161282D01*
X-18836737Y-23166304D01*
X-18826727Y-23173985D01*
X-18784860Y-23231323D01*
X-18780638Y-23302194D01*
X-18815402Y-23364097D01*
X-18878114Y-23397378D01*
X-18910025Y-23399775D01*
X-18996699Y-23395233D01*
X-19003301Y-23395233D01*
X-19373529Y-23414636D01*
X-19380067Y-23415322D01*
X-19746248Y-23473321D01*
X-19752698Y-23474692D01*
X-20110796Y-23570643D01*
X-20117078Y-23572684D01*
X-20463176Y-23705539D01*
X-20469201Y-23708221D01*
X-20799529Y-23876531D01*
X-20805239Y-23879828D01*
X-21116156Y-24081740D01*
X-21121507Y-24085628D01*
X-21389240Y-24302434D01*
X-21397708Y-24314692D01*
X-21391375Y-24325782D01*
X-19012812Y-26704345D01*
X-18998868Y-26711959D01*
X-18997035Y-26711828D01*
X-18990420Y-26707577D01*
X-16609491Y-24326648D01*
X-16602351Y-24313572D01*
X-16609809Y-24303203D01*
X-16878493Y-24085628D01*
X-16883844Y-24081740D01*
X-17194761Y-23879828D01*
X-17200471Y-23876531D01*
X-17530799Y-23708221D01*
X-17536824Y-23705539D01*
X-17871338Y-23577131D01*
X-17927766Y-23534045D01*
X-17951943Y-23467292D01*
X-17936192Y-23398065D01*
X-17885514Y-23348343D01*
X-17826184Y-23333500D01*
X-15888153Y-23333500D01*
X-15828031Y-23348769D01*
X-15760442Y-23385467D01*
X-15760440Y-23385468D01*
X-15753765Y-23389092D01*
X-15746416Y-23391020D01*
X-15597117Y-23430188D01*
X-15597115Y-23430188D01*
X-15589767Y-23432116D01*
X-15503391Y-23433473D01*
X-15427839Y-23434660D01*
X-15427836Y-23434660D01*
X-15420240Y-23434779D01*
X-15412835Y-23433083D01*
X-15412834Y-23433083D01*
X-15332290Y-23414636D01*
X-15254971Y-23396928D01*
X-15103502Y-23320747D01*
X-14999036Y-23231524D01*
X-14980349Y-23215564D01*
X-14980348Y-23215563D01*
X-14974577Y-23210634D01*
X-14875639Y-23072947D01*
X-14812399Y-22915634D01*
X-14788510Y-22747778D01*
X-14788355Y-22733000D01*
X-14808724Y-22564680D01*
X-14868655Y-22406077D01*
X-14964688Y-22266349D01*
X-15032488Y-22205941D01*
X-15085608Y-22158612D01*
X-15085612Y-22158610D01*
X-15091279Y-22153560D01*
X-15098072Y-22149963D01*
X-15200756Y-22095595D01*
X-15241119Y-22074224D01*
X-15405559Y-22032919D01*
X-15413157Y-22032879D01*
X-15413159Y-22032879D01*
X-15490332Y-22032475D01*
X-15575105Y-22032031D01*
X-15582492Y-22033805D01*
X-15582496Y-22033805D01*
X-15723399Y-22067634D01*
X-15739968Y-22071612D01*
X-15746712Y-22075093D01*
X-15746715Y-22075094D01*
X-15830746Y-22118466D01*
X-15888536Y-22132500D01*
X-18114075Y-22132500D01*
X-18182196Y-22112498D01*
X-18203170Y-22095595D01*
X-20952595Y-19346170D01*
X-20986621Y-19283858D01*
X-20989500Y-19257075D01*
X-20989500Y-15965271D01*
X-20573058Y-15965271D01*
X-20567942Y-16007542D01*
X-20565618Y-16018479D01*
X-20502257Y-16224435D01*
X-20498036Y-16234780D01*
X-20399202Y-16426267D01*
X-20393217Y-16435698D01*
X-20262032Y-16606663D01*
X-20254479Y-16614876D01*
X-20095090Y-16759909D01*
X-20086190Y-16766664D01*
X-19898898Y-16884152D01*
X-19900142Y-16886135D01*
X-19855834Y-16927987D01*
X-19838771Y-16996903D01*
X-19861675Y-17064103D01*
X-19917275Y-17108253D01*
X-19964655Y-17117500D01*
X-19982772Y-17117500D01*
X-20072547Y-17128364D01*
X-20080075Y-17131344D01*
X-20080077Y-17131345D01*
X-20149168Y-17158700D01*
X-20212783Y-17183887D01*
X-20332922Y-17275078D01*
X-20424113Y-17395217D01*
X-20479636Y-17535453D01*
X-20490500Y-17625228D01*
X-20490500Y-18950772D01*
X-20479636Y-19040547D01*
X-20476656Y-19048075D01*
X-20476655Y-19048077D01*
X-20451615Y-19111321D01*
X-20424113Y-19180783D01*
X-20332922Y-19300922D01*
X-20212783Y-19392113D01*
X-20149168Y-19417300D01*
X-20080077Y-19444655D01*
X-20080075Y-19444656D01*
X-20072547Y-19447636D01*
X-19982772Y-19458500D01*
X-18207228Y-19458500D01*
X-18117453Y-19447636D01*
X-18109925Y-19444656D01*
X-18109923Y-19444655D01*
X-18040832Y-19417300D01*
X-17977217Y-19392113D01*
X-17857078Y-19300922D01*
X-17765887Y-19180783D01*
X-17738385Y-19111321D01*
X-17713345Y-19048077D01*
X-17713344Y-19048075D01*
X-17710364Y-19040547D01*
X-17699500Y-18950772D01*
X-17699500Y-17625228D01*
X-17710364Y-17535453D01*
X-17765887Y-17395217D01*
X-17857078Y-17275078D01*
X-17977217Y-17183887D01*
X-18040832Y-17158700D01*
X-18109923Y-17131345D01*
X-18109925Y-17131344D01*
X-18117453Y-17128364D01*
X-18207228Y-17117500D01*
X-18234196Y-17117500D01*
X-18302317Y-17097498D01*
X-18348810Y-17043842D01*
X-18358914Y-16973568D01*
X-18329420Y-16908988D01*
X-18288440Y-16877774D01*
X-18225963Y-16847974D01*
X-18216352Y-16842290D01*
X-18041356Y-16716541D01*
X-18032900Y-16709242D01*
X-17882944Y-16554500D01*
X-17875902Y-16545803D01*
X-17755724Y-16366960D01*
X-17750335Y-16357157D01*
X-17663726Y-16159857D01*
X-17660160Y-16149262D01*
X-17616070Y-15965615D01*
X-17616775Y-15951530D01*
X-17625654Y-15948000D01*
X-20557033Y-15948000D01*
X-20571015Y-15952105D01*
X-20573058Y-15965271D01*
X-20989500Y-15965271D01*
X-20989500Y-9716438D01*
X-20969498Y-9648317D01*
X-20915842Y-9601824D01*
X-20845568Y-9591720D01*
X-20780988Y-9621214D01*
X-20774405Y-9627343D01*
X-20397574Y-10004174D01*
X-20363548Y-10066486D01*
X-20369639Y-10139959D01*
X-20447107Y-10334136D01*
X-20448233Y-10339796D01*
X-20448234Y-10339800D01*
X-20459905Y-10398477D01*
X-20489075Y-10545125D01*
X-20491891Y-10760230D01*
X-20490912Y-10765927D01*
X-20490912Y-10765928D01*
X-20485651Y-10796542D01*
X-20455460Y-10972246D01*
X-20381003Y-11174072D01*
X-20271012Y-11358950D01*
X-20267206Y-11363290D01*
X-20267203Y-11363294D01*
X-20132978Y-11516347D01*
X-20129171Y-11520688D01*
X-19960231Y-11653870D01*
X-19769850Y-11754034D01*
X-19733123Y-11765438D01*
X-19564403Y-11817827D01*
X-19564853Y-11819277D01*
X-19508750Y-11849575D01*
X-19474437Y-11911728D01*
X-19479174Y-11982567D01*
X-19521456Y-12039599D01*
X-19563229Y-12060350D01*
X-19741267Y-12110562D01*
X-19746444Y-12113115D01*
X-19746449Y-12113117D01*
X-19893984Y-12185874D01*
X-19934205Y-12205709D01*
X-20106573Y-12334422D01*
X-20148871Y-12380180D01*
X-20221124Y-12458343D01*
X-20252599Y-12492392D01*
X-20367392Y-12674327D01*
X-20447107Y-12874136D01*
X-20448233Y-12879796D01*
X-20448234Y-12879800D01*
X-20474773Y-13013222D01*
X-20489075Y-13085125D01*
X-20489151Y-13090900D01*
X-20489151Y-13090904D01*
X-20490136Y-13166191D01*
X-20491891Y-13300230D01*
X-20490912Y-13305927D01*
X-20490912Y-13305928D01*
X-20485916Y-13335000D01*
X-20455460Y-13512246D01*
X-20381003Y-13714072D01*
X-20329173Y-13801191D01*
X-20295686Y-13857476D01*
X-20271012Y-13898950D01*
X-20267206Y-13903290D01*
X-20267203Y-13903294D01*
X-20225655Y-13950670D01*
X-20129171Y-14060688D01*
X-19960231Y-14193870D01*
X-19769850Y-14294034D01*
X-19764336Y-14295746D01*
X-19764329Y-14295749D01*
X-19736401Y-14304421D01*
X-19677276Y-14343724D01*
X-19648786Y-14408753D01*
X-19659976Y-14478862D01*
X-19707293Y-14531792D01*
X-19740519Y-14546287D01*
X-19759063Y-14551360D01*
X-19769538Y-14555255D01*
X-19964037Y-14648026D01*
X-19973648Y-14653710D01*
X-20148644Y-14779459D01*
X-20157100Y-14786758D01*
X-20307056Y-14941500D01*
X-20314098Y-14950197D01*
X-20434276Y-15129040D01*
X-20439665Y-15138843D01*
X-20526274Y-15336143D01*
X-20529840Y-15346738D01*
X-20573930Y-15530385D01*
X-20573225Y-15544470D01*
X-20564346Y-15548000D01*
X-17632967Y-15548000D01*
X-17618985Y-15543895D01*
X-17616942Y-15530729D01*
X-17622058Y-15488458D01*
X-17624382Y-15477521D01*
X-17687743Y-15271565D01*
X-17691964Y-15261220D01*
X-17790798Y-15069733D01*
X-17796783Y-15060302D01*
X-17927968Y-14889337D01*
X-17935521Y-14881124D01*
X-18094910Y-14736091D01*
X-18103810Y-14729336D01*
X-18286343Y-14614834D01*
X-18296313Y-14609753D01*
X-18461176Y-14543478D01*
X-18516920Y-14499511D01*
X-18540045Y-14432386D01*
X-18523208Y-14363415D01*
X-18471755Y-14314495D01*
X-18459327Y-14308937D01*
X-18454304Y-14307009D01*
X-18448733Y-14305438D01*
X-18255795Y-14210291D01*
X-18083427Y-14081578D01*
X-17989188Y-13979631D01*
X-17941321Y-13927849D01*
X-17941319Y-13927847D01*
X-17937401Y-13923608D01*
X-17822608Y-13741673D01*
X-17821420Y-13738695D01*
X-17773248Y-13687685D01*
X-17709724Y-13670500D01*
X-14020695Y-13670500D01*
X-13952574Y-13690502D01*
X-13916113Y-13726224D01*
X-13873404Y-13789783D01*
X-13873401Y-13789786D01*
X-13869170Y-13796083D01*
X-13813504Y-13846735D01*
X-13801700Y-13857476D01*
X-13764778Y-13918117D01*
X-13760500Y-13950670D01*
X-13760500Y-14926393D01*
X-13753086Y-14949210D01*
X-13748472Y-14968429D01*
X-13744719Y-14992126D01*
X-13740216Y-15000963D01*
X-13740216Y-15000964D01*
X-13733828Y-15013502D01*
X-13726264Y-15031763D01*
X-13721915Y-15045147D01*
X-13721913Y-15045150D01*
X-13718849Y-15054581D01*
X-13713020Y-15062604D01*
X-13704747Y-15073991D01*
X-13694423Y-15090837D01*
X-13683528Y-15112220D01*
X-11955905Y-16839843D01*
X-11921879Y-16902155D01*
X-11919000Y-16928938D01*
X-11919000Y-18418893D01*
X-11911586Y-18441710D01*
X-11906972Y-18460929D01*
X-11903219Y-18484626D01*
X-11898716Y-18493463D01*
X-11898716Y-18493464D01*
X-11892328Y-18506002D01*
X-11884764Y-18524263D01*
X-11880415Y-18537647D01*
X-11880413Y-18537650D01*
X-11877349Y-18547081D01*
X-11871520Y-18555104D01*
X-11863247Y-18566491D01*
X-11852923Y-18583337D01*
X-11842028Y-18604720D01*
X-10413220Y-20033528D01*
X-10391844Y-20044419D01*
X-10374988Y-20054749D01*
X-10355581Y-20068850D01*
X-10332763Y-20076264D01*
X-10314502Y-20083827D01*
X-10293126Y-20094719D01*
X-10283335Y-20096270D01*
X-10283328Y-20096272D01*
X-10269431Y-20098473D01*
X-10250212Y-20103087D01*
X-10236827Y-20107436D01*
X-10236820Y-20107437D01*
X-10227393Y-20110500D01*
X-8102438Y-20110500D01*
X-8034317Y-20130502D01*
X-8013343Y-20147405D01*
X-970405Y-27190342D01*
X-936379Y-27252654D01*
X-933500Y-27279437D01*
X-933500Y-27324270D01*
X-953502Y-27392391D01*
X-976671Y-27419219D01*
X-1032396Y-27467831D01*
X-1072037Y-27524234D01*
X-1123550Y-27597531D01*
X-1129887Y-27606547D01*
X-1191476Y-27764513D01*
X-1192468Y-27772046D01*
X-1192468Y-27772047D01*
X-1200574Y-27833624D01*
X-1213606Y-27932611D01*
X-1195001Y-28101135D01*
X-1187133Y-28122634D01*
X-1146784Y-28232892D01*
X-1136734Y-28260356D01*
X-1132498Y-28266659D01*
X-1132498Y-28266660D01*
X-1123498Y-28280053D01*
X-1042170Y-28401083D01*
X-1036554Y-28406193D01*
X-953042Y-28482184D01*
X-916120Y-28542824D01*
X-917843Y-28613800D01*
X-955013Y-28670326D01*
X-1032396Y-28737831D01*
X-1036763Y-28744045D01*
X-1103130Y-28838476D01*
X-1129887Y-28876547D01*
X-1191476Y-29034513D01*
X-1192468Y-29042046D01*
X-1192468Y-29042047D01*
X-1202224Y-29116156D01*
X-1213606Y-29202611D01*
X-1195001Y-29371135D01*
X-1136734Y-29530356D01*
X-1042170Y-29671083D01*
X-1036558Y-29676190D01*
X-1036555Y-29676193D01*
X-922388Y-29780077D01*
X-922384Y-29780080D01*
X-916767Y-29785191D01*
X-910094Y-29788814D01*
X-910090Y-29788817D01*
X-774442Y-29862467D01*
X-774440Y-29862468D01*
X-767765Y-29866092D01*
X-760416Y-29868020D01*
X-611117Y-29907188D01*
X-611115Y-29907188D01*
X-603767Y-29909116D01*
X-517391Y-29910473D01*
X-441839Y-29911660D01*
X-441836Y-29911660D01*
X-434240Y-29911779D01*
X-426835Y-29910083D01*
X-426834Y-29910083D01*
X-366414Y-29896245D01*
X-268971Y-29873928D01*
X-117502Y-29797747D01*
X11423Y-29687634D01*
X12290Y-29686428D01*
X16602351Y-29686428D01*
X16609809Y-29696797D01*
X16878493Y-29914372D01*
X16883844Y-29918260D01*
X17194761Y-30120172D01*
X17200471Y-30123469D01*
X17530799Y-30291779D01*
X17536824Y-30294461D01*
X17882922Y-30427316D01*
X17889204Y-30429357D01*
X18247302Y-30525308D01*
X18253752Y-30526679D01*
X18619933Y-30584678D01*
X18626471Y-30585364D01*
X18996699Y-30604767D01*
X19003301Y-30604767D01*
X19373529Y-30585364D01*
X19380067Y-30584678D01*
X19746248Y-30526679D01*
X19752698Y-30525308D01*
X20110796Y-30429357D01*
X20117078Y-30427316D01*
X20463176Y-30294461D01*
X20469201Y-30291779D01*
X20799529Y-30123469D01*
X20805239Y-30120172D01*
X21116156Y-29918260D01*
X21121507Y-29914372D01*
X21389240Y-29697566D01*
X21397708Y-29685308D01*
X21391375Y-29674218D01*
X19012812Y-27295655D01*
X18998868Y-27288041D01*
X18997035Y-27288172D01*
X18990420Y-27292423D01*
X16609491Y-29673352D01*
X16602351Y-29686428D01*
X12290Y-29686428D01*
X15854Y-29681467D01*
X20684Y-29676215D01*
X81516Y-29639609D01*
X113433Y-29635500D01*
X448393Y-29635500D01*
X471210Y-29628086D01*
X490429Y-29623472D01*
X514126Y-29619719D01*
X522964Y-29615216D01*
X535502Y-29608828D01*
X553763Y-29601264D01*
X567147Y-29596915D01*
X567150Y-29596913D01*
X576581Y-29593849D01*
X595991Y-29579747D01*
X612837Y-29569423D01*
X634220Y-29558528D01*
X1110528Y-29082220D01*
X1121423Y-29060837D01*
X1131747Y-29043991D01*
X1140020Y-29032604D01*
X1145849Y-29024581D01*
X1148913Y-29015150D01*
X1148915Y-29015147D01*
X1153264Y-29001763D01*
X1160828Y-28983502D01*
X1167216Y-28970964D01*
X1167216Y-28970963D01*
X1171719Y-28962126D01*
X1175472Y-28938429D01*
X1180086Y-28919210D01*
X1187500Y-28896393D01*
X1187500Y-27003301D01*
X15395233Y-27003301D01*
X15414636Y-27373529D01*
X15415322Y-27380067D01*
X15473321Y-27746248D01*
X15474692Y-27752698D01*
X15570643Y-28110796D01*
X15572684Y-28117078D01*
X15705539Y-28463176D01*
X15708221Y-28469201D01*
X15876531Y-28799529D01*
X15879828Y-28805239D01*
X16081740Y-29116156D01*
X16085628Y-29121507D01*
X16302434Y-29389240D01*
X16314692Y-29397708D01*
X16325782Y-29391375D01*
X18704345Y-27012812D01*
X18710723Y-27001132D01*
X19288041Y-27001132D01*
X19288172Y-27002965D01*
X19292423Y-27009580D01*
X21673352Y-29390509D01*
X21686428Y-29397649D01*
X21696797Y-29390191D01*
X21914372Y-29121507D01*
X21918260Y-29116156D01*
X22120172Y-28805239D01*
X22123469Y-28799529D01*
X22291779Y-28469201D01*
X22294461Y-28463176D01*
X22427316Y-28117078D01*
X22429357Y-28110796D01*
X22525308Y-27752698D01*
X22526679Y-27746248D01*
X22584678Y-27380067D01*
X22585364Y-27373529D01*
X22604767Y-27003301D01*
X22604767Y-26996699D01*
X22585364Y-26626471D01*
X22584678Y-26619933D01*
X22526679Y-26253752D01*
X22525308Y-26247302D01*
X22429357Y-25889204D01*
X22427316Y-25882922D01*
X22294461Y-25536824D01*
X22291779Y-25530799D01*
X22123469Y-25200471D01*
X22120172Y-25194761D01*
X21918260Y-24883844D01*
X21914372Y-24878493D01*
X21697566Y-24610760D01*
X21685308Y-24602292D01*
X21674218Y-24608625D01*
X19295655Y-26987188D01*
X19288041Y-27001132D01*
X18710723Y-27001132D01*
X18711959Y-26998868D01*
X18711828Y-26997035D01*
X18707577Y-26990420D01*
X16326648Y-24609491D01*
X16313572Y-24602351D01*
X16303203Y-24609809D01*
X16085628Y-24878493D01*
X16081740Y-24883844D01*
X15879828Y-25194761D01*
X15876531Y-25200471D01*
X15708221Y-25530799D01*
X15705539Y-25536824D01*
X15572684Y-25882922D01*
X15570643Y-25889204D01*
X15474692Y-26247302D01*
X15473321Y-26253752D01*
X15415322Y-26619933D01*
X15414636Y-26626471D01*
X15395233Y-26996699D01*
X15395233Y-27003301D01*
X1187500Y-27003301D01*
X1187500Y-26021136D01*
X1207502Y-25953015D01*
X1261158Y-25906522D01*
X1313500Y-25895136D01*
X1521757Y-25895136D01*
X1544574Y-25887722D01*
X1563793Y-25883108D01*
X1587490Y-25879355D01*
X1596328Y-25874852D01*
X1608866Y-25868464D01*
X1627127Y-25860900D01*
X1640511Y-25856551D01*
X1640514Y-25856549D01*
X1649945Y-25853485D01*
X1669355Y-25839383D01*
X1686201Y-25829059D01*
X1707584Y-25818164D01*
X2380528Y-25145220D01*
X2391419Y-25123844D01*
X2401749Y-25106989D01*
X2410021Y-25095604D01*
X2410021Y-25095603D01*
X2415850Y-25087581D01*
X2423264Y-25064763D01*
X2430827Y-25046502D01*
X2441719Y-25025126D01*
X2443270Y-25015335D01*
X2443272Y-25015328D01*
X2445473Y-25001431D01*
X2450087Y-24982212D01*
X2454436Y-24968827D01*
X2454437Y-24968820D01*
X2457500Y-24959393D01*
X2457500Y-24314692D01*
X16602292Y-24314692D01*
X16608625Y-24325782D01*
X18987188Y-26704345D01*
X19001132Y-26711959D01*
X19002965Y-26711828D01*
X19009580Y-26707577D01*
X21390509Y-24326648D01*
X21397649Y-24313572D01*
X21390191Y-24303203D01*
X21121507Y-24085628D01*
X21116156Y-24081740D01*
X20805239Y-23879828D01*
X20799529Y-23876531D01*
X20469201Y-23708221D01*
X20463176Y-23705539D01*
X20117078Y-23572684D01*
X20110796Y-23570643D01*
X19752698Y-23474692D01*
X19746248Y-23473321D01*
X19380067Y-23415322D01*
X19373529Y-23414636D01*
X19003301Y-23395233D01*
X18996699Y-23395233D01*
X18626471Y-23414636D01*
X18619933Y-23415322D01*
X18253752Y-23473321D01*
X18247302Y-23474692D01*
X17889204Y-23570643D01*
X17882922Y-23572684D01*
X17536824Y-23705539D01*
X17530799Y-23708221D01*
X17200471Y-23876531D01*
X17194761Y-23879828D01*
X16883844Y-24081740D01*
X16878493Y-24085628D01*
X16610760Y-24302434D01*
X16602292Y-24314692D01*
X2457500Y-24314692D01*
X2457500Y-23411406D01*
X2459051Y-23391695D01*
X2461253Y-23377792D01*
X2462804Y-23368000D01*
X2459051Y-23344304D01*
X2457500Y-23324594D01*
X2457500Y-22205941D01*
X2477502Y-22137820D01*
X2501669Y-22110130D01*
X2545653Y-22072564D01*
X2545654Y-22072563D01*
X2551425Y-22067634D01*
X2650363Y-21929947D01*
X2661051Y-21903360D01*
X2710768Y-21779687D01*
X2710769Y-21779685D01*
X2713603Y-21772634D01*
X2737492Y-21604778D01*
X2737647Y-21590000D01*
X2735842Y-21575080D01*
X2723701Y-21474756D01*
X2717278Y-21421680D01*
X2657347Y-21263077D01*
X2561314Y-21123349D01*
X2549516Y-21112837D01*
X2440394Y-21015612D01*
X2440390Y-21015610D01*
X2434723Y-21010560D01*
X2284883Y-20931224D01*
X2120443Y-20889919D01*
X2112845Y-20889879D01*
X2112843Y-20889879D01*
X2035670Y-20889475D01*
X1950897Y-20889031D01*
X1943510Y-20890805D01*
X1943506Y-20890805D01*
X1800164Y-20925220D01*
X1786034Y-20928612D01*
X1779290Y-20932093D01*
X1779287Y-20932094D01*
X1774091Y-20934776D01*
X1635371Y-21006375D01*
X1507606Y-21117831D01*
X1410115Y-21256547D01*
X1348526Y-21414513D01*
X1347534Y-21422046D01*
X1347534Y-21422047D01*
X1339428Y-21483624D01*
X1326396Y-21582611D01*
X1345001Y-21751135D01*
X1403268Y-21910356D01*
X1407504Y-21916659D01*
X1407504Y-21916660D01*
X1485057Y-22032071D01*
X1497832Y-22051083D01*
X1503451Y-22056196D01*
X1503452Y-22056197D01*
X1565299Y-22112473D01*
X1602222Y-22173113D01*
X1606500Y-22205667D01*
X1606500Y-22816500D01*
X1586498Y-22884621D01*
X1532842Y-22931114D01*
X1480500Y-22942500D01*
X-2629062Y-22942500D01*
X-2697183Y-22922498D01*
X-2718157Y-22905595D01*
X-6649595Y-18974157D01*
X-6683621Y-18911845D01*
X-6686500Y-18885062D01*
X-6686500Y-17379939D01*
X-6666498Y-17311818D01*
X-6642331Y-17284128D01*
X-6598349Y-17246564D01*
X-6598348Y-17246563D01*
X-6592577Y-17241634D01*
X-6493639Y-17103947D01*
X-6430399Y-16946634D01*
X-6406510Y-16778778D01*
X-6406355Y-16764000D01*
X-6410204Y-16732192D01*
X-6398531Y-16662162D01*
X-6374212Y-16627960D01*
X-5667983Y-15921731D01*
X-5657088Y-15900348D01*
X-5646764Y-15883502D01*
X-5638491Y-15872115D01*
X-5632662Y-15864092D01*
X-5629598Y-15854661D01*
X-5629596Y-15854658D01*
X-5625247Y-15841274D01*
X-5617683Y-15823013D01*
X-5611295Y-15810475D01*
X-5611295Y-15810474D01*
X-5606792Y-15801637D01*
X-5603039Y-15777940D01*
X-5598425Y-15758721D01*
X-5591011Y-15735904D01*
X-5591011Y-15232611D01*
X-2483606Y-15232611D01*
X-2465001Y-15401135D01*
X-2436634Y-15478652D01*
X-2412547Y-15544470D01*
X-2406734Y-15560356D01*
X-2402498Y-15566659D01*
X-2402498Y-15566660D01*
X-2389426Y-15586113D01*
X-2312170Y-15701083D01*
X-2306558Y-15706190D01*
X-2306555Y-15706193D01*
X-2192388Y-15810077D01*
X-2192384Y-15810080D01*
X-2186767Y-15815191D01*
X-2180094Y-15818814D01*
X-2180090Y-15818817D01*
X-2044442Y-15892467D01*
X-2044440Y-15892468D01*
X-2037765Y-15896092D01*
X-2030416Y-15898020D01*
X-1881117Y-15937188D01*
X-1881115Y-15937188D01*
X-1873767Y-15939116D01*
X-1787391Y-15940473D01*
X-1711839Y-15941660D01*
X-1711836Y-15941660D01*
X-1704240Y-15941779D01*
X-1696835Y-15940083D01*
X-1696834Y-15940083D01*
X-1636414Y-15926245D01*
X-1538971Y-15903928D01*
X-1387502Y-15827747D01*
X-1306675Y-15758714D01*
X-1264349Y-15722564D01*
X-1264348Y-15722563D01*
X-1258577Y-15717634D01*
X-1159639Y-15579947D01*
X-1150012Y-15555999D01*
X-1099234Y-15429687D01*
X-1099233Y-15429685D01*
X-1096399Y-15422634D01*
X-1072510Y-15254778D01*
X-1072355Y-15240000D01*
X-1074160Y-15225080D01*
X-1077496Y-15197519D01*
X-1092724Y-15071680D01*
X-1152346Y-14913895D01*
X-1160480Y-14869357D01*
X-1160480Y-13315939D01*
X-1140478Y-13247818D01*
X-1116311Y-13220128D01*
X-1072329Y-13182564D01*
X-1072328Y-13182563D01*
X-1066557Y-13177634D01*
X-967619Y-13039947D01*
X-957663Y-13015180D01*
X-907214Y-12889687D01*
X-907213Y-12889685D01*
X-904379Y-12882634D01*
X-880490Y-12714778D01*
X-880335Y-12700000D01*
X-882140Y-12685080D01*
X-887987Y-12636770D01*
X-900704Y-12531680D01*
X-960635Y-12373077D01*
X-987202Y-12334422D01*
X-1052366Y-12239608D01*
X-1052367Y-12239607D01*
X-1056668Y-12233349D01*
X-1062861Y-12227831D01*
X-1177588Y-12125612D01*
X-1177592Y-12125610D01*
X-1183259Y-12120560D01*
X-1193002Y-12115401D01*
X-1286721Y-12065780D01*
X-1333099Y-12041224D01*
X-1497539Y-11999919D01*
X-1505137Y-11999879D01*
X-1505139Y-11999879D01*
X-1582312Y-11999475D01*
X-1667085Y-11999031D01*
X-1674472Y-12000805D01*
X-1674476Y-12000805D01*
X-1781187Y-12026425D01*
X-1831948Y-12038612D01*
X-1838692Y-12042093D01*
X-1838695Y-12042094D01*
X-1925989Y-12087150D01*
X-1982611Y-12116375D01*
X-1988333Y-12121367D01*
X-1988335Y-12121368D01*
X-2037785Y-12164506D01*
X-2110376Y-12227831D01*
X-2114743Y-12234045D01*
X-2182862Y-12330969D01*
X-2207867Y-12366547D01*
X-2269456Y-12524513D01*
X-2270448Y-12532046D01*
X-2270448Y-12532047D01*
X-2289896Y-12679776D01*
X-2291586Y-12692611D01*
X-2272981Y-12861135D01*
X-2214714Y-13020356D01*
X-2210478Y-13026659D01*
X-2210478Y-13026660D01*
X-2124384Y-13154783D01*
X-2124381Y-13154786D01*
X-2120150Y-13161083D01*
X-2064484Y-13211735D01*
X-2052680Y-13222476D01*
X-2015758Y-13283117D01*
X-2011480Y-13315670D01*
X-2011480Y-14495406D01*
X-2031482Y-14563527D01*
X-2079690Y-14607372D01*
X-2167883Y-14652892D01*
X-2174631Y-14656375D01*
X-2302396Y-14767831D01*
X-2306763Y-14774045D01*
X-2382019Y-14881124D01*
X-2399887Y-14906547D01*
X-2461476Y-15064513D01*
X-2462468Y-15072046D01*
X-2462468Y-15072047D01*
X-2478986Y-15197519D01*
X-2483606Y-15232611D01*
X-5591011Y-15232611D01*
X-5591011Y-6301096D01*
X-5598425Y-6278279D01*
X-5603039Y-6259059D01*
X-5605241Y-6245157D01*
X-5606792Y-6235363D01*
X-5617683Y-6213987D01*
X-5625247Y-6195726D01*
X-5629597Y-6182340D01*
X-5629598Y-6182339D01*
X-5632662Y-6172908D01*
X-5646762Y-6153501D01*
X-5657090Y-6136648D01*
X-5667983Y-6115269D01*
X-6603575Y-5179677D01*
X-6637600Y-5117365D01*
X-6639222Y-5072828D01*
X-6637590Y-5061361D01*
X-6637009Y-5057279D01*
X-6636854Y-5042501D01*
X-6657223Y-4874181D01*
X-6717154Y-4715578D01*
X-6733274Y-4692124D01*
X-6808885Y-4582109D01*
X-6808886Y-4582108D01*
X-6813187Y-4575850D01*
X-6844933Y-4547565D01*
X-6934107Y-4468113D01*
X-6934111Y-4468111D01*
X-6939778Y-4463061D01*
X-6973581Y-4445163D01*
X-7025828Y-4417500D01*
X-7089618Y-4383725D01*
X-7254058Y-4342420D01*
X-7261656Y-4342380D01*
X-7261658Y-4342380D01*
X-7359283Y-4341869D01*
X-7390012Y-4341708D01*
X-7458027Y-4321350D01*
X-7478447Y-4304805D01*
X-7626208Y-4157044D01*
X-7660234Y-4094732D01*
X-7655169Y-4023917D01*
X-7612622Y-3967081D01*
X-7546102Y-3942270D01*
X-7505140Y-3946073D01*
X-7445616Y-3961689D01*
X-7445614Y-3961689D01*
X-7438266Y-3963617D01*
X-7351890Y-3964974D01*
X-7276338Y-3966161D01*
X-7276335Y-3966161D01*
X-7268739Y-3966280D01*
X-7261334Y-3964584D01*
X-7261333Y-3964584D01*
X-7180509Y-3946073D01*
X-7103470Y-3928429D01*
X-6952001Y-3852248D01*
X-6823076Y-3742135D01*
X-6724138Y-3604448D01*
X-6721305Y-3597401D01*
X-6663733Y-3454188D01*
X-6663732Y-3454186D01*
X-6660898Y-3447135D01*
X-6641172Y-3308533D01*
X-6637590Y-3283363D01*
X-6637590Y-3283360D01*
X-6637009Y-3279279D01*
X-6636854Y-3264501D01*
X-6639911Y-3239235D01*
X-6644899Y-3198020D01*
X-6657223Y-3096181D01*
X-6717154Y-2937578D01*
X-6765895Y-2866660D01*
X-6808885Y-2804109D01*
X-6808886Y-2804108D01*
X-6813187Y-2797850D01*
X-6823133Y-2788988D01*
X-6934107Y-2690113D01*
X-6934111Y-2690111D01*
X-6939778Y-2685061D01*
X-6965178Y-2671612D01*
X-7063088Y-2619772D01*
X-7089618Y-2605725D01*
X-7254058Y-2564420D01*
X-7261656Y-2564380D01*
X-7261658Y-2564380D01*
X-7338831Y-2563976D01*
X-7423604Y-2563532D01*
X-7430991Y-2565306D01*
X-7430995Y-2565306D01*
X-7557007Y-2595560D01*
X-7588467Y-2603113D01*
X-7595211Y-2606594D01*
X-7595214Y-2606595D01*
X-7732382Y-2677393D01*
X-7739130Y-2680876D01*
X-7744852Y-2685868D01*
X-7744854Y-2685869D01*
X-7844338Y-2772654D01*
X-7866895Y-2792332D01*
X-7870581Y-2797577D01*
X-7930594Y-2834550D01*
X-7963786Y-2839001D01*
X-9855601Y-2839001D01*
X-9923722Y-2818999D01*
X-9959441Y-2784369D01*
X-9965269Y-2775889D01*
X-10011688Y-2708349D01*
X-10017881Y-2702831D01*
X-10132608Y-2600612D01*
X-10132612Y-2600610D01*
X-10138279Y-2595560D01*
X-10198769Y-2563532D01*
X-10242910Y-2540161D01*
X-10288119Y-2516224D01*
X-10452559Y-2474919D01*
X-10460157Y-2474879D01*
X-10460159Y-2474879D01*
X-10537332Y-2474475D01*
X-10622105Y-2474031D01*
X-10629492Y-2475805D01*
X-10629496Y-2475805D01*
X-10772838Y-2510220D01*
X-10786968Y-2513612D01*
X-10793712Y-2517093D01*
X-10793715Y-2517094D01*
X-10888993Y-2566271D01*
X-10937631Y-2591375D01*
X-10943353Y-2596367D01*
X-10943355Y-2596368D01*
X-10970183Y-2619772D01*
X-11065396Y-2702831D01*
X-11109520Y-2765613D01*
X-11123463Y-2785452D01*
X-11178998Y-2829683D01*
X-11226550Y-2839001D01*
X-16281063Y-2839001D01*
X-16349184Y-2818999D01*
X-16370159Y-2802096D01*
X-16647174Y-2525080D01*
X-16980782Y-2191472D01*
X-17002165Y-2180577D01*
X-17019011Y-2170253D01*
X-17030398Y-2161980D01*
X-17038421Y-2156151D01*
X-17047852Y-2153087D01*
X-17047855Y-2153085D01*
X-17061239Y-2148736D01*
X-17079500Y-2141172D01*
X-17092038Y-2134784D01*
X-17092039Y-2134784D01*
X-17100876Y-2130281D01*
X-17124573Y-2126528D01*
X-17143792Y-2121914D01*
X-17166609Y-2114500D01*
X-17285734Y-2114500D01*
X-17353855Y-2094498D01*
X-17376555Y-2074998D01*
X-17377688Y-2073349D01*
X-17401506Y-2052128D01*
X-17498608Y-1965612D01*
X-17498612Y-1965610D01*
X-17504279Y-1960560D01*
X-17654119Y-1881224D01*
X-17661481Y-1879375D01*
X-17661483Y-1879374D01*
X-17710853Y-1866973D01*
X-17746411Y-1858042D01*
X-17807606Y-1822047D01*
X-17839627Y-1758682D01*
X-17832307Y-1688064D01*
X-17801542Y-1647585D01*
X-17803444Y-1645683D01*
X-17692926Y-1535165D01*
X-17683279Y-1522729D01*
X-17607755Y-1395024D01*
X-17601506Y-1380585D01*
X-17559695Y-1236668D01*
X-17557396Y-1224081D01*
X-17555193Y-1196099D01*
X-17555000Y-1191173D01*
X-17555000Y-726115D01*
X-17559475Y-710876D01*
X-17560865Y-709671D01*
X-17568548Y-708000D01*
X-18831885Y-708000D01*
X-18847124Y-712475D01*
X-18848329Y-713865D01*
X-18850000Y-721548D01*
X-18850000Y-1759885D01*
X-18845525Y-1775124D01*
X-18844135Y-1776329D01*
X-18836452Y-1778000D01*
X-18435264Y-1778000D01*
X-18367143Y-1798002D01*
X-18320650Y-1851658D01*
X-18310546Y-1921932D01*
X-18340040Y-1986512D01*
X-18352435Y-1998949D01*
X-18360143Y-2005673D01*
X-18431396Y-2067831D01*
X-18435763Y-2074045D01*
X-18515129Y-2186972D01*
X-18528887Y-2206547D01*
X-18590476Y-2364513D01*
X-18591468Y-2372046D01*
X-18591468Y-2372047D01*
X-18610916Y-2519776D01*
X-18612606Y-2532611D01*
X-18594001Y-2701135D01*
X-18535734Y-2860356D01*
X-18441170Y-3001083D01*
X-18435558Y-3006190D01*
X-18435555Y-3006193D01*
X-18321388Y-3110077D01*
X-18321384Y-3110080D01*
X-18315767Y-3115191D01*
X-18309094Y-3118814D01*
X-18309090Y-3118817D01*
X-18173442Y-3192467D01*
X-18173440Y-3192468D01*
X-18166765Y-3196092D01*
X-18159416Y-3198020D01*
X-18010117Y-3237188D01*
X-18010115Y-3237188D01*
X-18002767Y-3239116D01*
X-17916391Y-3240473D01*
X-17840839Y-3241660D01*
X-17840836Y-3241660D01*
X-17833240Y-3241779D01*
X-17825835Y-3240083D01*
X-17825834Y-3240083D01*
X-17765414Y-3226245D01*
X-17667971Y-3203928D01*
X-17516502Y-3127747D01*
X-17460253Y-3079706D01*
X-17395465Y-3050675D01*
X-17325264Y-3061280D01*
X-17289328Y-3086422D01*
X-17200344Y-3175406D01*
X-17166318Y-3237718D01*
X-17171383Y-3308533D01*
X-17200344Y-3353596D01*
X-18311840Y-4465092D01*
X-18374152Y-4499118D01*
X-18438299Y-4496330D01*
X-18620080Y-4439886D01*
X-18620081Y-4439886D01*
X-18625597Y-4438173D01*
X-18676324Y-4432169D01*
X-18796575Y-4417936D01*
X-18796581Y-4417936D01*
X-18800262Y-4417500D01*
X-19374578Y-4417500D01*
X-19534221Y-4432169D01*
X-19539783Y-4433738D01*
X-19539785Y-4433738D01*
X-19735702Y-4488992D01*
X-19735707Y-4488994D01*
X-19741267Y-4490562D01*
X-19746444Y-4493115D01*
X-19746449Y-4493117D01*
X-19837050Y-4537797D01*
X-19934205Y-4585709D01*
X-20106573Y-4714422D01*
X-20252599Y-4872392D01*
X-20255680Y-4877275D01*
X-20284299Y-4922634D01*
X-20367392Y-5054327D01*
X-20447107Y-5254136D01*
X-20448233Y-5259796D01*
X-20448234Y-5259800D01*
X-20454132Y-5289451D01*
X-20489075Y-5465125D01*
X-20489151Y-5470900D01*
X-20489151Y-5470904D01*
X-20490563Y-5578809D01*
X-20491891Y-5680230D01*
X-20490912Y-5685927D01*
X-20490912Y-5685928D01*
X-20481726Y-5739384D01*
X-20455460Y-5892246D01*
X-20381003Y-6094072D01*
X-20378050Y-6099035D01*
X-20277020Y-6268851D01*
X-20271012Y-6278950D01*
X-20267202Y-6283294D01*
X-20267198Y-6283300D01*
X-20253840Y-6298532D01*
X-20223963Y-6362936D01*
X-20233649Y-6433269D01*
X-20274513Y-6483546D01*
X-20280993Y-6488254D01*
X-20297844Y-6498581D01*
X-20319220Y-6509472D01*
X-20774405Y-6964657D01*
X-20836717Y-6998683D01*
X-20907532Y-6993618D01*
X-20964368Y-6951071D01*
X-20989179Y-6884551D01*
X-20989500Y-6875562D01*
X-20989500Y-1191173D01*
X-20545000Y-1191173D01*
X-20544807Y-1196099D01*
X-20542604Y-1224081D01*
X-20540305Y-1236668D01*
X-20498494Y-1380585D01*
X-20492245Y-1395024D01*
X-20416721Y-1522729D01*
X-20407074Y-1535165D01*
X-20302165Y-1640074D01*
X-20289729Y-1649721D01*
X-20162024Y-1725245D01*
X-20147585Y-1731494D01*
X-20003668Y-1773305D01*
X-19991081Y-1775604D01*
X-19963099Y-1777807D01*
X-19958173Y-1778000D01*
X-19268115Y-1778000D01*
X-19252876Y-1773525D01*
X-19251671Y-1772135D01*
X-19250000Y-1764452D01*
X-19250000Y-726115D01*
X-19254475Y-710876D01*
X-19255865Y-709671D01*
X-19263548Y-708000D01*
X-20526885Y-708000D01*
X-20542124Y-712475D01*
X-20543329Y-713865D01*
X-20545000Y-721548D01*
X-20545000Y-1191173D01*
X-20989500Y-1191173D01*
X-20989500Y-289885D01*
X-20545000Y-289885D01*
X-20540525Y-305124D01*
X-20539135Y-306329D01*
X-20531452Y-308000D01*
X-17573115Y-308000D01*
X-17557876Y-303525D01*
X-17556671Y-302135D01*
X-17555000Y-294452D01*
X-17555000Y175172D01*
X-17555193Y180099D01*
X-17557396Y208081D01*
X-17559695Y220668D01*
X-17601506Y364585D01*
X-17607755Y379024D01*
X-17683279Y506729D01*
X-17692926Y519165D01*
X-17797835Y624074D01*
X-17810271Y633721D01*
X-17937976Y709245D01*
X-17952415Y715494D01*
X-18096332Y757305D01*
X-18108919Y759604D01*
X-18136901Y761807D01*
X-18141828Y762000D01*
X-18213270Y762000D01*
X-18281391Y782002D01*
X-18327884Y835658D01*
X-18337988Y905932D01*
X-18308494Y970512D01*
X-18268998Y1001006D01*
X-18215978Y1027153D01*
X-18210795Y1029709D01*
X-18105610Y1108254D01*
X-18043051Y1154969D01*
X-18043050Y1154970D01*
X-18038427Y1158422D01*
X-17923177Y1283099D01*
X-17896321Y1312151D01*
X-17896319Y1312153D01*
X-17892401Y1316392D01*
X-17802155Y1459422D01*
X-17780687Y1493447D01*
X-17780687Y1493448D01*
X-17777608Y1498327D01*
X-17697893Y1698136D01*
X-17692001Y1727754D01*
X-17657052Y1903458D01*
X-17657052Y1903460D01*
X-17655925Y1909125D01*
X-17655423Y1947415D01*
X-17654416Y2024396D01*
X-17653109Y2124230D01*
X-17658375Y2154875D01*
X-17688562Y2330556D01*
X-17688563Y2330559D01*
X-17689540Y2336246D01*
X-17763997Y2538072D01*
X-17873988Y2722950D01*
X-17877794Y2727290D01*
X-17877797Y2727294D01*
X-18012022Y2880347D01*
X-18015829Y2884688D01*
X-18078099Y2933778D01*
X-18180235Y3014296D01*
X-18180237Y3014298D01*
X-18184769Y3017870D01*
X-18375150Y3118034D01*
X-18580597Y3181827D01*
X-18631324Y3187831D01*
X-18751575Y3202064D01*
X-18751581Y3202064D01*
X-18755262Y3202500D01*
X-19329578Y3202500D01*
X-19489221Y3187831D01*
X-19494783Y3186262D01*
X-19494785Y3186262D01*
X-19690702Y3131008D01*
X-19690707Y3131006D01*
X-19696267Y3129438D01*
X-19701444Y3126885D01*
X-19701449Y3126883D01*
X-19765936Y3095081D01*
X-19889205Y3034291D01*
X-19974253Y2970783D01*
X-20014987Y2940365D01*
X-20061573Y2905578D01*
X-20084896Y2880347D01*
X-20190955Y2765613D01*
X-20207599Y2747608D01*
X-20210680Y2742725D01*
X-20224281Y2721168D01*
X-20322392Y2565673D01*
X-20402107Y2365864D01*
X-20403233Y2360204D01*
X-20403234Y2360200D01*
X-20414816Y2301972D01*
X-20444075Y2154875D01*
X-20444151Y2149100D01*
X-20444151Y2149096D01*
X-20444780Y2101007D01*
X-20446891Y1939770D01*
X-20445912Y1934073D01*
X-20445912Y1934072D01*
X-20415189Y1755278D01*
X-20410460Y1727754D01*
X-20336003Y1525928D01*
X-20306183Y1475805D01*
X-20263739Y1404464D01*
X-20226012Y1341050D01*
X-20222206Y1336710D01*
X-20222203Y1336706D01*
X-20138758Y1241556D01*
X-20084171Y1179312D01*
X-20079636Y1175737D01*
X-20079635Y1175736D01*
X-19936734Y1063082D01*
X-19915231Y1046130D01*
X-19910121Y1043441D01*
X-19910114Y1043437D01*
X-19826619Y999508D01*
X-19775646Y950089D01*
X-19759483Y880957D01*
X-19783262Y814060D01*
X-19839433Y770640D01*
X-19885286Y762000D01*
X-19958172Y762000D01*
X-19963099Y761807D01*
X-19991081Y759604D01*
X-20003668Y757305D01*
X-20147585Y715494D01*
X-20162024Y709245D01*
X-20289729Y633721D01*
X-20302165Y624074D01*
X-20407074Y519165D01*
X-20416721Y506729D01*
X-20492245Y379024D01*
X-20498494Y364585D01*
X-20540305Y220668D01*
X-20542604Y208081D01*
X-20544807Y180099D01*
X-20545000Y175172D01*
X-20545000Y-289885D01*
X-20989500Y-289885D01*
X-20989500Y6428827D01*
X-20610000Y6428827D01*
X-20609807Y6423901D01*
X-20607604Y6395919D01*
X-20605305Y6383332D01*
X-20563494Y6239415D01*
X-20557245Y6224976D01*
X-20481721Y6097271D01*
X-20472074Y6084835D01*
X-20367165Y5979926D01*
X-20354729Y5970279D01*
X-20227024Y5894755D01*
X-20212585Y5888506D01*
X-20068668Y5846695D01*
X-20056081Y5844396D01*
X-20028099Y5842193D01*
X-20023173Y5842000D01*
X-19333115Y5842000D01*
X-19317876Y5846475D01*
X-19316671Y5847865D01*
X-19315000Y5855548D01*
X-19315000Y5860115D01*
X-18915000Y5860115D01*
X-18910525Y5844876D01*
X-18909135Y5843671D01*
X-18901452Y5842000D01*
X-18206827Y5842000D01*
X-18201901Y5842193D01*
X-18173919Y5844396D01*
X-18161332Y5846695D01*
X-18017415Y5888506D01*
X-18002976Y5894755D01*
X-17875271Y5970279D01*
X-17862835Y5979926D01*
X-17757926Y6084835D01*
X-17748279Y6097271D01*
X-17672755Y6224976D01*
X-17666506Y6239415D01*
X-17624695Y6383332D01*
X-17622396Y6395919D01*
X-17620193Y6423901D01*
X-17620000Y6428827D01*
X-17620000Y6893885D01*
X-17624475Y6909124D01*
X-17625865Y6910329D01*
X-17633548Y6912000D01*
X-18896885Y6912000D01*
X-18912124Y6907525D01*
X-18913329Y6906135D01*
X-18915000Y6898452D01*
X-18915000Y5860115D01*
X-19315000Y5860115D01*
X-19315000Y6893885D01*
X-19319475Y6909124D01*
X-19320865Y6910329D01*
X-19328548Y6912000D01*
X-20591885Y6912000D01*
X-20607124Y6907525D01*
X-20608329Y6906135D01*
X-20610000Y6898452D01*
X-20610000Y6428827D01*
X-20989500Y6428827D01*
X-20989500Y7330115D01*
X-20610000Y7330115D01*
X-20605525Y7314876D01*
X-20604135Y7313671D01*
X-20596452Y7312000D01*
X-17638115Y7312000D01*
X-17622876Y7316475D01*
X-17621671Y7317865D01*
X-17620000Y7325548D01*
X-17620000Y7795172D01*
X-17620193Y7800099D01*
X-17622396Y7828081D01*
X-17624695Y7840668D01*
X-17666506Y7984585D01*
X-17672755Y7999024D01*
X-17748279Y8126729D01*
X-17757926Y8139165D01*
X-17862835Y8244074D01*
X-17875271Y8253721D01*
X-18002976Y8329245D01*
X-18017415Y8335494D01*
X-18161332Y8377305D01*
X-18173919Y8379604D01*
X-18201901Y8381807D01*
X-18206828Y8382000D01*
X-18278270Y8382000D01*
X-18346391Y8402002D01*
X-18392884Y8455658D01*
X-18402988Y8525932D01*
X-18373494Y8590512D01*
X-18333998Y8621006D01*
X-18280978Y8647153D01*
X-18275795Y8649709D01*
X-18103427Y8778422D01*
X-17957401Y8936392D01*
X-17938708Y8966018D01*
X-17845687Y9113447D01*
X-17845687Y9113448D01*
X-17842608Y9118327D01*
X-17762893Y9318136D01*
X-17757001Y9347754D01*
X-17722052Y9523458D01*
X-17722052Y9523460D01*
X-17720925Y9529125D01*
X-17720694Y9546721D01*
X-17719437Y9642809D01*
X-17718109Y9744230D01*
X-17723375Y9774875D01*
X-17753562Y9950556D01*
X-17753563Y9950559D01*
X-17754540Y9956246D01*
X-17828997Y10158072D01*
X-17938988Y10342950D01*
X-17942794Y10347290D01*
X-17942797Y10347294D01*
X-18077022Y10500347D01*
X-18080829Y10504688D01*
X-18085365Y10508264D01*
X-18245235Y10634296D01*
X-18245237Y10634298D01*
X-18249769Y10637870D01*
X-18440150Y10738034D01*
X-18645597Y10801827D01*
X-18696324Y10807831D01*
X-18816575Y10822064D01*
X-18816581Y10822064D01*
X-18820262Y10822500D01*
X-19394578Y10822500D01*
X-19554221Y10807831D01*
X-19559783Y10806262D01*
X-19559785Y10806262D01*
X-19755702Y10751008D01*
X-19755707Y10751006D01*
X-19761267Y10749438D01*
X-19766444Y10746885D01*
X-19766449Y10746883D01*
X-19789845Y10735345D01*
X-19954205Y10654291D01*
X-20045245Y10586308D01*
X-20105920Y10541000D01*
X-20126573Y10525578D01*
X-20181133Y10466555D01*
X-20257226Y10384238D01*
X-20272599Y10367608D01*
X-20275680Y10362725D01*
X-20349461Y10245789D01*
X-20387392Y10185673D01*
X-20467107Y9985864D01*
X-20468233Y9980204D01*
X-20468234Y9980200D01*
X-20474130Y9950556D01*
X-20509075Y9774875D01*
X-20509151Y9769100D01*
X-20509151Y9769096D01*
X-20510385Y9674807D01*
X-20511891Y9559770D01*
X-20510912Y9554073D01*
X-20510912Y9554072D01*
X-20489964Y9432165D01*
X-20475460Y9347754D01*
X-20401003Y9145928D01*
X-20384582Y9118327D01*
X-20296381Y8970075D01*
X-20291012Y8961050D01*
X-20287206Y8956710D01*
X-20287203Y8956706D01*
X-20152978Y8803653D01*
X-20149171Y8799312D01*
X-19980231Y8666130D01*
X-19975121Y8663441D01*
X-19975114Y8663437D01*
X-19891619Y8619508D01*
X-19840646Y8570089D01*
X-19824483Y8500957D01*
X-19848262Y8434060D01*
X-19904433Y8390640D01*
X-19950286Y8382000D01*
X-20023172Y8382000D01*
X-20028099Y8381807D01*
X-20056081Y8379604D01*
X-20068668Y8377305D01*
X-20212585Y8335494D01*
X-20227024Y8329245D01*
X-20354729Y8253721D01*
X-20367165Y8244074D01*
X-20472074Y8139165D01*
X-20481721Y8126729D01*
X-20557245Y7999024D01*
X-20563494Y7984585D01*
X-20605305Y7840668D01*
X-20607604Y7828081D01*
X-20609807Y7800099D01*
X-20610000Y7795172D01*
X-20610000Y7330115D01*
X-20989500Y7330115D01*
X-20989500Y9223381D01*
X-20988422Y9239827D01*
X-20985396Y9262812D01*
X-20984318Y9271000D01*
X-21004956Y9427762D01*
X-21065464Y9573841D01*
X-21137550Y9667785D01*
X-21161718Y9699282D01*
X-21186672Y9718430D01*
X-21199062Y9729297D01*
X-22222595Y10752830D01*
X-22256621Y10815142D01*
X-22259500Y10841925D01*
X-22259500Y16521247D01*
X-21633486Y16521247D01*
X-21615961Y16342514D01*
X-21613738Y16335832D01*
X-21613738Y16335831D01*
X-21567903Y16198045D01*
X-21559274Y16172104D01*
X-21555627Y16166082D01*
X-21489695Y16057216D01*
X-21466241Y16018488D01*
X-21461352Y16013425D01*
X-21461351Y16013424D01*
X-21394227Y15943916D01*
X-21341486Y15889301D01*
X-21191211Y15790964D01*
X-21022884Y15728364D01*
X-21015903Y15727433D01*
X-21015901Y15727432D01*
X-20851851Y15705543D01*
X-20851847Y15705543D01*
X-20844870Y15704612D01*
X-20837858Y15705250D01*
X-20837854Y15705250D01*
X-20673040Y15720249D01*
X-20673039Y15720249D01*
X-20666019Y15720888D01*
X-20495218Y15776385D01*
X-20470761Y15790964D01*
X-20347008Y15864735D01*
X-20347006Y15864736D01*
X-20340956Y15868343D01*
X-20335857Y15873199D01*
X-20335854Y15873201D01*
X-20334231Y15874747D01*
X-20332947Y15875408D01*
X-20330242Y15877461D01*
X-20329881Y15876986D01*
X-20271105Y15907238D01*
X-20247340Y15909500D01*
X-16556925Y15909500D01*
X-16488804Y15889498D01*
X-16467830Y15872595D01*
X-15666429Y15071194D01*
X-15632403Y15008882D01*
X-15629524Y14982099D01*
X-15629524Y2705407D01*
X-15649526Y2637286D01*
X-15651925Y2633979D01*
X-15653292Y2632641D01*
X-15656434Y2627765D01*
X-15656438Y2627760D01*
X-15693305Y2570553D01*
X-15750578Y2481683D01*
X-15812002Y2312922D01*
X-15834510Y2134747D01*
X-15833823Y2127740D01*
X-15833823Y2127737D01*
X-15833019Y2119537D01*
X-15816985Y1956014D01*
X-15814762Y1949332D01*
X-15814762Y1949331D01*
X-15767572Y1807472D01*
X-15760298Y1785604D01*
X-15756651Y1779582D01*
X-15675297Y1645251D01*
X-15667265Y1631988D01*
X-15662376Y1626925D01*
X-15662375Y1626924D01*
X-15647542Y1611564D01*
X-15542510Y1502801D01*
X-15392235Y1404464D01*
X-15223908Y1341864D01*
X-15216927Y1340933D01*
X-15216925Y1340932D01*
X-15052875Y1319043D01*
X-15052871Y1319043D01*
X-15045894Y1318112D01*
X-15038882Y1318750D01*
X-15038878Y1318750D01*
X-14874064Y1333749D01*
X-14874063Y1333749D01*
X-14867043Y1334388D01*
X-14696242Y1389885D01*
X-14665310Y1408324D01*
X-14548032Y1478235D01*
X-14548030Y1478236D01*
X-14541980Y1481843D01*
X-14411925Y1605693D01*
X-14403699Y1618073D01*
X-14330828Y1727754D01*
X-14312541Y1755278D01*
X-14275835Y1851907D01*
X-14251267Y1916581D01*
X-14251266Y1916586D01*
X-14248767Y1923164D01*
X-14247234Y1934072D01*
X-14224324Y2097084D01*
X-14224324Y2097089D01*
X-14223773Y2101007D01*
X-14223621Y2111924D01*
X-14223514Y2119537D01*
X-14223514Y2119542D01*
X-14223459Y2123500D01*
X-14243478Y2301972D01*
X-14249597Y2319545D01*
X-14300221Y2464916D01*
X-14302539Y2471573D01*
X-14351497Y2549923D01*
X-14393975Y2617901D01*
X-14397708Y2623875D01*
X-14401514Y2627708D01*
X-14427907Y2692915D01*
X-14428524Y2705369D01*
X-14428524Y13469389D01*
X-12643606Y13469389D01*
X-12625001Y13300865D01*
X-12566734Y13141644D01*
X-12559919Y13131501D01*
X-12538500Y13061226D01*
X-12538500Y555619D01*
X-12539578Y539173D01*
X-12543682Y508000D01*
X-12538500Y468639D01*
X-12523044Y351238D01*
X-12462536Y205159D01*
X-12366282Y79718D01*
X-12359736Y74695D01*
X-12341329Y60571D01*
X-12328938Y49703D01*
X-12142297Y-136938D01*
X-12131430Y-149328D01*
X-12112282Y-174282D01*
X-12003216Y-257971D01*
X-11986841Y-270536D01*
X-11840762Y-331044D01*
X-11684000Y-351682D01*
X-11675812Y-350604D01*
X-11652827Y-347578D01*
X-11636381Y-346500D01*
X-4684925Y-346500D01*
X-4616804Y-366502D01*
X-4595830Y-383405D01*
X-3913393Y-1065842D01*
X-3879367Y-1128154D01*
X-3876488Y-1154937D01*
X-3876488Y-7951564D01*
X-3896490Y-8019685D01*
X-3913393Y-8040659D01*
X-4057855Y-8185121D01*
X-4117535Y-8218544D01*
X-4152081Y-8226838D01*
X-4152087Y-8226840D01*
X-4159467Y-8228612D01*
X-4310130Y-8306375D01*
X-4437895Y-8417831D01*
X-4442262Y-8424045D01*
X-4529168Y-8547700D01*
X-4535386Y-8556547D01*
X-4596975Y-8714513D01*
X-4597967Y-8722046D01*
X-4597967Y-8722047D01*
X-4613433Y-8839529D01*
X-4619105Y-8882611D01*
X-4600500Y-9051135D01*
X-4542233Y-9210356D01*
X-4537997Y-9216659D01*
X-4537997Y-9216660D01*
X-4524925Y-9236113D01*
X-4447669Y-9351083D01*
X-4442057Y-9356190D01*
X-4442054Y-9356193D01*
X-4327887Y-9460077D01*
X-4327883Y-9460080D01*
X-4322266Y-9465191D01*
X-4315593Y-9468814D01*
X-4315589Y-9468817D01*
X-4179941Y-9542467D01*
X-4179939Y-9542468D01*
X-4173264Y-9546092D01*
X-4165915Y-9548020D01*
X-4016616Y-9587188D01*
X-4016614Y-9587188D01*
X-4009266Y-9589116D01*
X-3922890Y-9590473D01*
X-3847338Y-9591660D01*
X-3847335Y-9591660D01*
X-3839739Y-9591779D01*
X-3832334Y-9590083D01*
X-3832333Y-9590083D01*
X-3771913Y-9576245D01*
X-3674470Y-9553928D01*
X-3523001Y-9477747D01*
X-3394076Y-9367634D01*
X-3295138Y-9229947D01*
X-3284394Y-9203222D01*
X-3231898Y-9072634D01*
X-3229291Y-9073682D01*
X-3203825Y-9029561D01*
X-2885050Y-8710786D01*
X-2872659Y-8699918D01*
X-2854252Y-8685794D01*
X-2847706Y-8680771D01*
X-2751452Y-8555330D01*
X-2690944Y-8409251D01*
X-2675488Y-8291850D01*
X-2670306Y-8252489D01*
X-2674410Y-8221316D01*
X-2675488Y-8204870D01*
X-2675488Y-4742231D01*
X-2655486Y-4674110D01*
X-2601830Y-4627617D01*
X-2531556Y-4617513D01*
X-2489366Y-4631500D01*
X-2401941Y-4678968D01*
X-2401939Y-4678969D01*
X-2395264Y-4682593D01*
X-2387915Y-4684521D01*
X-2238616Y-4723689D01*
X-2238614Y-4723689D01*
X-2231266Y-4725617D01*
X-2144890Y-4726974D01*
X-2069338Y-4728161D01*
X-2069335Y-4728161D01*
X-2061739Y-4728280D01*
X-2054334Y-4726584D01*
X-2054333Y-4726584D01*
X-1978954Y-4709320D01*
X-1896470Y-4690429D01*
X-1745001Y-4614248D01*
X-1616076Y-4504135D01*
X-1517138Y-4366448D01*
X-1514305Y-4359401D01*
X-1456733Y-4216188D01*
X-1456732Y-4216186D01*
X-1453898Y-4209135D01*
X-1430009Y-4041279D01*
X-1429854Y-4026501D01*
X-1450223Y-3858181D01*
X-1510154Y-3699578D01*
X-1559031Y-3628462D01*
X-1601885Y-3566109D01*
X-1601886Y-3566108D01*
X-1606187Y-3559850D01*
X-1667820Y-3504937D01*
X-1705374Y-3444687D01*
X-1709999Y-3410862D01*
X-1709999Y-2476939D01*
X-1689997Y-2408818D01*
X-1673094Y-2387844D01*
X-1508569Y-2223319D01*
X-1446257Y-2189293D01*
X-1417497Y-2186430D01*
X-1372852Y-2187132D01*
X-1307337Y-2188161D01*
X-1307334Y-2188161D01*
X-1299739Y-2188280D01*
X-1292334Y-2186584D01*
X-1292333Y-2186584D01*
X-1221028Y-2170253D01*
X-1134470Y-2150429D01*
X-983001Y-2074248D01*
X-880276Y-1986512D01*
X-859848Y-1969065D01*
X-859847Y-1969064D01*
X-854076Y-1964135D01*
X-849647Y-1957972D01*
X-849642Y-1957966D01*
X-808166Y-1900246D01*
X-752172Y-1856598D01*
X-681468Y-1850152D01*
X-656715Y-1857745D01*
X-642770Y-1863650D01*
X-642755Y-1863655D01*
X-638665Y-1865387D01*
X-634372Y-1866525D01*
X-634367Y-1866527D01*
X-540025Y-1891541D01*
X-393707Y-1930336D01*
X-332988Y-1967129D01*
X-301800Y-2030908D01*
X-300000Y-2052128D01*
X-300000Y-2527905D01*
X-298938Y-2533606D01*
X-298938Y-2533609D01*
X-293207Y-2564380D01*
X-284735Y-2609870D01*
X-226091Y-2705007D01*
X-137131Y-2772654D01*
X-29782Y-2803740D01*
X25889Y-2798918D01*
X69969Y-2795101D01*
X69970Y-2795101D01*
X81560Y-2794097D01*
X92012Y-2788988D01*
X171515Y-2750126D01*
X171517Y-2750125D01*
X181966Y-2745017D01*
X257971Y-2663083D01*
X262280Y-2652281D01*
X262282Y-2652279D01*
X296090Y-2567538D01*
X299385Y-2559280D01*
X300000Y-2553007D01*
X300000Y-2050651D01*
X320002Y-1982530D01*
X373658Y-1936037D01*
X405311Y-1926362D01*
X431924Y-1921932D01*
X455880Y-1917945D01*
X455884Y-1917944D01*
X460282Y-1917212D01*
X634024Y-1862265D01*
X721581Y-1834574D01*
X721583Y-1834573D01*
X725827Y-1833231D01*
X729838Y-1831305D01*
X729843Y-1831303D01*
X972872Y-1714602D01*
X972873Y-1714601D01*
X976891Y-1712672D01*
X1013720Y-1688064D01*
X1204761Y-1560415D01*
X1204765Y-1560412D01*
X1208463Y-1557941D01*
X1415922Y-1372124D01*
X1530179Y-1236200D01*
X1592264Y-1162341D01*
X1592266Y-1162339D01*
X1595131Y-1158930D01*
X1742512Y-922613D01*
X1749388Y-907061D01*
X1790759Y-813480D01*
X1836598Y-759264D01*
X1904470Y-738436D01*
X1972829Y-757610D01*
X2019970Y-810697D01*
X2032000Y-864427D01*
X2032000Y-17654000D01*
X2043609Y-17761980D01*
X2054995Y-17814322D01*
X2089293Y-17917372D01*
X2167465Y-18039010D01*
X2213958Y-18092666D01*
X2217352Y-18095607D01*
X2240786Y-18115913D01*
X2323234Y-18187355D01*
X2454760Y-18247421D01*
X2478514Y-18254396D01*
X2518558Y-18266154D01*
X2518562Y-18266155D01*
X2522881Y-18267423D01*
X2527329Y-18268063D01*
X2527336Y-18268064D01*
X2661552Y-18287361D01*
X2661559Y-18287362D01*
X2666000Y-18288000D01*
X10288000Y-18288000D01*
X10395980Y-18276391D01*
X10399264Y-18275677D01*
X10399268Y-18275676D01*
X10424339Y-18270222D01*
X10448322Y-18265005D01*
X10551372Y-18230707D01*
X10673010Y-18152535D01*
X10726666Y-18106042D01*
X10738257Y-18092666D01*
X10815453Y-18003577D01*
X10821355Y-17996766D01*
X10881421Y-17865240D01*
X10901423Y-17797119D01*
X10902064Y-17792664D01*
X10921361Y-17658448D01*
X10921362Y-17658441D01*
X10922000Y-17654000D01*
X10922000Y-16332227D01*
X15214500Y-16332227D01*
X15214501Y-20317772D01*
X15214956Y-20321530D01*
X15214956Y-20321535D01*
X15224326Y-20398970D01*
X15225364Y-20407548D01*
X15280887Y-20547784D01*
X15372077Y-20667923D01*
X15492216Y-20759113D01*
X15574192Y-20791570D01*
X15624922Y-20811655D01*
X15624924Y-20811656D01*
X15632452Y-20814636D01*
X15722227Y-20825500D01*
X17713686Y-20825500D01*
X19707772Y-20825499D01*
X19711530Y-20825044D01*
X19711535Y-20825044D01*
X19789515Y-20815608D01*
X19797548Y-20814636D01*
X19805071Y-20811658D01*
X19805073Y-20811657D01*
X19857681Y-20790828D01*
X19937784Y-20759113D01*
X20057923Y-20667923D01*
X20149113Y-20547784D01*
X20204636Y-20407548D01*
X20215500Y-20317773D01*
X20215499Y-16332228D01*
X20215044Y-16328462D01*
X20205608Y-16250485D01*
X20204636Y-16242452D01*
X20201599Y-16234780D01*
X20180828Y-16182319D01*
X20149113Y-16102216D01*
X20057923Y-15982077D01*
X19937784Y-15890887D01*
X19855808Y-15858430D01*
X19805078Y-15838345D01*
X19805076Y-15838344D01*
X19797548Y-15835364D01*
X19707773Y-15824500D01*
X17716315Y-15824500D01*
X15722228Y-15824501D01*
X15718470Y-15824956D01*
X15718465Y-15824956D01*
X15641030Y-15834326D01*
X15632452Y-15835364D01*
X15624929Y-15838342D01*
X15624927Y-15838343D01*
X15572319Y-15859172D01*
X15492216Y-15890887D01*
X15372077Y-15982077D01*
X15280887Y-16102216D01*
X15248430Y-16184192D01*
X15228402Y-16234780D01*
X15225364Y-16242452D01*
X15214500Y-16332227D01*
X10922000Y-16332227D01*
X10922000Y-3632227D01*
X15214500Y-3632227D01*
X15214501Y-7617772D01*
X15214956Y-7621530D01*
X15214956Y-7621535D01*
X15224326Y-7698970D01*
X15225364Y-7707548D01*
X15280887Y-7847784D01*
X15372077Y-7967923D01*
X15492216Y-8059113D01*
X15574192Y-8091570D01*
X15624922Y-8111655D01*
X15624924Y-8111656D01*
X15632452Y-8114636D01*
X15722227Y-8125500D01*
X17713686Y-8125500D01*
X19707772Y-8125499D01*
X19711530Y-8125044D01*
X19711535Y-8125044D01*
X19789515Y-8115608D01*
X19797548Y-8114636D01*
X19805071Y-8111658D01*
X19805073Y-8111657D01*
X19857681Y-8090828D01*
X19937784Y-8059113D01*
X20057923Y-7967923D01*
X20149113Y-7847784D01*
X20204636Y-7707548D01*
X20215500Y-7617773D01*
X20215499Y-3632228D01*
X20215044Y-3628462D01*
X20205608Y-3550485D01*
X20204636Y-3542452D01*
X20149113Y-3402216D01*
X20057923Y-3282077D01*
X19937784Y-3190887D01*
X19855808Y-3158430D01*
X19805078Y-3138345D01*
X19805076Y-3138344D01*
X19797548Y-3135364D01*
X19707773Y-3124500D01*
X17716315Y-3124500D01*
X15722228Y-3124501D01*
X15718470Y-3124956D01*
X15718465Y-3124956D01*
X15641030Y-3134326D01*
X15632452Y-3135364D01*
X15624929Y-3138342D01*
X15624927Y-3138343D01*
X15572319Y-3159172D01*
X15492216Y-3190887D01*
X15372077Y-3282077D01*
X15280887Y-3402216D01*
X15225364Y-3542452D01*
X15214500Y-3632227D01*
X10922000Y-3632227D01*
X10922000Y-888000D01*
X10942002Y-819879D01*
X10995658Y-773386D01*
X11048000Y-762000D01*
X14606000Y-762000D01*
X14713980Y-750391D01*
X14717264Y-749677D01*
X14717268Y-749676D01*
X14742339Y-744222D01*
X14766322Y-739005D01*
X14846033Y-712475D01*
X14861891Y-707197D01*
X14861892Y-707197D01*
X14869372Y-704707D01*
X14991010Y-626535D01*
X15002939Y-616199D01*
X15041273Y-582982D01*
X15044666Y-580042D01*
X15139355Y-470766D01*
X15199421Y-339240D01*
X15208594Y-308000D01*
X15218154Y-275442D01*
X15218155Y-275438D01*
X15219423Y-271119D01*
X15220230Y-265509D01*
X15239361Y-132448D01*
X15239362Y-132441D01*
X15240000Y-128000D01*
X15240000Y4459421D01*
X15260002Y4527542D01*
X15313658Y4574035D01*
X15383932Y4584139D01*
X15430140Y4567874D01*
X15497980Y4527753D01*
X15512415Y4521506D01*
X15656332Y4479695D01*
X15668919Y4477396D01*
X15696901Y4475193D01*
X15701827Y4475000D01*
X16196885Y4475000D01*
X16212124Y4479475D01*
X16213329Y4480865D01*
X16215000Y4488548D01*
X16215000Y4493115D01*
X19215000Y4493115D01*
X19219475Y4477876D01*
X19220865Y4476671D01*
X19228548Y4475000D01*
X19728173Y4475000D01*
X19733099Y4475193D01*
X19761081Y4477396D01*
X19773668Y4479695D01*
X19917585Y4521506D01*
X19932024Y4527755D01*
X20059729Y4603279D01*
X20072165Y4612926D01*
X20177074Y4717835D01*
X20186721Y4730271D01*
X20262245Y4857976D01*
X20268494Y4872415D01*
X20310305Y5016332D01*
X20312604Y5028919D01*
X20314807Y5056901D01*
X20315000Y5061828D01*
X20315000Y5556885D01*
X20310525Y5572124D01*
X20309135Y5573329D01*
X20301452Y5575000D01*
X19233115Y5575000D01*
X19217876Y5570525D01*
X19216671Y5569135D01*
X19215000Y5561452D01*
X19215000Y4493115D01*
X16215000Y4493115D01*
X16215000Y8593115D01*
X19215000Y8593115D01*
X19219475Y8577876D01*
X19220865Y8576671D01*
X19228548Y8575000D01*
X20296885Y8575000D01*
X20312124Y8579475D01*
X20313329Y8580865D01*
X20315000Y8588548D01*
X20315000Y9088172D01*
X20314807Y9093099D01*
X20312604Y9121081D01*
X20310305Y9133668D01*
X20268494Y9277585D01*
X20262245Y9292024D01*
X20186721Y9419729D01*
X20177074Y9432165D01*
X20072165Y9537074D01*
X20059729Y9546721D01*
X19932024Y9622245D01*
X19917585Y9628494D01*
X19773668Y9670305D01*
X19761081Y9672604D01*
X19733099Y9674807D01*
X19728172Y9675000D01*
X19233115Y9675000D01*
X19217876Y9670525D01*
X19216671Y9669135D01*
X19215000Y9661452D01*
X19215000Y8593115D01*
X16215000Y8593115D01*
X16215000Y9656885D01*
X16210525Y9672124D01*
X16209135Y9673329D01*
X16201452Y9675000D01*
X15701828Y9675000D01*
X15696901Y9674807D01*
X15668919Y9672604D01*
X15656332Y9670305D01*
X15512415Y9628494D01*
X15497976Y9622245D01*
X15370271Y9546721D01*
X15357835Y9537074D01*
X15252926Y9432165D01*
X15243279Y9419729D01*
X15167755Y9292024D01*
X15161506Y9277585D01*
X15119695Y9133668D01*
X15117396Y9121081D01*
X15115193Y9093099D01*
X15115000Y9088172D01*
X15115000Y7385499D01*
X15094998Y7317378D01*
X15041342Y7270885D01*
X14971068Y7260781D01*
X14936658Y7270885D01*
X14861616Y7305155D01*
X14817240Y7325421D01*
X14793486Y7332396D01*
X14753442Y7344154D01*
X14753438Y7344155D01*
X14749119Y7345423D01*
X14744671Y7346063D01*
X14744664Y7346064D01*
X14610448Y7365361D01*
X14610441Y7365362D01*
X14606000Y7366000D01*
X2666000Y7366000D01*
X2558020Y7354391D01*
X2554736Y7353677D01*
X2554732Y7353676D01*
X2529661Y7348222D01*
X2505678Y7343005D01*
X2456656Y7326689D01*
X2417543Y7313671D01*
X2402628Y7308707D01*
X2280990Y7230535D01*
X2227334Y7184042D01*
X2224393Y7180648D01*
X2204087Y7157214D01*
X2132645Y7074766D01*
X2072579Y6943240D01*
X2071311Y6938921D01*
X2062916Y6910329D01*
X2052577Y6875119D01*
X2051937Y6870671D01*
X2051936Y6870664D01*
X2032639Y6736448D01*
X2032638Y6736441D01*
X2032000Y6732000D01*
X2032000Y874719D01*
X2011998Y806598D01*
X1958342Y760105D01*
X1888068Y750001D01*
X1823488Y779495D01*
X1795112Y814887D01*
X1762946Y874502D01*
X1664753Y1056484D01*
X1499285Y1280510D01*
X1494721Y1285147D01*
X1307033Y1475805D01*
X1303902Y1478986D01*
X1300362Y1481687D01*
X1300356Y1481693D01*
X1086044Y1645251D01*
X1086040Y1645254D01*
X1082503Y1647953D01*
X929847Y1733444D01*
X843395Y1781860D01*
X843389Y1781863D01*
X839505Y1784038D01*
X835347Y1785646D01*
X835342Y1785649D01*
X583911Y1882921D01*
X583905Y1882923D01*
X579756Y1884528D01*
X575424Y1885532D01*
X575421Y1885533D01*
X397549Y1926761D01*
X335704Y1961628D01*
X302528Y2024396D01*
X300000Y2049507D01*
X300000Y2527905D01*
X295900Y2549923D01*
X286865Y2598432D01*
X284735Y2609870D01*
X226091Y2705007D01*
X137131Y2772654D01*
X29782Y2803740D01*
X-7582Y2800504D01*
X-69969Y2795101D01*
X-69970Y2795101D01*
X-81560Y2794097D01*
X-92012Y2788988D01*
X-171515Y2750126D01*
X-171517Y2750125D01*
X-181966Y2745017D01*
X-257971Y2663083D01*
X-262280Y2652281D01*
X-262282Y2652279D01*
X-272064Y2627760D01*
X-299385Y2559280D01*
X-300000Y2553007D01*
X-300000Y2049030D01*
X-320002Y1980909D01*
X-373658Y1934416D01*
X-401418Y1925451D01*
X-454439Y1914904D01*
X-520276Y1901808D01*
X-642435Y1858909D01*
X-778846Y1811006D01*
X-778854Y1811003D01*
X-783053Y1809528D01*
X-787006Y1807475D01*
X-787012Y1807472D01*
X-869926Y1764401D01*
X-1030205Y1681142D01*
X-1033820Y1678559D01*
X-1033826Y1678555D01*
X-1253182Y1521801D01*
X-1253186Y1521798D01*
X-1256803Y1519213D01*
X-1458323Y1326972D01*
X-1630746Y1108254D01*
X-1632978Y1104412D01*
X-1632981Y1104407D01*
X-1768394Y871278D01*
X-1768397Y871271D01*
X-1770632Y867424D01*
X-1813333Y762000D01*
X-1860746Y644943D01*
X-1875189Y609286D01*
X-1920717Y426000D01*
X-1928262Y395625D01*
X-1964096Y334335D01*
X-2027378Y302148D01*
X-2050546Y300000D01*
X-2527905Y300000D01*
X-2533606Y298938D01*
X-2533609Y298938D01*
X-2573338Y291539D01*
X-2609870Y284735D01*
X-2619774Y278630D01*
X-2669743Y247828D01*
X-2719875Y230443D01*
X-2724604Y230468D01*
X-2731992Y228694D01*
X-2731994Y228694D01*
X-2868698Y195873D01*
X-2889467Y190887D01*
X-2896211Y187406D01*
X-2896214Y187405D01*
X-3033382Y116607D01*
X-3040130Y113124D01*
X-3140374Y25676D01*
X-3204854Y-4031D01*
X-3275161Y5839D01*
X-3312296Y31531D01*
X-3925708Y644943D01*
X-3936568Y657325D01*
X-3955718Y682282D01*
X-4081159Y778536D01*
X-4227238Y839044D01*
X-4344639Y854500D01*
X-4384000Y859682D01*
X-4392188Y858604D01*
X-4415173Y855578D01*
X-4431619Y854500D01*
X-7754829Y854500D01*
X-7822950Y874502D01*
X-7869443Y928158D01*
X-7879547Y998432D01*
X-7872617Y1025244D01*
X-7871891Y1027153D01*
X-7862237Y1052568D01*
X-7858243Y1063082D01*
X-7858242Y1063084D01*
X-7855743Y1069664D01*
X-7850860Y1104407D01*
X-7831300Y1243584D01*
X-7831300Y1243589D01*
X-7830749Y1247507D01*
X-7830435Y1270000D01*
X-7850454Y1448472D01*
X-7856573Y1466045D01*
X-7907197Y1611416D01*
X-7909515Y1618073D01*
X-7921973Y1638011D01*
X-8000951Y1764401D01*
X-8004684Y1770375D01*
X-8008490Y1774208D01*
X-8034883Y1839415D01*
X-8035500Y1851869D01*
X-8035500Y2721168D01*
X-8014448Y2790895D01*
X-7978953Y2844320D01*
X-7919517Y2933778D01*
X-7882648Y3030835D01*
X-7858243Y3095081D01*
X-7858242Y3095086D01*
X-7855743Y3101664D01*
X-7852065Y3127831D01*
X-7831300Y3275584D01*
X-7831300Y3275589D01*
X-7830749Y3279507D01*
X-7830435Y3302000D01*
X-7850454Y3480472D01*
X-7856573Y3498045D01*
X-7907197Y3643416D01*
X-7909515Y3650073D01*
X-8004684Y3802375D01*
X-8068229Y3866365D01*
X-8126267Y3924810D01*
X-8126271Y3924813D01*
X-8131230Y3929807D01*
X-8142239Y3936794D01*
X-8189140Y3966558D01*
X-8282864Y4026037D01*
X-8312648Y4036643D01*
X-8445414Y4083919D01*
X-8445419Y4083920D01*
X-8452049Y4086281D01*
X-8459035Y4087114D01*
X-8459039Y4087115D01*
X-8586823Y4102352D01*
X-8630376Y4107545D01*
X-8637379Y4106809D01*
X-8637380Y4106809D01*
X-8801975Y4089510D01*
X-8801979Y4089509D01*
X-8808983Y4088773D01*
X-8815654Y4086502D01*
X-8972323Y4033168D01*
X-8972326Y4033167D01*
X-8978993Y4030897D01*
X-8984991Y4027207D01*
X-8984993Y4027206D01*
X-9055474Y3983846D01*
X-9131955Y3936794D01*
X-9136986Y3931868D01*
X-9136989Y3931865D01*
X-9144193Y3924810D01*
X-9260268Y3811141D01*
X-9264087Y3805216D01*
X-9264088Y3805214D01*
X-9353735Y3666109D01*
X-9357554Y3660183D01*
X-9418978Y3491422D01*
X-9441486Y3313247D01*
X-9440799Y3306240D01*
X-9440799Y3306237D01*
X-9439995Y3298037D01*
X-9423961Y3134514D01*
X-9421738Y3127832D01*
X-9421738Y3127831D01*
X-9383970Y3014296D01*
X-9367274Y2964104D01*
X-9363627Y2958082D01*
X-9329263Y2901341D01*
X-9274241Y2810488D01*
X-9269351Y2805424D01*
X-9265049Y2799838D01*
X-9266852Y2798450D01*
X-9238933Y2745142D01*
X-9236500Y2720499D01*
X-9236500Y1851907D01*
X-9256502Y1783786D01*
X-9258901Y1780479D01*
X-9260268Y1779141D01*
X-9263410Y1774265D01*
X-9263414Y1774260D01*
X-9343411Y1650128D01*
X-9357554Y1628183D01*
X-9359963Y1621563D01*
X-9359965Y1621560D01*
X-9388266Y1543803D01*
X-9418978Y1459422D01*
X-9441486Y1281247D01*
X-9440799Y1274240D01*
X-9440799Y1274237D01*
X-9438083Y1246543D01*
X-9423961Y1102514D01*
X-9421738Y1095832D01*
X-9421738Y1095831D01*
X-9396603Y1020271D01*
X-9394081Y949319D01*
X-9430319Y888267D01*
X-9493811Y856498D01*
X-9516162Y854500D01*
X-11211500Y854500D01*
X-11279621Y874502D01*
X-11326114Y928158D01*
X-11337500Y980500D01*
X-11337500Y13059107D01*
X-11322283Y13118373D01*
X-11319639Y13122053D01*
X-11314297Y13135340D01*
X-11259234Y13272313D01*
X-11259233Y13272315D01*
X-11256399Y13279366D01*
X-11232510Y13447222D01*
X-11232355Y13462000D01*
X-11234160Y13476920D01*
X-11251812Y13622780D01*
X-11252724Y13630320D01*
X-11312655Y13788923D01*
X-11408688Y13928651D01*
X-11420486Y13939163D01*
X-11529608Y14036388D01*
X-11529612Y14036390D01*
X-11535279Y14041440D01*
X-11685119Y14120776D01*
X-11849559Y14162081D01*
X-11857157Y14162121D01*
X-11857159Y14162121D01*
X-11934332Y14162525D01*
X-12019105Y14162969D01*
X-12026492Y14161195D01*
X-12026496Y14161195D01*
X-12169838Y14126780D01*
X-12183968Y14123388D01*
X-12190712Y14119907D01*
X-12190715Y14119906D01*
X-12195911Y14117224D01*
X-12334631Y14045625D01*
X-12462396Y13934169D01*
X-12559887Y13795453D01*
X-12621476Y13637487D01*
X-12643606Y13469389D01*
X-14428524Y13469389D01*
X-14428524Y15235405D01*
X-14427446Y15251851D01*
X-14424420Y15274836D01*
X-14423342Y15283024D01*
X-14443980Y15439786D01*
X-14504488Y15585865D01*
X-14564523Y15664104D01*
X-14600742Y15711306D01*
X-14613229Y15720888D01*
X-14625695Y15730453D01*
X-14638086Y15741321D01*
X-14910012Y16013247D01*
X-13505486Y16013247D01*
X-13487961Y15834514D01*
X-13485738Y15827832D01*
X-13485738Y15827831D01*
X-13473274Y15790364D01*
X-13431274Y15664104D01*
X-13427627Y15658082D01*
X-13387859Y15592418D01*
X-13338241Y15510488D01*
X-13213486Y15381301D01*
X-13063211Y15282964D01*
X-12894884Y15220364D01*
X-12851758Y15214610D01*
X-12835835Y15212485D01*
X-12770958Y15183649D01*
X-12731970Y15124315D01*
X-12726500Y15087592D01*
X-12726500Y14707354D01*
X-12723382Y14681154D01*
X-12677939Y14578847D01*
X-12598713Y14499759D01*
X-12588076Y14495056D01*
X-12588074Y14495055D01*
X-12528538Y14468735D01*
X-12496327Y14454494D01*
X-12470646Y14451500D01*
X-9881354Y14451500D01*
X-9877650Y14451941D01*
X-9877647Y14451941D01*
X-9870254Y14452821D01*
X-9855154Y14454618D01*
X-9752847Y14500061D01*
X-9673759Y14579287D01*
X-9628494Y14681673D01*
X-9625500Y14707354D01*
X-9625500Y17296646D01*
X-9628618Y17322846D01*
X-9633535Y17333917D01*
X-9669337Y17414518D01*
X-9674061Y17425153D01*
X-9753287Y17504241D01*
X-9763924Y17508944D01*
X-9763926Y17508945D01*
X-9823462Y17535265D01*
X-9855673Y17549506D01*
X-9881354Y17552500D01*
X-12470646Y17552500D01*
X-12474350Y17552059D01*
X-12474353Y17552059D01*
X-12479587Y17551436D01*
X-12496846Y17549382D01*
X-12599153Y17503939D01*
X-12678241Y17424713D01*
X-12682944Y17414076D01*
X-12682945Y17414074D01*
X-12702398Y17370072D01*
X-12723506Y17322327D01*
X-12726500Y17296646D01*
X-12726500Y16917620D01*
X-12746502Y16849499D01*
X-12800158Y16803006D01*
X-12839330Y16792310D01*
X-12847797Y16791420D01*
X-12865982Y16789509D01*
X-12865983Y16789509D01*
X-12872983Y16788773D01*
X-12962455Y16758314D01*
X-13036323Y16733168D01*
X-13036326Y16733167D01*
X-13042993Y16730897D01*
X-13048991Y16727207D01*
X-13048993Y16727206D01*
X-13119474Y16683845D01*
X-13195955Y16636794D01*
X-13200986Y16631868D01*
X-13200989Y16631865D01*
X-13263117Y16571024D01*
X-13324268Y16511141D01*
X-13421554Y16360183D01*
X-13423963Y16353563D01*
X-13423965Y16353560D01*
X-13448108Y16287227D01*
X-13482978Y16191422D01*
X-13505486Y16013247D01*
X-14910012Y16013247D01*
X-15797703Y16900938D01*
X-15808571Y16913329D01*
X-15822695Y16931736D01*
X-15827718Y16938282D01*
X-15953159Y17034536D01*
X-16099238Y17095044D01*
X-16216639Y17110500D01*
X-16256000Y17115682D01*
X-16264188Y17114604D01*
X-16287173Y17111578D01*
X-16303619Y17110500D01*
X-20246149Y17110500D01*
X-20314270Y17130502D01*
X-20320260Y17134817D01*
X-20323230Y17137807D01*
X-20329178Y17141581D01*
X-20329182Y17141585D01*
X-20414568Y17195772D01*
X-20474864Y17234037D01*
X-20504648Y17244643D01*
X-20637414Y17291919D01*
X-20637419Y17291920D01*
X-20644049Y17294281D01*
X-20651035Y17295114D01*
X-20651039Y17295115D01*
X-20778823Y17310352D01*
X-20822376Y17315545D01*
X-20829379Y17314809D01*
X-20829380Y17314809D01*
X-20993975Y17297510D01*
X-20993979Y17297509D01*
X-21000983Y17296773D01*
X-21007654Y17294502D01*
X-21164323Y17241168D01*
X-21164326Y17241167D01*
X-21170993Y17238897D01*
X-21176991Y17235207D01*
X-21176993Y17235206D01*
X-21247474Y17191845D01*
X-21323955Y17144794D01*
X-21328986Y17139868D01*
X-21328989Y17139865D01*
X-21374758Y17095044D01*
X-21452268Y17019141D01*
X-21549554Y16868183D01*
X-21551963Y16861563D01*
X-21551965Y16861560D01*
X-21577170Y16792310D01*
X-21610978Y16699422D01*
X-21633486Y16521247D01*
X-22259500Y16521247D01*
X-22259500Y18041389D01*
X-8579606Y18041389D01*
X-8561001Y17872865D01*
X-8502734Y17713644D01*
X-8498498Y17707341D01*
X-8498498Y17707340D01*
X-8485426Y17687887D01*
X-8408170Y17572917D01*
X-8402558Y17567810D01*
X-8402555Y17567807D01*
X-8288388Y17463923D01*
X-8288384Y17463920D01*
X-8282767Y17458809D01*
X-8276094Y17455186D01*
X-8276090Y17455183D01*
X-8140442Y17381533D01*
X-8140440Y17381532D01*
X-8133765Y17377908D01*
X-8126416Y17375980D01*
X-7977117Y17336812D01*
X-7977115Y17336812D01*
X-7969767Y17334884D01*
X-7883391Y17333527D01*
X-7807839Y17332340D01*
X-7807836Y17332340D01*
X-7800240Y17332221D01*
X-7792835Y17333917D01*
X-7792834Y17333917D01*
X-7732414Y17347755D01*
X-7634971Y17370072D01*
X-7483502Y17446253D01*
X-7358154Y17553311D01*
X-7293364Y17582342D01*
X-7276323Y17583500D01*
X-3896546Y17583500D01*
X-3828425Y17563498D01*
X-3811746Y17550693D01*
X-3716388Y17463923D01*
X-3716384Y17463920D01*
X-3710767Y17458809D01*
X-3704094Y17455186D01*
X-3704090Y17455183D01*
X-3568442Y17381533D01*
X-3568440Y17381532D01*
X-3561765Y17377908D01*
X-3554416Y17375980D01*
X-3405117Y17336812D01*
X-3405115Y17336812D01*
X-3397767Y17334884D01*
X-3311391Y17333527D01*
X-3235839Y17332340D01*
X-3235836Y17332340D01*
X-3228240Y17332221D01*
X-3220835Y17333917D01*
X-3220834Y17333917D01*
X-3160414Y17347755D01*
X-3062971Y17370072D01*
X-2911502Y17446253D01*
X-2789446Y17550499D01*
X-2788349Y17551436D01*
X-2788348Y17551437D01*
X-2782577Y17556366D01*
X-2683639Y17694053D01*
X-2675763Y17713644D01*
X-2623234Y17844313D01*
X-2623233Y17844315D01*
X-2620399Y17851366D01*
X-2596510Y18019222D01*
X-2596355Y18034000D01*
X-2598160Y18048920D01*
X-2615812Y18194780D01*
X-2616724Y18202320D01*
X-2676655Y18360923D01*
X-2685416Y18373670D01*
X-2768386Y18494392D01*
X-2768387Y18494393D01*
X-2772688Y18500651D01*
X-2790391Y18516424D01*
X-2893608Y18608388D01*
X-2893612Y18608390D01*
X-2899279Y18613440D01*
X-3049119Y18692776D01*
X-3213559Y18734081D01*
X-3221157Y18734121D01*
X-3221159Y18734121D01*
X-3298332Y18734525D01*
X-3383105Y18734969D01*
X-3390492Y18733195D01*
X-3390496Y18733195D01*
X-3533838Y18698780D01*
X-3547968Y18695388D01*
X-3554712Y18691907D01*
X-3554715Y18691906D01*
X-3559911Y18689224D01*
X-3698631Y18617625D01*
X-3704353Y18612633D01*
X-3704355Y18612632D01*
X-3815641Y18515551D01*
X-3880123Y18485843D01*
X-3898470Y18484500D01*
X-7278572Y18484500D01*
X-7346693Y18504502D01*
X-7362391Y18516424D01*
X-7465608Y18608387D01*
X-7465609Y18608388D01*
X-7471279Y18613440D01*
X-7621119Y18692776D01*
X-7785559Y18734081D01*
X-7793157Y18734121D01*
X-7793159Y18734121D01*
X-7870332Y18734525D01*
X-7955105Y18734969D01*
X-7962492Y18733195D01*
X-7962496Y18733195D01*
X-8105838Y18698780D01*
X-8119968Y18695388D01*
X-8126712Y18691907D01*
X-8126715Y18691906D01*
X-8131911Y18689224D01*
X-8270631Y18617625D01*
X-8398396Y18506169D01*
X-8495887Y18367453D01*
X-8557476Y18209487D01*
X-8579606Y18041389D01*
X-22259500Y18041389D01*
X-22259500Y19170475D01*
X-12723499Y19170475D01*
X-12722724Y19160626D01*
X-12710217Y19081649D01*
X-12704162Y19063014D01*
X-12655641Y18967787D01*
X-12644130Y18951944D01*
X-12568556Y18876370D01*
X-12552713Y18864859D01*
X-12457482Y18816336D01*
X-12438855Y18810284D01*
X-12359873Y18797775D01*
X-12350027Y18797000D01*
X-11291615Y18797000D01*
X-11276376Y18801475D01*
X-11275171Y18802865D01*
X-11273500Y18810548D01*
X-11273500Y18815116D01*
X-10873500Y18815116D01*
X-10869025Y18799877D01*
X-10867635Y18798672D01*
X-10859952Y18797001D01*
X-9796975Y18797001D01*
X-9787126Y18797776D01*
X-9708149Y18810283D01*
X-9689514Y18816338D01*
X-9594287Y18864859D01*
X-9578444Y18876370D01*
X-9502870Y18951944D01*
X-9491359Y18967787D01*
X-9442836Y19063018D01*
X-9436784Y19081645D01*
X-9424275Y19160627D01*
X-9423500Y19170473D01*
X-9423500Y20117354D01*
X-6970177Y20117354D01*
X-6967059Y20091154D01*
X-6921616Y19988847D01*
X-6842390Y19909759D01*
X-6831753Y19905056D01*
X-6831751Y19905055D01*
X-6815141Y19897712D01*
X-6740004Y19864494D01*
X-6714323Y19861500D01*
X-4625031Y19861500D01*
X-4621327Y19861941D01*
X-4621324Y19861941D01*
X-4613931Y19862821D01*
X-4598831Y19864618D01*
X-4524325Y19897712D01*
X-4507159Y19905337D01*
X-4496524Y19910061D01*
X-4417436Y19989287D01*
X-4399455Y20029957D01*
X-4395473Y20038964D01*
X-1503836Y20038964D01*
X-1496692Y20028904D01*
X-1479411Y20014557D01*
X-1470977Y20008651D01*
X-1281128Y19897712D01*
X-1271845Y19893265D01*
X-1066434Y19814826D01*
X-1056536Y19811950D01*
X-841072Y19768114D01*
X-830844Y19766895D01*
X-611115Y19758837D01*
X-600829Y19759304D01*
X-382731Y19787243D01*
X-372653Y19789385D01*
X-162052Y19852569D01*
X-152454Y19856330D01*
X45005Y19953064D01*
X53843Y19958333D01*
X154257Y20029957D01*
X162657Y20040656D01*
X155668Y20053812D01*
X-63293Y20272773D01*
X15214500Y20272773D01*
X15214501Y16287228D01*
X15214956Y16283470D01*
X15214956Y16283465D01*
X15224326Y16206030D01*
X15225364Y16197452D01*
X15228342Y16189929D01*
X15228343Y16189927D01*
X15235400Y16172104D01*
X15280887Y16057216D01*
X15372077Y15937077D01*
X15492216Y15845887D01*
X15537821Y15827831D01*
X15624922Y15793345D01*
X15624924Y15793344D01*
X15632452Y15790364D01*
X15722227Y15779500D01*
X17713686Y15779500D01*
X19707772Y15779501D01*
X19711530Y15779956D01*
X19711535Y15779956D01*
X19789515Y15789392D01*
X19797548Y15790364D01*
X19805071Y15793342D01*
X19805073Y15793343D01*
X19892179Y15827831D01*
X19937784Y15845887D01*
X20057923Y15937077D01*
X20149113Y16057216D01*
X20194600Y16172104D01*
X20201655Y16189922D01*
X20201656Y16189924D01*
X20204636Y16197452D01*
X20215500Y16287227D01*
X20215499Y20272772D01*
X20215044Y20276538D01*
X20205608Y20354515D01*
X20204636Y20362548D01*
X20149113Y20502784D01*
X20057923Y20622923D01*
X19937784Y20714113D01*
X19854847Y20746950D01*
X19805078Y20766655D01*
X19805076Y20766656D01*
X19797548Y20769636D01*
X19707773Y20780500D01*
X17716315Y20780500D01*
X15722228Y20780499D01*
X15718470Y20780044D01*
X15718465Y20780044D01*
X15641030Y20770674D01*
X15632452Y20769636D01*
X15624929Y20766658D01*
X15624927Y20766657D01*
X15575153Y20746950D01*
X15492216Y20714113D01*
X15372077Y20622923D01*
X15280887Y20502784D01*
X15225364Y20362548D01*
X15214500Y20272773D01*
X-63293Y20272773D01*
X-656865Y20866345D01*
X-670809Y20873959D01*
X-672642Y20873828D01*
X-679257Y20869577D01*
X-1496577Y20052257D01*
X-1503836Y20038964D01*
X-4395473Y20038964D01*
X-4376002Y20083008D01*
X-4372171Y20091673D01*
X-4369177Y20117354D01*
X-4369177Y21191166D01*
X-2073759Y21191166D01*
X-2061102Y20971659D01*
X-2059666Y20961438D01*
X-2011328Y20746950D01*
X-2008249Y20737122D01*
X-1925524Y20533395D01*
X-1920881Y20524204D01*
X-1805995Y20336727D01*
X-1803765Y20333681D01*
X-1792278Y20326297D01*
X-1782309Y20332211D01*
X-965332Y21149188D01*
X-958954Y21160868D01*
X-381636Y21160868D01*
X-381505Y21159035D01*
X-377254Y21152420D01*
X438962Y20336204D01*
X450972Y20329645D01*
X462711Y20338613D01*
X531452Y20434276D01*
X536763Y20443115D01*
X634177Y20640218D01*
X637976Y20649813D01*
X701891Y20860179D01*
X704070Y20870260D01*
X733007Y21090055D01*
X733526Y21096728D01*
X735039Y21158635D01*
X734845Y21165354D01*
X716682Y21386279D01*
X714997Y21396459D01*
X661434Y21609700D01*
X658109Y21619466D01*
X570441Y21821089D01*
X565563Y21830186D01*
X463763Y21987547D01*
X453077Y21996749D01*
X443512Y21992346D01*
X-374022Y21174812D01*
X-381636Y21160868D01*
X-958954Y21160868D01*
X-957718Y21163132D01*
X-957849Y21164965D01*
X-962100Y21171580D01*
X-1779085Y21988565D01*
X-1790621Y21994865D01*
X-1802904Y21985241D01*
X-1888223Y21860169D01*
X-1893321Y21851194D01*
X-1985891Y21651769D01*
X-1989454Y21642082D01*
X-2048210Y21430217D01*
X-2050141Y21420096D01*
X-2073508Y21201454D01*
X-2073759Y21191166D01*
X-4369177Y21191166D01*
X-4369177Y22206646D01*
X-4372295Y22232846D01*
X-4390999Y22274956D01*
X-4394494Y22282824D01*
X-1502072Y22282824D01*
X-1495327Y22270493D01*
X-682489Y21457655D01*
X-668545Y21450041D01*
X-666712Y21450172D01*
X-660097Y21454423D01*
X156286Y22270806D01*
X163306Y22283662D01*
X155531Y22294332D01*
X111789Y22328878D01*
X103196Y22334587D01*
X-89284Y22440842D01*
X-98696Y22445072D01*
X-305952Y22518466D01*
X-315922Y22521100D01*
X-532384Y22559656D01*
X-542638Y22560626D01*
X-762501Y22563313D01*
X-772786Y22562593D01*
X-990124Y22529336D01*
X-1000151Y22526947D01*
X-1209139Y22458640D01*
X-1218648Y22454643D01*
X-1413668Y22353121D01*
X-1422403Y22347620D01*
X-1493618Y22294150D01*
X-1502072Y22282824D01*
X-4394494Y22282824D01*
X-4413014Y22324518D01*
X-4417738Y22335153D01*
X-4430226Y22347620D01*
X-4488732Y22406023D01*
X-4496964Y22414241D01*
X-4507601Y22418944D01*
X-4507603Y22418945D01*
X-4567139Y22445265D01*
X-4599350Y22459506D01*
X-4625031Y22462500D01*
X-6714323Y22462500D01*
X-6718027Y22462059D01*
X-6718030Y22462059D01*
X-6725423Y22461179D01*
X-6740523Y22459382D01*
X-6749163Y22455544D01*
X-6749164Y22455544D01*
X-6802804Y22431718D01*
X-6842830Y22413939D01*
X-6921918Y22334713D01*
X-6926621Y22324076D01*
X-6926622Y22324074D01*
X-6939851Y22294150D01*
X-6967183Y22232327D01*
X-6970177Y22206646D01*
X-6970177Y20117354D01*
X-9423500Y20117354D01*
X-9423500Y20228885D01*
X-9427975Y20244124D01*
X-9429365Y20245329D01*
X-9437048Y20247000D01*
X-10855385Y20247000D01*
X-10870624Y20242525D01*
X-10871829Y20241135D01*
X-10873500Y20233452D01*
X-10873500Y18815116D01*
X-11273500Y18815116D01*
X-11273500Y20228885D01*
X-11277975Y20244124D01*
X-11279365Y20245329D01*
X-11287048Y20247000D01*
X-12705384Y20247000D01*
X-12720623Y20242525D01*
X-12721828Y20241135D01*
X-12723499Y20233452D01*
X-12723499Y19170475D01*
X-22259500Y19170475D01*
X-22259500Y20665115D01*
X-12723500Y20665115D01*
X-12719025Y20649876D01*
X-12717635Y20648671D01*
X-12709952Y20647000D01*
X-11291615Y20647000D01*
X-11276376Y20651475D01*
X-11275171Y20652865D01*
X-11273500Y20660548D01*
X-11273500Y20665115D01*
X-10873500Y20665115D01*
X-10869025Y20649876D01*
X-10867635Y20648671D01*
X-10859952Y20647000D01*
X-9441616Y20647000D01*
X-9426377Y20651475D01*
X-9425172Y20652865D01*
X-9423501Y20660548D01*
X-9423501Y21723525D01*
X-9424276Y21733374D01*
X-9436783Y21812351D01*
X-9442838Y21830986D01*
X-9491359Y21926213D01*
X-9502870Y21942056D01*
X-9578444Y22017630D01*
X-9594287Y22029141D01*
X-9689518Y22077664D01*
X-9708145Y22083716D01*
X-9787127Y22096225D01*
X-9796973Y22097000D01*
X-10855385Y22097000D01*
X-10870624Y22092525D01*
X-10871829Y22091135D01*
X-10873500Y22083452D01*
X-10873500Y20665115D01*
X-11273500Y20665115D01*
X-11273500Y22078884D01*
X-11277975Y22094123D01*
X-11279365Y22095328D01*
X-11287048Y22096999D01*
X-12350025Y22096999D01*
X-12359874Y22096224D01*
X-12438851Y22083717D01*
X-12457486Y22077662D01*
X-12552713Y22029141D01*
X-12568556Y22017630D01*
X-12644130Y21942056D01*
X-12655641Y21926213D01*
X-12704164Y21830982D01*
X-12710216Y21812355D01*
X-12722725Y21733373D01*
X-12723500Y21723527D01*
X-12723500Y20665115D01*
X-22259500Y20665115D01*
X-22259500Y21924075D01*
X-22239498Y21992196D01*
X-22222595Y22013170D01*
X-22013170Y22222595D01*
X-21950858Y22256621D01*
X-21924075Y22259500D01*
X-13382619Y22259500D01*
X-13366173Y22258422D01*
X-13335000Y22254318D01*
X-13326812Y22255396D01*
X-13295639Y22259500D01*
X-13258715Y22264361D01*
X-13186426Y22273878D01*
X-13178238Y22274956D01*
X-13032159Y22335464D01*
X-12971822Y22381762D01*
X-12906718Y22431718D01*
X-12887570Y22456672D01*
X-12876703Y22469062D01*
X-12563062Y22782703D01*
X-12550671Y22793571D01*
X-12532264Y22807695D01*
X-12525718Y22812718D01*
X-12429464Y22938159D01*
X-12368956Y23084238D01*
X-12358067Y23166947D01*
X-12329344Y23231874D01*
X-12270079Y23270965D01*
X-12233145Y23276500D01*
X-9778854Y23276500D01*
X-9775150Y23276941D01*
X-9775147Y23276941D01*
X-9767754Y23277821D01*
X-9752654Y23279618D01*
X-9733148Y23288282D01*
X-9660982Y23320337D01*
X-9650347Y23325061D01*
X-9637862Y23337567D01*
X-9587821Y23387696D01*
X-9571259Y23404287D01*
X-9552763Y23446122D01*
X-9529825Y23498008D01*
X-9525994Y23506673D01*
X-9524399Y23520354D01*
X5065541Y23520354D01*
X5068659Y23494154D01*
X5072497Y23485514D01*
X5072497Y23485513D01*
X5108576Y23404287D01*
X5114102Y23391847D01*
X5122335Y23383628D01*
X5122336Y23383627D01*
X5153876Y23352142D01*
X5193328Y23312759D01*
X5203965Y23308056D01*
X5203967Y23308055D01*
X5237322Y23293309D01*
X5295714Y23267494D01*
X5321395Y23264500D01*
X7810687Y23264500D01*
X7814391Y23264941D01*
X7814394Y23264941D01*
X7821787Y23265821D01*
X7836887Y23267618D01*
X7856884Y23276500D01*
X7928559Y23308337D01*
X7939194Y23313061D01*
X8018282Y23392287D01*
X8023588Y23404287D01*
X8059716Y23486008D01*
X8063547Y23494673D01*
X8064065Y23499116D01*
X10589142Y23499116D01*
X10595931Y23489411D01*
X10618910Y23469786D01*
X10626895Y23463985D01*
X10833190Y23337567D01*
X10841984Y23333086D01*
X11065512Y23240498D01*
X11074897Y23237449D01*
X11310159Y23180967D01*
X11319906Y23179424D01*
X11561111Y23160440D01*
X11570971Y23160440D01*
X11812176Y23179424D01*
X11821923Y23180967D01*
X12057185Y23237449D01*
X12066570Y23240498D01*
X12290098Y23333086D01*
X12298892Y23337567D01*
X12505187Y23463985D01*
X12513172Y23469786D01*
X12534584Y23488073D01*
X12543013Y23500986D01*
X12537006Y23511193D01*
X11578853Y24469345D01*
X11564909Y24476959D01*
X11563075Y24476828D01*
X11556463Y24472579D01*
X10596532Y23512649D01*
X10589142Y23499116D01*
X8064065Y23499116D01*
X8066541Y23520354D01*
X8066541Y24760070D01*
X9961481Y24760070D01*
X9980465Y24518865D01*
X9982008Y24509118D01*
X10038490Y24273856D01*
X10041539Y24264471D01*
X10134127Y24040943D01*
X10138608Y24032149D01*
X10265026Y23825854D01*
X10270827Y23817869D01*
X10289114Y23796457D01*
X10302027Y23788028D01*
X10312234Y23794035D01*
X11270386Y24752188D01*
X11276764Y24763868D01*
X11854082Y24763868D01*
X11854213Y24762034D01*
X11858462Y24755422D01*
X12818392Y23795491D01*
X12831925Y23788101D01*
X12841630Y23794890D01*
X12861255Y23817869D01*
X12867056Y23825854D01*
X12993474Y24032149D01*
X12997955Y24040943D01*
X13090543Y24264471D01*
X13093592Y24273856D01*
X13103127Y24313572D01*
X16602351Y24313572D01*
X16609809Y24303203D01*
X16878493Y24085628D01*
X16883844Y24081740D01*
X17194761Y23879828D01*
X17200471Y23876531D01*
X17530799Y23708221D01*
X17536824Y23705539D01*
X17882922Y23572684D01*
X17889204Y23570643D01*
X18247302Y23474692D01*
X18253752Y23473321D01*
X18619933Y23415322D01*
X18626471Y23414636D01*
X18996699Y23395233D01*
X19003301Y23395233D01*
X19373529Y23414636D01*
X19380067Y23415322D01*
X19746248Y23473321D01*
X19752698Y23474692D01*
X20110796Y23570643D01*
X20117078Y23572684D01*
X20463176Y23705539D01*
X20469201Y23708221D01*
X20799529Y23876531D01*
X20805239Y23879828D01*
X21116156Y24081740D01*
X21121507Y24085628D01*
X21389240Y24302434D01*
X21397708Y24314692D01*
X21391375Y24325782D01*
X19012812Y26704345D01*
X18998868Y26711959D01*
X18997035Y26711828D01*
X18990420Y26707577D01*
X16609491Y24326648D01*
X16602351Y24313572D01*
X13103127Y24313572D01*
X13150074Y24509118D01*
X13151617Y24518865D01*
X13170601Y24760070D01*
X13170601Y24769930D01*
X13151617Y25011135D01*
X13150074Y25020882D01*
X13093592Y25256144D01*
X13090543Y25265529D01*
X12997955Y25489057D01*
X12993474Y25497851D01*
X12867056Y25704146D01*
X12861255Y25712131D01*
X12842968Y25733543D01*
X12830055Y25741972D01*
X12819848Y25735965D01*
X11861696Y24777812D01*
X11854082Y24763868D01*
X11276764Y24763868D01*
X11278000Y24766132D01*
X11277869Y24767966D01*
X11273620Y24774578D01*
X10313690Y25734509D01*
X10300157Y25741899D01*
X10290452Y25735110D01*
X10270827Y25712131D01*
X10265026Y25704146D01*
X10138608Y25497851D01*
X10134127Y25489057D01*
X10041539Y25265529D01*
X10038490Y25256144D01*
X9982008Y25020882D01*
X9980465Y25011135D01*
X9961481Y24769930D01*
X9961481Y24760070D01*
X8066541Y24760070D01*
X8066541Y26009646D01*
X8064236Y26029014D01*
X10589069Y26029014D01*
X10595076Y26018807D01*
X11553229Y25060655D01*
X11567173Y25053041D01*
X11569007Y25053172D01*
X11575619Y25057421D01*
X12535550Y26017351D01*
X12542940Y26030884D01*
X12536151Y26040589D01*
X12513172Y26060214D01*
X12505187Y26066015D01*
X12298892Y26192433D01*
X12290098Y26196914D01*
X12066570Y26289502D01*
X12057185Y26292551D01*
X11821923Y26349033D01*
X11812176Y26350576D01*
X11570971Y26369560D01*
X11561111Y26369560D01*
X11319906Y26350576D01*
X11310159Y26349033D01*
X11074897Y26292551D01*
X11065512Y26289502D01*
X10841984Y26196914D01*
X10833190Y26192433D01*
X10626895Y26066015D01*
X10618910Y26060214D01*
X10597498Y26041927D01*
X10589069Y26029014D01*
X8064236Y26029014D01*
X8063423Y26035846D01*
X8050023Y26066015D01*
X8022704Y26127518D01*
X8017980Y26138153D01*
X7938754Y26217241D01*
X7928117Y26221944D01*
X7928115Y26221945D01*
X7865305Y26249713D01*
X7836368Y26262506D01*
X7810687Y26265500D01*
X5321395Y26265500D01*
X5317691Y26265059D01*
X5317688Y26265059D01*
X5310295Y26264179D01*
X5295195Y26262382D01*
X5286555Y26258544D01*
X5286554Y26258544D01*
X5242721Y26239074D01*
X5192888Y26216939D01*
X5113800Y26137713D01*
X5109097Y26127076D01*
X5109096Y26127074D01*
X5082776Y26067538D01*
X5068535Y26035327D01*
X5065541Y26009646D01*
X5065541Y23520354D01*
X-9524399Y23520354D01*
X-9523000Y23532354D01*
X-9523000Y26121646D01*
X-9526118Y26147846D01*
X-9553150Y26208705D01*
X-9566837Y26239518D01*
X-9571561Y26250153D01*
X-9579966Y26258544D01*
X-9642555Y26321023D01*
X-9650787Y26329241D01*
X-9661424Y26333944D01*
X-9661426Y26333945D01*
X-9741986Y26369560D01*
X-9753173Y26374506D01*
X-9778854Y26377500D01*
X-12368146Y26377500D01*
X-12371850Y26377059D01*
X-12371853Y26377059D01*
X-12379246Y26376179D01*
X-12394346Y26374382D01*
X-12496653Y26328939D01*
X-12575741Y26249713D01*
X-12580444Y26239076D01*
X-12580445Y26239074D01*
X-12593730Y26209023D01*
X-12621006Y26147327D01*
X-12624000Y26121646D01*
X-12624000Y25800192D01*
X-12644002Y25732071D01*
X-12697658Y25685578D01*
X-12767826Y25675489D01*
X-12770049Y25676281D01*
X-12775898Y25676978D01*
X-12775901Y25676979D01*
X-12871895Y25688425D01*
X-12948376Y25697545D01*
X-12955379Y25696809D01*
X-12955380Y25696809D01*
X-13119975Y25679510D01*
X-13119979Y25679509D01*
X-13126983Y25678773D01*
X-13133654Y25676502D01*
X-13290323Y25623168D01*
X-13290326Y25623167D01*
X-13296993Y25620897D01*
X-13449955Y25526794D01*
X-13454986Y25521868D01*
X-13454989Y25521865D01*
X-13479511Y25497851D01*
X-13578268Y25401141D01*
X-13675554Y25250183D01*
X-13736978Y25081422D01*
X-13759486Y24903247D01*
X-13741961Y24724514D01*
X-13739738Y24717832D01*
X-13739738Y24717831D01*
X-13701323Y24602351D01*
X-13685274Y24554104D01*
X-13681627Y24548082D01*
X-13638553Y24476959D01*
X-13592241Y24400488D01*
X-13587351Y24395424D01*
X-13583049Y24389838D01*
X-13584852Y24388450D01*
X-13556933Y24335142D01*
X-13554500Y24310499D01*
X-13554500Y23586500D01*
X-13574502Y23518379D01*
X-13628158Y23471886D01*
X-13680500Y23460500D01*
X-17495337Y23460500D01*
X-17563458Y23480502D01*
X-17609951Y23534158D01*
X-17620055Y23604432D01*
X-17590561Y23669012D01*
X-17540494Y23704130D01*
X-17536823Y23705539D01*
X-17530799Y23708221D01*
X-17200471Y23876531D01*
X-17194761Y23879828D01*
X-16883844Y24081740D01*
X-16878493Y24085628D01*
X-16610760Y24302434D01*
X-16602292Y24314692D01*
X-16608625Y24325782D01*
X-18987188Y26704345D01*
X-19001132Y26711959D01*
X-19002965Y26711828D01*
X-19009580Y26707577D01*
X-21390509Y24326648D01*
X-21397649Y24313572D01*
X-21390191Y24303203D01*
X-21121507Y24085628D01*
X-21116156Y24081740D01*
X-20805239Y23879828D01*
X-20799529Y23876531D01*
X-20469201Y23708221D01*
X-20463177Y23705539D01*
X-20459506Y23704130D01*
X-20403079Y23661043D01*
X-20378904Y23594289D01*
X-20394657Y23525062D01*
X-20445335Y23475341D01*
X-20504663Y23460500D01*
X-22177381Y23460500D01*
X-22193827Y23461578D01*
X-22216812Y23464604D01*
X-22225000Y23465682D01*
X-22264361Y23460500D01*
X-22381762Y23445044D01*
X-22527841Y23384536D01*
X-22653282Y23288282D01*
X-22672432Y23263325D01*
X-22683292Y23250943D01*
X-23250938Y22683297D01*
X-23263328Y22672430D01*
X-23288282Y22653282D01*
X-23384536Y22527841D01*
X-23445044Y22381762D01*
X-23446122Y22373573D01*
X-23449078Y22351121D01*
X-23477801Y22286193D01*
X-23537066Y22247102D01*
X-23608057Y22246257D01*
X-23668236Y22283927D01*
X-23698495Y22348153D01*
X-23700000Y22367567D01*
X-23700000Y26996699D01*
X-22604767Y26996699D01*
X-22585364Y26626471D01*
X-22584678Y26619933D01*
X-22526679Y26253752D01*
X-22525308Y26247302D01*
X-22429357Y25889204D01*
X-22427316Y25882922D01*
X-22294461Y25536824D01*
X-22291779Y25530799D01*
X-22123469Y25200471D01*
X-22120172Y25194761D01*
X-21918260Y24883844D01*
X-21914372Y24878493D01*
X-21697566Y24610760D01*
X-21685308Y24602292D01*
X-21674218Y24608625D01*
X-19295655Y26987188D01*
X-19289277Y26998868D01*
X-18711959Y26998868D01*
X-18711828Y26997035D01*
X-18707577Y26990420D01*
X-16326648Y24609491D01*
X-16313572Y24602351D01*
X-16303203Y24609809D01*
X-16085628Y24878493D01*
X-16081740Y24883844D01*
X-15879828Y25194761D01*
X-15876531Y25200471D01*
X-15708221Y25530799D01*
X-15705539Y25536824D01*
X-15572684Y25882922D01*
X-15570643Y25889204D01*
X-15474692Y26247302D01*
X-15473321Y26253752D01*
X-15415322Y26619933D01*
X-15414636Y26626471D01*
X-15395233Y26996699D01*
X15395233Y26996699D01*
X15414636Y26626471D01*
X15415322Y26619933D01*
X15473321Y26253752D01*
X15474692Y26247302D01*
X15570643Y25889204D01*
X15572684Y25882922D01*
X15705539Y25536824D01*
X15708221Y25530799D01*
X15876531Y25200471D01*
X15879828Y25194761D01*
X16081740Y24883844D01*
X16085628Y24878493D01*
X16302434Y24610760D01*
X16314692Y24602292D01*
X16325782Y24608625D01*
X18704345Y26987188D01*
X18710723Y26998868D01*
X19288041Y26998868D01*
X19288172Y26997035D01*
X19292423Y26990420D01*
X21673352Y24609491D01*
X21686428Y24602351D01*
X21696797Y24609809D01*
X21914372Y24878493D01*
X21918260Y24883844D01*
X22120172Y25194761D01*
X22123469Y25200471D01*
X22291779Y25530799D01*
X22294461Y25536824D01*
X22427316Y25882922D01*
X22429357Y25889204D01*
X22525308Y26247302D01*
X22526679Y26253752D01*
X22584678Y26619933D01*
X22585364Y26626471D01*
X22604767Y26996699D01*
X22604767Y27003301D01*
X22585364Y27373529D01*
X22584678Y27380067D01*
X22526679Y27746248D01*
X22525308Y27752698D01*
X22429357Y28110796D01*
X22427316Y28117078D01*
X22294461Y28463176D01*
X22291779Y28469201D01*
X22123469Y28799529D01*
X22120172Y28805239D01*
X21918260Y29116156D01*
X21914372Y29121507D01*
X21697566Y29389240D01*
X21685308Y29397708D01*
X21674218Y29391375D01*
X19295655Y27012812D01*
X19288041Y26998868D01*
X18710723Y26998868D01*
X18711959Y27001132D01*
X18711828Y27002965D01*
X18707577Y27009580D01*
X16326648Y29390509D01*
X16313572Y29397649D01*
X16303203Y29390191D01*
X16085628Y29121507D01*
X16081740Y29116156D01*
X15879828Y28805239D01*
X15876531Y28799529D01*
X15708221Y28469201D01*
X15705539Y28463176D01*
X15572684Y28117078D01*
X15570643Y28110796D01*
X15474692Y27752698D01*
X15473321Y27746248D01*
X15415322Y27380067D01*
X15414636Y27373529D01*
X15395233Y27003301D01*
X15395233Y26996699D01*
X-15395233Y26996699D01*
X-15395233Y27003301D01*
X-15414636Y27373529D01*
X-15415322Y27380067D01*
X-15473321Y27746248D01*
X-15474692Y27752698D01*
X-15570643Y28110796D01*
X-15572684Y28117078D01*
X-15705539Y28463176D01*
X-15708221Y28469201D01*
X-15876531Y28799529D01*
X-15879828Y28805239D01*
X-16081740Y29116156D01*
X-16085628Y29121507D01*
X-16302434Y29389240D01*
X-16314692Y29397708D01*
X-16325782Y29391375D01*
X-18704345Y27012812D01*
X-18711959Y26998868D01*
X-19289277Y26998868D01*
X-19288041Y27001132D01*
X-19288172Y27002965D01*
X-19292423Y27009580D01*
X-21673352Y29390509D01*
X-21686428Y29397649D01*
X-21696797Y29390191D01*
X-21914372Y29121507D01*
X-21918260Y29116156D01*
X-22120172Y28805239D01*
X-22123469Y28799529D01*
X-22291779Y28469201D01*
X-22294461Y28463176D01*
X-22427316Y28117078D01*
X-22429357Y28110796D01*
X-22525308Y27752698D01*
X-22526679Y27746248D01*
X-22584678Y27380067D01*
X-22585364Y27373529D01*
X-22604767Y27003301D01*
X-22604767Y26996699D01*
X-23700000Y26996699D01*
X-23700000Y29685308D01*
X-21397708Y29685308D01*
X-21391375Y29674218D01*
X-19012812Y27295655D01*
X-18998868Y27288041D01*
X-18997035Y27288172D01*
X-18990420Y27292423D01*
X-16609491Y29673352D01*
X-16602963Y29685308D01*
X16602292Y29685308D01*
X16608625Y29674218D01*
X18987188Y27295655D01*
X19001132Y27288041D01*
X19002965Y27288172D01*
X19009580Y27292423D01*
X21390509Y29673352D01*
X21397649Y29686428D01*
X21390191Y29696797D01*
X21121507Y29914372D01*
X21116156Y29918260D01*
X20805239Y30120172D01*
X20799529Y30123469D01*
X20469201Y30291779D01*
X20463176Y30294461D01*
X20117078Y30427316D01*
X20110796Y30429357D01*
X19752698Y30525308D01*
X19746248Y30526679D01*
X19380067Y30584678D01*
X19373529Y30585364D01*
X19003301Y30604767D01*
X18996699Y30604767D01*
X18626471Y30585364D01*
X18619933Y30584678D01*
X18253752Y30526679D01*
X18247302Y30525308D01*
X17889204Y30429357D01*
X17882922Y30427316D01*
X17536824Y30294461D01*
X17530799Y30291779D01*
X17200471Y30123469D01*
X17194761Y30120172D01*
X16883844Y29918260D01*
X16878493Y29914372D01*
X16610760Y29697566D01*
X16602292Y29685308D01*
X-16602963Y29685308D01*
X-16602351Y29686428D01*
X-16609809Y29696797D01*
X-16878493Y29914372D01*
X-16883844Y29918260D01*
X-17194761Y30120172D01*
X-17200471Y30123469D01*
X-17530799Y30291779D01*
X-17536824Y30294461D01*
X-17882922Y30427316D01*
X-17889204Y30429357D01*
X-18247302Y30525308D01*
X-18253752Y30526679D01*
X-18619933Y30584678D01*
X-18626471Y30585364D01*
X-18996699Y30604767D01*
X-19003301Y30604767D01*
X-19373529Y30585364D01*
X-19380067Y30584678D01*
X-19746248Y30526679D01*
X-19752698Y30525308D01*
X-20110796Y30429357D01*
X-20117078Y30427316D01*
X-20463176Y30294461D01*
X-20469201Y30291779D01*
X-20799529Y30123469D01*
X-20805239Y30120172D01*
X-21116156Y29918260D01*
X-21121507Y29914372D01*
X-21389240Y29697566D01*
X-21397708Y29685308D01*
X-23700000Y29685308D01*
X-23700000Y31574000D01*
X-23679998Y31642121D01*
X-23626342Y31688614D01*
X-23574000Y31700000D01*
X23574000Y31700000D01*
X23642121Y31679998D01*
G37*
%TD.AperFunction*%
%TA.AperFunction,Conductor*%
G36*
X-17527080Y-10339841D02*
G01*
X-17503180Y-10358568D01*
X-16845220Y-11016528D01*
X-16823846Y-11027418D01*
X-16806994Y-11037744D01*
X-16787580Y-11051850D01*
X-16778151Y-11054914D01*
X-16778148Y-11054915D01*
X-16764761Y-11059265D01*
X-16746497Y-11066830D01*
X-16725126Y-11077719D01*
X-16715334Y-11079270D01*
X-16715331Y-11079271D01*
X-16701431Y-11081473D01*
X-16682212Y-11086087D01*
X-16668827Y-11090436D01*
X-16668820Y-11090437D01*
X-16659393Y-11093500D01*
X-8991438Y-11093500D01*
X-8923317Y-11113502D01*
X-8902343Y-11130405D01*
X-7574405Y-12458343D01*
X-7540379Y-12520655D01*
X-7537500Y-12547438D01*
X-7537500Y-14370270D01*
X-7557502Y-14438391D01*
X-7580671Y-14465219D01*
X-7636396Y-14513831D01*
X-7733887Y-14652547D01*
X-7795476Y-14810513D01*
X-7796468Y-14818046D01*
X-7796468Y-14818047D01*
X-7813865Y-14950197D01*
X-7817606Y-14978611D01*
X-7816772Y-14986162D01*
X-7813185Y-15018659D01*
X-7825591Y-15088563D01*
X-7849329Y-15121580D01*
X-8178013Y-15450264D01*
X-8178016Y-15450268D01*
X-8185029Y-15457281D01*
X-8195924Y-15478664D01*
X-8206248Y-15495510D01*
X-8220350Y-15514920D01*
X-8223414Y-15524351D01*
X-8223416Y-15524354D01*
X-8227765Y-15537738D01*
X-8235329Y-15555999D01*
X-8246220Y-15577375D01*
X-8247771Y-15587169D01*
X-8249973Y-15601071D01*
X-8254587Y-15620291D01*
X-8262001Y-15643108D01*
X-8262001Y-19092096D01*
X-8258936Y-19101530D01*
X-8257385Y-19111321D01*
X-8260706Y-19111847D01*
X-8259170Y-19165527D01*
X-8295831Y-19226326D01*
X-8359542Y-19257654D01*
X-8381032Y-19259500D01*
X-9931562Y-19259500D01*
X-9999683Y-19239498D01*
X-10020657Y-19222595D01*
X-11031095Y-18212157D01*
X-11065121Y-18149845D01*
X-11068000Y-18123062D01*
X-11068000Y-16633107D01*
X-11075414Y-16610290D01*
X-11080028Y-16591070D01*
X-11082230Y-16577168D01*
X-11083781Y-16567374D01*
X-11088284Y-16558536D01*
X-11094672Y-16545998D01*
X-11102236Y-16527737D01*
X-11106585Y-16514353D01*
X-11106587Y-16514350D01*
X-11109651Y-16504919D01*
X-11123753Y-16485509D01*
X-11134077Y-16468663D01*
X-11144972Y-16447280D01*
X-12872595Y-14719657D01*
X-12906621Y-14657345D01*
X-12909500Y-14630562D01*
X-12909500Y-13950939D01*
X-12889498Y-13882818D01*
X-12865331Y-13855128D01*
X-12821349Y-13817564D01*
X-12821348Y-13817563D01*
X-12815577Y-13812634D01*
X-12716639Y-13674947D01*
X-12653399Y-13517634D01*
X-12629510Y-13349778D01*
X-12629355Y-13335000D01*
X-12649724Y-13166680D01*
X-12709655Y-13008077D01*
X-12713956Y-13001819D01*
X-12801386Y-12874608D01*
X-12801387Y-12874607D01*
X-12805688Y-12868349D01*
X-12811359Y-12863296D01*
X-12926608Y-12760612D01*
X-12926612Y-12760610D01*
X-12932279Y-12755560D01*
X-13082119Y-12676224D01*
X-13246559Y-12634919D01*
X-13254157Y-12634879D01*
X-13254159Y-12634879D01*
X-13331332Y-12634475D01*
X-13416105Y-12634031D01*
X-13423492Y-12635805D01*
X-13423496Y-12635805D01*
X-13563620Y-12669447D01*
X-13580968Y-12673612D01*
X-13587712Y-12677093D01*
X-13587715Y-12677094D01*
X-13703993Y-12737110D01*
X-13731631Y-12751375D01*
X-13737353Y-12756367D01*
X-13737355Y-12756368D01*
X-13774130Y-12788449D01*
X-13838612Y-12818157D01*
X-13856959Y-12819500D01*
X-17677806Y-12819500D01*
X-17745927Y-12799498D01*
X-17792420Y-12745842D01*
X-17796018Y-12737110D01*
X-17802750Y-12718862D01*
X-17808997Y-12701928D01*
X-17905798Y-12539220D01*
X-17916032Y-12522018D01*
X-17916034Y-12522015D01*
X-17918988Y-12517050D01*
X-17922794Y-12512710D01*
X-17922797Y-12512706D01*
X-18057022Y-12359653D01*
X-18060829Y-12355312D01*
X-18160607Y-12276653D01*
X-18225235Y-12225704D01*
X-18225237Y-12225702D01*
X-18229769Y-12222130D01*
X-18420150Y-12121966D01*
X-18625597Y-12058173D01*
X-18625147Y-12056723D01*
X-18681250Y-12026425D01*
X-18715563Y-11964272D01*
X-18710826Y-11893433D01*
X-18668544Y-11836401D01*
X-18626771Y-11815650D01*
X-18448733Y-11765438D01*
X-18443556Y-11762885D01*
X-18443551Y-11762883D01*
X-18260974Y-11672845D01*
X-18255795Y-11670291D01*
X-18083427Y-11541578D01*
X-17937401Y-11383608D01*
X-17822608Y-11201673D01*
X-17742893Y-11001864D01*
X-17737001Y-10972246D01*
X-17702052Y-10796542D01*
X-17702052Y-10796540D01*
X-17700925Y-10790875D01*
X-17698109Y-10575770D01*
X-17703375Y-10545125D01*
X-17716455Y-10469001D01*
X-17708278Y-10398477D01*
X-17663271Y-10343569D01*
X-17595723Y-10321710D01*
X-17527080Y-10339841D01*
G37*
%TD.AperFunction*%
%TA.AperFunction,Conductor*%
G36*
X-8101988Y-4890502D02*
G01*
X-8055495Y-4944158D01*
X-8045187Y-5012946D01*
X-8047114Y-5027580D01*
X-8047114Y-5027585D01*
X-8048105Y-5035112D01*
X-8029500Y-5203636D01*
X-7971233Y-5362857D01*
X-7876669Y-5503584D01*
X-7871057Y-5508691D01*
X-7871054Y-5508694D01*
X-7756887Y-5612578D01*
X-7756883Y-5612581D01*
X-7751266Y-5617692D01*
X-7744593Y-5621315D01*
X-7744589Y-5621318D01*
X-7608941Y-5694968D01*
X-7608939Y-5694969D01*
X-7602264Y-5698593D01*
X-7594915Y-5700521D01*
X-7445616Y-5739689D01*
X-7445614Y-5739689D01*
X-7438266Y-5741617D01*
X-7351579Y-5742979D01*
X-7293076Y-5743898D01*
X-7225278Y-5764967D01*
X-7205960Y-5780787D01*
X-6478916Y-6507831D01*
X-6444890Y-6570143D01*
X-6442011Y-6596926D01*
X-6442011Y-12208532D01*
X-6462013Y-12276653D01*
X-6515669Y-12323146D01*
X-6585943Y-12333250D01*
X-6650523Y-12303756D01*
X-6687845Y-12247465D01*
X-6693913Y-12228788D01*
X-6698527Y-12209569D01*
X-6700729Y-12195669D01*
X-6700730Y-12195666D01*
X-6702281Y-12185874D01*
X-6713170Y-12164503D01*
X-6720735Y-12146239D01*
X-6725085Y-12132852D01*
X-6725086Y-12132849D01*
X-6728150Y-12123420D01*
X-6742256Y-12104006D01*
X-6752584Y-12087150D01*
X-6758968Y-12074620D01*
X-6763472Y-12065780D01*
X-8509780Y-10319472D01*
X-8531163Y-10308577D01*
X-8548009Y-10298253D01*
X-8559396Y-10289980D01*
X-8567419Y-10284151D01*
X-8576850Y-10281087D01*
X-8576853Y-10281085D01*
X-8590237Y-10276736D01*
X-8608498Y-10269172D01*
X-8621036Y-10262784D01*
X-8621037Y-10262784D01*
X-8629874Y-10258281D01*
X-8653571Y-10254528D01*
X-8672790Y-10249914D01*
X-8695607Y-10242500D01*
X-16363562Y-10242500D01*
X-16431683Y-10222498D01*
X-16452657Y-10205595D01*
X-17818723Y-8839529D01*
X-17852749Y-8777217D01*
X-17847684Y-8706402D01*
X-17836190Y-8683200D01*
X-17825693Y-8666562D01*
X-17822608Y-8661673D01*
X-17742893Y-8461864D01*
X-17732427Y-8409251D01*
X-17702052Y-8256542D01*
X-17702052Y-8256540D01*
X-17700925Y-8250875D01*
X-17700633Y-8228612D01*
X-17699154Y-8115608D01*
X-17698109Y-8035770D01*
X-17712578Y-7951564D01*
X-17733562Y-7829444D01*
X-17733563Y-7829441D01*
X-17734540Y-7823754D01*
X-17808997Y-7621928D01*
X-17897051Y-7473923D01*
X-17914691Y-7405153D01*
X-17892351Y-7337763D01*
X-17837123Y-7293149D01*
X-17788766Y-7283500D01*
X-16315607Y-7283500D01*
X-16292790Y-7276086D01*
X-16273571Y-7271472D01*
X-16249874Y-7267719D01*
X-16241036Y-7263216D01*
X-16228498Y-7256828D01*
X-16210237Y-7249264D01*
X-16196853Y-7244915D01*
X-16196850Y-7244913D01*
X-16187419Y-7241849D01*
X-16168009Y-7227747D01*
X-16151163Y-7217423D01*
X-16129780Y-7206528D01*
X-14105070Y-5181818D01*
X-14042758Y-5147792D01*
X-14013998Y-5144929D01*
X-13969353Y-5145631D01*
X-13903838Y-5146660D01*
X-13903835Y-5146660D01*
X-13896240Y-5146779D01*
X-13888835Y-5145083D01*
X-13888834Y-5145083D01*
X-13767810Y-5117365D01*
X-13730971Y-5108928D01*
X-13579502Y-5032747D01*
X-13450577Y-4922634D01*
X-13446146Y-4916467D01*
X-13441316Y-4911215D01*
X-13380484Y-4874609D01*
X-13348567Y-4870500D01*
X-8170109Y-4870500D01*
X-8101988Y-4890502D01*
G37*
%TD.AperFunction*%
%TD*%
M02*
