%TF.GenerationSoftware,KiCad,Pcbnew,6.0.2+dfsg-1*%
%TF.CreationDate,2023-01-07T19:56:01+01:00*%
%TF.ProjectId,hBridge3620,68427269-6467-4653-9336-32302e6b6963,1.0*%
%TF.SameCoordinates,Original*%
%TF.FileFunction,Soldermask,Bot*%
%TF.FilePolarity,Negative*%
%FSLAX46Y46*%
G04 Gerber Fmt 4.6, Leading zero omitted, Abs format (unit mm)*
G04 Created by KiCad (PCBNEW 6.0.2+dfsg-1) date 2023-01-07 19:56:01*
%MOMM*%
%LPD*%
G01*
G04 APERTURE LIST*
G04 Aperture macros list*
%AMRoundRect*
0 Rectangle with rounded corners*
0 $1 Rounding radius*
0 $2 $3 $4 $5 $6 $7 $8 $9 X,Y pos of 4 corners*
0 Add a 4 corners polygon primitive as box body*
4,1,4,$2,$3,$4,$5,$6,$7,$8,$9,$2,$3,0*
0 Add four circle primitives for the rounded corners*
1,1,$1+$1,$2,$3*
1,1,$1+$1,$4,$5*
1,1,$1+$1,$6,$7*
1,1,$1+$1,$8,$9*
0 Add four rect primitives between the rounded corners*
20,1,$1+$1,$2,$3,$4,$5,0*
20,1,$1+$1,$4,$5,$6,$7,0*
20,1,$1+$1,$6,$7,$8,$9,0*
20,1,$1+$1,$8,$9,$2,$3,0*%
G04 Aperture macros list end*
%ADD10RoundRect,0.349999X-1.950001X-1.950001X1.950001X-1.950001X1.950001X1.950001X-1.950001X1.950001X0*%
%ADD11RoundRect,0.100000X-1.200000X-1.200000X1.200000X-1.200000X1.200000X1.200000X-1.200000X1.200000X0*%
%ADD12C,2.600000*%
%ADD13RoundRect,0.350000X0.845000X-0.620000X0.845000X0.620000X-0.845000X0.620000X-0.845000X-0.620000X0*%
%ADD14O,2.390000X1.940000*%
%ADD15RoundRect,0.100000X-1.000000X-1.000000X1.000000X-1.000000X1.000000X1.000000X-1.000000X1.000000X0*%
%ADD16C,2.200000*%
%ADD17C,1.000000*%
%ADD18C,6.600000*%
%ADD19RoundRect,0.100000X-0.600000X1.100000X-0.600000X-1.100000X0.600000X-1.100000X0.600000X1.100000X0*%
%ADD20RoundRect,0.100000X-2.900000X3.200000X-2.900000X-3.200000X2.900000X-3.200000X2.900000X3.200000X0*%
%ADD21RoundRect,0.325000X-0.225000X-0.250000X0.225000X-0.250000X0.225000X0.250000X-0.225000X0.250000X0*%
%ADD22RoundRect,0.350000X0.650000X-0.412500X0.650000X0.412500X-0.650000X0.412500X-0.650000X-0.412500X0*%
%ADD23RoundRect,0.350000X-1.425000X0.362500X-1.425000X-0.362500X1.425000X-0.362500X1.425000X0.362500X0*%
%ADD24RoundRect,0.300000X-0.200000X-0.275000X0.200000X-0.275000X0.200000X0.275000X-0.200000X0.275000X0*%
%ADD25RoundRect,0.187500X0.212500X0.087500X-0.212500X0.087500X-0.212500X-0.087500X0.212500X-0.087500X0*%
%ADD26RoundRect,0.100000X0.900000X1.300000X-0.900000X1.300000X-0.900000X-1.300000X0.900000X-1.300000X0*%
%ADD27RoundRect,0.325000X-0.250000X0.225000X-0.250000X-0.225000X0.250000X-0.225000X0.250000X0.225000X0*%
%ADD28RoundRect,0.100000X-0.900000X1.250000X-0.900000X-1.250000X0.900000X-1.250000X0.900000X1.250000X0*%
%ADD29RoundRect,0.350000X0.475000X-0.250000X0.475000X0.250000X-0.475000X0.250000X-0.475000X-0.250000X0*%
%ADD30RoundRect,0.250000X0.512500X0.150000X-0.512500X0.150000X-0.512500X-0.150000X0.512500X-0.150000X0*%
%ADD31RoundRect,0.100000X0.255000X0.380000X-0.255000X0.380000X-0.255000X-0.380000X0.255000X-0.380000X0*%
%ADD32RoundRect,0.100000X2.260000X-1.985000X2.260000X1.985000X-2.260000X1.985000X-2.260000X-1.985000X0*%
%ADD33RoundRect,0.100000X-0.300000X-0.225000X0.300000X-0.225000X0.300000X0.225000X-0.300000X0.225000X0*%
%ADD34RoundRect,0.350000X0.250000X0.475000X-0.250000X0.475000X-0.250000X-0.475000X0.250000X-0.475000X0*%
%ADD35RoundRect,0.350000X-0.650000X0.412500X-0.650000X-0.412500X0.650000X-0.412500X0.650000X0.412500X0*%
%ADD36RoundRect,0.325000X0.250000X-0.225000X0.250000X0.225000X-0.250000X0.225000X-0.250000X-0.225000X0*%
%ADD37RoundRect,0.100000X0.900000X-1.250000X0.900000X1.250000X-0.900000X1.250000X-0.900000X-1.250000X0*%
%ADD38RoundRect,0.300000X-0.275000X0.200000X-0.275000X-0.200000X0.275000X-0.200000X0.275000X0.200000X0*%
%ADD39RoundRect,0.350000X0.412500X0.650000X-0.412500X0.650000X-0.412500X-0.650000X0.412500X-0.650000X0*%
%ADD40RoundRect,0.350000X-0.312500X-0.625000X0.312500X-0.625000X0.312500X0.625000X-0.312500X0.625000X0*%
%ADD41RoundRect,0.300000X0.275000X-0.200000X0.275000X0.200000X-0.275000X0.200000X-0.275000X-0.200000X0*%
%ADD42RoundRect,0.325000X0.225000X0.250000X-0.225000X0.250000X-0.225000X-0.250000X0.225000X-0.250000X0*%
%ADD43O,2.000000X2.600000*%
%ADD44RoundRect,0.290000X0.285000X0.685000X-0.285000X0.685000X-0.285000X-0.685000X0.285000X-0.685000X0*%
%ADD45RoundRect,0.100000X0.900000X3.750000X-0.900000X3.750000X-0.900000X-3.750000X0.900000X-3.750000X0*%
%ADD46RoundRect,0.300000X0.200000X0.275000X-0.200000X0.275000X-0.200000X-0.275000X0.200000X-0.275000X0*%
%ADD47RoundRect,0.318750X0.256250X-0.218750X0.256250X0.218750X-0.256250X0.218750X-0.256250X-0.218750X0*%
%ADD48RoundRect,0.250000X0.825000X0.150000X-0.825000X0.150000X-0.825000X-0.150000X0.825000X-0.150000X0*%
%ADD49RoundRect,0.100000X1.145000X1.500000X-1.145000X1.500000X-1.145000X-1.500000X1.145000X-1.500000X0*%
%ADD50RoundRect,0.350000X-0.475000X0.250000X-0.475000X-0.250000X0.475000X-0.250000X0.475000X0.250000X0*%
%ADD51RoundRect,0.250000X-0.150000X0.512500X-0.150000X-0.512500X0.150000X-0.512500X0.150000X0.512500X0*%
%ADD52RoundRect,0.318750X0.218750X0.256250X-0.218750X0.256250X-0.218750X-0.256250X0.218750X-0.256250X0*%
%ADD53RoundRect,0.100000X0.200000X-0.325000X0.200000X0.325000X-0.200000X0.325000X-0.200000X-0.325000X0*%
G04 APERTURE END LIST*
D10*
%TO.C,M2*%
X17715000Y7075000D03*
%TD*%
D11*
%TO.C,C5*%
X6566041Y24765000D03*
D12*
X11566041Y24765000D03*
%TD*%
D13*
%TO.C,M3*%
X-19095000Y-18288000D03*
D14*
X-19095000Y-15748000D03*
X-19095000Y-13208000D03*
X-19095000Y-10668000D03*
X-19095000Y-8128000D03*
X-19095000Y-5588000D03*
%TD*%
D10*
%TO.C,M1*%
X17715000Y18280000D03*
%TD*%
D13*
%TO.C,P1*%
X-19115000Y7112000D03*
D14*
X-19115000Y9652000D03*
%TD*%
D15*
%TO.C,C2*%
X-5669677Y21162000D03*
D16*
X-669677Y21162000D03*
%TD*%
D17*
%TO.C,H1*%
X21400000Y27000000D03*
X19000000Y29400000D03*
X20697056Y28697056D03*
D18*
X19000000Y27000000D03*
D17*
X17302944Y25302944D03*
X20697056Y25302944D03*
X19000000Y24600000D03*
X17302944Y28697056D03*
X16600000Y27000000D03*
%TD*%
%TO.C,H2*%
X16600000Y-27000000D03*
X20697056Y-28697056D03*
X19000000Y-24600000D03*
X21400000Y-27000000D03*
X20697056Y-25302944D03*
X17302944Y-28697056D03*
X17302944Y-25302944D03*
D18*
X19000000Y-27000000D03*
D17*
X19000000Y-29400000D03*
%TD*%
%TO.C,H4*%
X-21400000Y-27000000D03*
X-17302944Y-25302944D03*
D18*
X-19000000Y-27000000D03*
D17*
X-20697056Y-25302944D03*
X-19000000Y-24600000D03*
X-16600000Y-27000000D03*
X-19000000Y-29400000D03*
X-20697056Y-28697056D03*
X-17302944Y-28697056D03*
%TD*%
%TO.C,H3*%
X-19000000Y24600000D03*
X-16600000Y27000000D03*
X-19000000Y29400000D03*
X-20697056Y28697056D03*
X-17302944Y28697056D03*
X-20697056Y25302944D03*
X-17302944Y25302944D03*
X-21400000Y27000000D03*
D18*
X-19000000Y27000000D03*
%TD*%
D10*
%TO.C,OUTA1*%
X17715000Y-5625000D03*
%TD*%
D13*
%TO.C,P2*%
X-19050000Y-508000D03*
D14*
X-19050000Y2032000D03*
%TD*%
D10*
%TO.C,OUTB1*%
X17715000Y-18325000D03*
%TD*%
D19*
%TO.C,U2*%
X-18027000Y20929000D03*
D20*
X-15747000Y14629000D03*
D19*
X-13467000Y20929000D03*
%TD*%
D21*
%TO.C,C21*%
X-5313000Y-11938000D03*
X-3763000Y-11938000D03*
%TD*%
D22*
%TO.C,C13*%
X-20828000Y18249500D03*
X-20828000Y21374500D03*
%TD*%
D23*
%TO.C,R1*%
X12635000Y14392500D03*
X12635000Y8467500D03*
%TD*%
D24*
%TO.C,R17*%
X-16700000Y-9525000D03*
X-15050000Y-9525000D03*
%TD*%
D25*
%TO.C,U5*%
X-3442000Y-13732000D03*
X-3442000Y-14232000D03*
X-3442000Y-14732000D03*
X-3442000Y-15232000D03*
X-3442000Y-15732000D03*
X-6142000Y-15732000D03*
X-6142000Y-15232000D03*
X-6142000Y-14732000D03*
X-6142000Y-14232000D03*
X-6142000Y-13732000D03*
D26*
X-4792000Y-14732000D03*
%TD*%
D27*
%TO.C,C15*%
X-20828000Y15253000D03*
X-20828000Y13703000D03*
%TD*%
D28*
%TO.C,D6*%
X13208000Y-4350000D03*
X13208000Y-8350000D03*
%TD*%
D29*
%TO.C,C8*%
X-3302000Y20452000D03*
X-3302000Y22352000D03*
%TD*%
D30*
%TO.C,U9*%
X-2037500Y-28260000D03*
X-2037500Y-29210000D03*
X-2037500Y-30160000D03*
X-4312500Y-30160000D03*
X-4312500Y-28260000D03*
%TD*%
D31*
%TO.C,Q2*%
X9460000Y-8760000D03*
X6920000Y-8760000D03*
X8190000Y-8760000D03*
X5650000Y-8760000D03*
X5650000Y-3260000D03*
D32*
X7555000Y-5365000D03*
D31*
X8190000Y-3260000D03*
X9460000Y-3260000D03*
X6920000Y-3260000D03*
%TD*%
D24*
%TO.C,R7*%
X-415000Y-5550501D03*
X1235000Y-5550501D03*
%TD*%
D33*
%TO.C,D4*%
X-640000Y-7582501D03*
X1460000Y-7582501D03*
%TD*%
D25*
%TO.C,U3*%
X-3325499Y-2518501D03*
X-3325499Y-3018501D03*
X-3325499Y-3518501D03*
X-3325499Y-4018501D03*
X-3325499Y-4518501D03*
X-6025499Y-4518501D03*
X-6025499Y-4018501D03*
X-6025499Y-3518501D03*
X-6025499Y-3018501D03*
X-6025499Y-2518501D03*
D26*
X-4675499Y-3518501D03*
%TD*%
D21*
%TO.C,C1*%
X-5196499Y-724501D03*
X-3646499Y-724501D03*
%TD*%
D34*
%TO.C,C20*%
X1360000Y-14732000D03*
X-540000Y-14732000D03*
%TD*%
D35*
%TO.C,C11*%
X-10414000Y15104500D03*
X-10414000Y11979500D03*
%TD*%
D36*
%TO.C,C22*%
X-7366000Y3302000D03*
X-7366000Y4852000D03*
%TD*%
D24*
%TO.C,R4*%
X-16700000Y-12065000D03*
X-15050000Y-12065000D03*
%TD*%
D37*
%TO.C,D1*%
X508000Y24274000D03*
X508000Y28274000D03*
%TD*%
D34*
%TO.C,C17*%
X1360000Y-3518501D03*
X-540000Y-3518501D03*
%TD*%
D24*
%TO.C,R8*%
X-12001000Y3048000D03*
X-10351000Y3048000D03*
%TD*%
D38*
%TO.C,R13*%
X-2794000Y8445000D03*
X-2794000Y6795000D03*
%TD*%
D22*
%TO.C,C10*%
X-11176000Y23917500D03*
X-11176000Y27042500D03*
%TD*%
D31*
%TO.C,Q1*%
X8255000Y-845000D03*
X9525000Y-845000D03*
X6985000Y-845000D03*
X5715000Y-845000D03*
D32*
X7620000Y2550000D03*
D31*
X5715000Y4655000D03*
X8255000Y4655000D03*
X6985000Y4655000D03*
X9525000Y4655000D03*
%TD*%
D28*
%TO.C,D2*%
X3810000Y17965000D03*
X3810000Y13965000D03*
%TD*%
D39*
%TO.C,C3*%
X19277500Y725000D03*
X16152500Y725000D03*
%TD*%
%TO.C,C14*%
X19277500Y-13462000D03*
X16152500Y-13462000D03*
%TD*%
D31*
%TO.C,Q3*%
X9460000Y-18535000D03*
X6920000Y-18535000D03*
X8190000Y-18535000D03*
X5650000Y-18535000D03*
X5650000Y-13035000D03*
X8190000Y-13035000D03*
D32*
X7555000Y-15140000D03*
D31*
X9460000Y-13035000D03*
X6920000Y-13035000D03*
%TD*%
%TO.C,Q4*%
X6920000Y-26155000D03*
X8190000Y-26155000D03*
X9460000Y-26155000D03*
X5650000Y-26155000D03*
X9460000Y-20655000D03*
X8190000Y-20655000D03*
D32*
X7555000Y-22760000D03*
D31*
X6920000Y-20655000D03*
X5650000Y-20655000D03*
%TD*%
D40*
%TO.C,R9*%
X-10606500Y21162000D03*
X-7681500Y21162000D03*
%TD*%
D41*
%TO.C,R20*%
X-6350000Y-26860000D03*
X-6350000Y-25210000D03*
%TD*%
D38*
%TO.C,R5*%
X1016000Y8382000D03*
X1016000Y6732000D03*
%TD*%
D28*
%TO.C,D8*%
X12635000Y-13785000D03*
X12635000Y-17785000D03*
%TD*%
D42*
%TO.C,C4*%
X1156000Y4445000D03*
X-394000Y4445000D03*
%TD*%
D23*
%TO.C,R2*%
X8255000Y14392500D03*
X8255000Y8467500D03*
%TD*%
D43*
%TO.C,D17*%
X-10795000Y-29210000D03*
D44*
X-9245000Y-29210000D03*
X-12345000Y-29210000D03*
%TD*%
D27*
%TO.C,C18*%
X-7366000Y8382000D03*
X-7366000Y6832000D03*
%TD*%
D45*
%TO.C,L1*%
X-242000Y14986000D03*
X-5842000Y14986000D03*
%TD*%
D42*
%TO.C,C12*%
X-13195000Y23368000D03*
X-14745000Y23368000D03*
%TD*%
D41*
%TO.C,R10*%
X-8128000Y13479000D03*
X-8128000Y15129000D03*
%TD*%
D33*
%TO.C,D3*%
X-640000Y164499D03*
X1460000Y164499D03*
%TD*%
D46*
%TO.C,R12*%
X-9081000Y18876000D03*
X-10731000Y18876000D03*
%TD*%
D43*
%TO.C,D16*%
X-10795000Y-26035000D03*
D44*
X-9245000Y-26035000D03*
X-12345000Y-26035000D03*
%TD*%
D47*
%TO.C,D14*%
X-4826000Y6832500D03*
X-4826000Y8407500D03*
%TD*%
D28*
%TO.C,D5*%
X13208000Y2984000D03*
X13208000Y-1016000D03*
%TD*%
D48*
%TO.C,U1*%
X-3559000Y28067000D03*
X-3559000Y26797000D03*
X-3559000Y25527000D03*
X-3559000Y24257000D03*
X-8509000Y24257000D03*
X-8509000Y25527000D03*
X-8509000Y26797000D03*
X-8509000Y28067000D03*
D49*
X-6034000Y26162000D03*
%TD*%
D50*
%TO.C,C7*%
X17715000Y14375000D03*
X17715000Y12475000D03*
%TD*%
D30*
%TO.C,U6*%
X-2672500Y5014000D03*
X-2672500Y4064000D03*
X-2672500Y3114000D03*
X-4947500Y3114000D03*
X-4947500Y5014000D03*
%TD*%
D21*
%TO.C,C9*%
X-10681000Y17352000D03*
X-9131000Y17352000D03*
%TD*%
%TO.C,C19*%
X-11951000Y7112000D03*
X-10401000Y7112000D03*
%TD*%
D38*
%TO.C,R16*%
X-16764000Y-19876000D03*
X-16764000Y-21526000D03*
%TD*%
D41*
%TO.C,R19*%
X-6350000Y-23685000D03*
X-6350000Y-22035000D03*
%TD*%
D51*
%TO.C,U4*%
X2795000Y8757500D03*
X3745000Y8757500D03*
X4695000Y8757500D03*
X4695000Y6482500D03*
X2795000Y6482500D03*
%TD*%
D30*
%TO.C,U7*%
X-2037500Y-20640000D03*
X-2037500Y-21590000D03*
X-2037500Y-22540000D03*
X-4312500Y-22540000D03*
X-4312500Y-20640000D03*
%TD*%
D33*
%TO.C,D10*%
X-640000Y-10668000D03*
X1460000Y-10668000D03*
%TD*%
D24*
%TO.C,R6*%
X-415000Y-1613501D03*
X1235000Y-1613501D03*
%TD*%
D27*
%TO.C,C16*%
X-762000Y8395000D03*
X-762000Y6845000D03*
%TD*%
D24*
%TO.C,R11*%
X2731000Y11430000D03*
X4381000Y11430000D03*
%TD*%
D43*
%TO.C,D13*%
X-10795000Y-22860000D03*
D44*
X-9245000Y-22860000D03*
X-12345000Y-22860000D03*
%TD*%
D41*
%TO.C,R21*%
X-6350000Y-30035000D03*
X-6350000Y-28385000D03*
%TD*%
D24*
%TO.C,R15*%
X-415000Y-16764000D03*
X1235000Y-16764000D03*
%TD*%
D30*
%TO.C,U8*%
X-2037500Y-24450000D03*
X-2037500Y-25400000D03*
X-2037500Y-26350000D03*
X-4312500Y-26350000D03*
X-4312500Y-24450000D03*
%TD*%
D24*
%TO.C,R3*%
X-16700000Y-2540000D03*
X-15050000Y-2540000D03*
%TD*%
D28*
%TO.C,D9*%
X12635000Y-21405000D03*
X12635000Y-25405000D03*
%TD*%
D52*
%TO.C,D15*%
X-10388500Y5080000D03*
X-11963500Y5080000D03*
%TD*%
D53*
%TO.C,D7*%
X-15225000Y-7300000D03*
X-15875000Y-7300000D03*
X-16525000Y-7300000D03*
X-16525000Y-5400000D03*
X-15875000Y-5400000D03*
X-15225000Y-5400000D03*
%TD*%
D33*
%TO.C,D11*%
X-640000Y-18796000D03*
X1460000Y-18796000D03*
%TD*%
D36*
%TO.C,C6*%
X-14986000Y-21476000D03*
X-14986000Y-19926000D03*
%TD*%
D24*
%TO.C,R14*%
X-415000Y-12700000D03*
X1235000Y-12700000D03*
%TD*%
M02*
