%TF.GenerationSoftware,KiCad,Pcbnew,6.0.2+dfsg-1*%
%TF.CreationDate,2023-01-07T19:56:01+01:00*%
%TF.ProjectId,hBridge3620,68427269-6467-4653-9336-32302e6b6963,1.0*%
%TF.SameCoordinates,Original*%
%TF.FileFunction,Legend,Bot*%
%TF.FilePolarity,Positive*%
%FSLAX46Y46*%
G04 Gerber Fmt 4.6, Leading zero omitted, Abs format (unit mm)*
G04 Created by KiCad (PCBNEW 6.0.2+dfsg-1) date 2023-01-07 19:56:01*
%MOMM*%
%LPD*%
G01*
G04 APERTURE LIST*
G04 Aperture macros list*
%AMRoundRect*
0 Rectangle with rounded corners*
0 $1 Rounding radius*
0 $2 $3 $4 $5 $6 $7 $8 $9 X,Y pos of 4 corners*
0 Add a 4 corners polygon primitive as box body*
4,1,4,$2,$3,$4,$5,$6,$7,$8,$9,$2,$3,0*
0 Add four circle primitives for the rounded corners*
1,1,$1+$1,$2,$3*
1,1,$1+$1,$4,$5*
1,1,$1+$1,$6,$7*
1,1,$1+$1,$8,$9*
0 Add four rect primitives between the rounded corners*
20,1,$1+$1,$2,$3,$4,$5,0*
20,1,$1+$1,$4,$5,$6,$7,0*
20,1,$1+$1,$6,$7,$8,$9,0*
20,1,$1+$1,$8,$9,$2,$3,0*%
G04 Aperture macros list end*
%ADD10C,0.350000*%
%ADD11C,0.200000*%
%ADD12C,0.120000*%
%ADD13RoundRect,0.349999X-1.950001X-1.950001X1.950001X-1.950001X1.950001X1.950001X-1.950001X1.950001X0*%
%ADD14RoundRect,0.100000X-1.200000X-1.200000X1.200000X-1.200000X1.200000X1.200000X-1.200000X1.200000X0*%
%ADD15C,2.600000*%
%ADD16RoundRect,0.350000X0.845000X-0.620000X0.845000X0.620000X-0.845000X0.620000X-0.845000X-0.620000X0*%
%ADD17O,2.390000X1.940000*%
%ADD18RoundRect,0.100000X-1.000000X-1.000000X1.000000X-1.000000X1.000000X1.000000X-1.000000X1.000000X0*%
%ADD19C,2.200000*%
%ADD20C,1.000000*%
%ADD21C,6.600000*%
%ADD22RoundRect,0.100000X-0.600000X1.100000X-0.600000X-1.100000X0.600000X-1.100000X0.600000X1.100000X0*%
%ADD23RoundRect,0.100000X-2.900000X3.200000X-2.900000X-3.200000X2.900000X-3.200000X2.900000X3.200000X0*%
%ADD24RoundRect,0.325000X-0.225000X-0.250000X0.225000X-0.250000X0.225000X0.250000X-0.225000X0.250000X0*%
%ADD25RoundRect,0.350000X0.650000X-0.412500X0.650000X0.412500X-0.650000X0.412500X-0.650000X-0.412500X0*%
%ADD26RoundRect,0.350000X-1.425000X0.362500X-1.425000X-0.362500X1.425000X-0.362500X1.425000X0.362500X0*%
%ADD27RoundRect,0.300000X-0.200000X-0.275000X0.200000X-0.275000X0.200000X0.275000X-0.200000X0.275000X0*%
%ADD28RoundRect,0.187500X0.212500X0.087500X-0.212500X0.087500X-0.212500X-0.087500X0.212500X-0.087500X0*%
%ADD29RoundRect,0.100000X0.900000X1.300000X-0.900000X1.300000X-0.900000X-1.300000X0.900000X-1.300000X0*%
%ADD30RoundRect,0.325000X-0.250000X0.225000X-0.250000X-0.225000X0.250000X-0.225000X0.250000X0.225000X0*%
%ADD31RoundRect,0.100000X-0.900000X1.250000X-0.900000X-1.250000X0.900000X-1.250000X0.900000X1.250000X0*%
%ADD32RoundRect,0.350000X0.475000X-0.250000X0.475000X0.250000X-0.475000X0.250000X-0.475000X-0.250000X0*%
%ADD33RoundRect,0.250000X0.512500X0.150000X-0.512500X0.150000X-0.512500X-0.150000X0.512500X-0.150000X0*%
%ADD34RoundRect,0.100000X0.255000X0.380000X-0.255000X0.380000X-0.255000X-0.380000X0.255000X-0.380000X0*%
%ADD35RoundRect,0.100000X2.260000X-1.985000X2.260000X1.985000X-2.260000X1.985000X-2.260000X-1.985000X0*%
%ADD36RoundRect,0.100000X-0.300000X-0.225000X0.300000X-0.225000X0.300000X0.225000X-0.300000X0.225000X0*%
%ADD37RoundRect,0.350000X0.250000X0.475000X-0.250000X0.475000X-0.250000X-0.475000X0.250000X-0.475000X0*%
%ADD38RoundRect,0.350000X-0.650000X0.412500X-0.650000X-0.412500X0.650000X-0.412500X0.650000X0.412500X0*%
%ADD39RoundRect,0.325000X0.250000X-0.225000X0.250000X0.225000X-0.250000X0.225000X-0.250000X-0.225000X0*%
%ADD40RoundRect,0.100000X0.900000X-1.250000X0.900000X1.250000X-0.900000X1.250000X-0.900000X-1.250000X0*%
%ADD41RoundRect,0.300000X-0.275000X0.200000X-0.275000X-0.200000X0.275000X-0.200000X0.275000X0.200000X0*%
%ADD42RoundRect,0.350000X0.412500X0.650000X-0.412500X0.650000X-0.412500X-0.650000X0.412500X-0.650000X0*%
%ADD43RoundRect,0.350000X-0.312500X-0.625000X0.312500X-0.625000X0.312500X0.625000X-0.312500X0.625000X0*%
%ADD44RoundRect,0.300000X0.275000X-0.200000X0.275000X0.200000X-0.275000X0.200000X-0.275000X-0.200000X0*%
%ADD45RoundRect,0.325000X0.225000X0.250000X-0.225000X0.250000X-0.225000X-0.250000X0.225000X-0.250000X0*%
%ADD46O,2.000000X2.600000*%
%ADD47RoundRect,0.290000X0.285000X0.685000X-0.285000X0.685000X-0.285000X-0.685000X0.285000X-0.685000X0*%
%ADD48RoundRect,0.100000X0.900000X3.750000X-0.900000X3.750000X-0.900000X-3.750000X0.900000X-3.750000X0*%
%ADD49RoundRect,0.300000X0.200000X0.275000X-0.200000X0.275000X-0.200000X-0.275000X0.200000X-0.275000X0*%
%ADD50RoundRect,0.318750X0.256250X-0.218750X0.256250X0.218750X-0.256250X0.218750X-0.256250X-0.218750X0*%
%ADD51RoundRect,0.250000X0.825000X0.150000X-0.825000X0.150000X-0.825000X-0.150000X0.825000X-0.150000X0*%
%ADD52RoundRect,0.100000X1.145000X1.500000X-1.145000X1.500000X-1.145000X-1.500000X1.145000X-1.500000X0*%
%ADD53RoundRect,0.350000X-0.475000X0.250000X-0.475000X-0.250000X0.475000X-0.250000X0.475000X0.250000X0*%
%ADD54RoundRect,0.250000X-0.150000X0.512500X-0.150000X-0.512500X0.150000X-0.512500X0.150000X0.512500X0*%
%ADD55RoundRect,0.318750X0.218750X0.256250X-0.218750X0.256250X-0.218750X-0.256250X0.218750X-0.256250X0*%
%ADD56RoundRect,0.100000X0.200000X-0.325000X0.200000X0.325000X-0.200000X0.325000X-0.200000X-0.325000X0*%
G04 APERTURE END LIST*
D10*
X10667978Y-1390081D02*
G75*
G03*
X10667978Y-1390081I-175000J0D01*
G01*
X10602708Y-9355821D02*
G75*
G03*
X10602708Y-9355821I-175000J0D01*
G01*
X10598743Y-19110819D02*
G75*
G03*
X10598743Y-19110819I-175000J0D01*
G01*
X10594870Y-26716678D02*
G75*
G03*
X10594870Y-26716678I-175000J0D01*
G01*
X-2382983Y-13432000D02*
G75*
G03*
X-2382983Y-13432000I-175000J0D01*
G01*
X-2261182Y-2218501D02*
G75*
G03*
X-2261182Y-2218501I-175000J0D01*
G01*
X-2564031Y29305097D02*
G75*
G03*
X-2564031Y29305097I-175000J0D01*
G01*
D11*
%TO.C,U2*%
X-15062286Y10652858D02*
X-15062286Y9924286D01*
X-15105143Y9838572D01*
X-15148000Y9795715D01*
X-15233715Y9752858D01*
X-15405143Y9752858D01*
X-15490858Y9795715D01*
X-15533715Y9838572D01*
X-15576572Y9924286D01*
X-15576572Y10652858D01*
X-15962286Y10567143D02*
X-16005143Y10610000D01*
X-16090858Y10652858D01*
X-16305143Y10652858D01*
X-16390858Y10610000D01*
X-16433715Y10567143D01*
X-16476572Y10481429D01*
X-16476572Y10395715D01*
X-16433715Y10267143D01*
X-15919429Y9752858D01*
X-16476572Y9752858D01*
%TO.C,C21*%
X-7295429Y-12259428D02*
X-7252572Y-12302285D01*
X-7124000Y-12345142D01*
X-7038286Y-12345142D01*
X-6909715Y-12302285D01*
X-6824000Y-12216571D01*
X-6781143Y-12130857D01*
X-6738286Y-11959428D01*
X-6738286Y-11830857D01*
X-6781143Y-11659428D01*
X-6824000Y-11573714D01*
X-6909715Y-11488000D01*
X-7038286Y-11445142D01*
X-7124000Y-11445142D01*
X-7252572Y-11488000D01*
X-7295429Y-11530857D01*
X-7638286Y-11530857D02*
X-7681143Y-11488000D01*
X-7766858Y-11445142D01*
X-7981143Y-11445142D01*
X-8066858Y-11488000D01*
X-8109715Y-11530857D01*
X-8152572Y-11616571D01*
X-8152572Y-11702285D01*
X-8109715Y-11830857D01*
X-7595429Y-12345142D01*
X-8152572Y-12345142D01*
X-9009715Y-12345142D02*
X-8495429Y-12345142D01*
X-8752572Y-12345142D02*
X-8752572Y-11445142D01*
X-8666858Y-11573714D01*
X-8581143Y-11659428D01*
X-8495429Y-11702285D01*
%TO.C,C13*%
X-22538572Y20390572D02*
X-22495715Y20433429D01*
X-22452858Y20562000D01*
X-22452858Y20647715D01*
X-22495715Y20776286D01*
X-22581429Y20862000D01*
X-22667143Y20904858D01*
X-22838572Y20947715D01*
X-22967143Y20947715D01*
X-23138572Y20904858D01*
X-23224286Y20862000D01*
X-23310000Y20776286D01*
X-23352858Y20647715D01*
X-23352858Y20562000D01*
X-23310000Y20433429D01*
X-23267143Y20390572D01*
X-22452858Y19533429D02*
X-22452858Y20047715D01*
X-22452858Y19790572D02*
X-23352858Y19790572D01*
X-23224286Y19876286D01*
X-23138572Y19962000D01*
X-23095715Y20047715D01*
X-23352858Y19233429D02*
X-23352858Y18676286D01*
X-23010000Y18976286D01*
X-23010000Y18847715D01*
X-22967143Y18762000D01*
X-22924286Y18719143D01*
X-22838572Y18676286D01*
X-22624286Y18676286D01*
X-22538572Y18719143D01*
X-22495715Y18762000D01*
X-22452858Y18847715D01*
X-22452858Y19104858D01*
X-22495715Y19190572D01*
X-22538572Y19233429D01*
%TO.C,R1*%
X12850000Y15377858D02*
X13150000Y15806429D01*
X13364285Y15377858D02*
X13364285Y16277858D01*
X13021428Y16277858D01*
X12935714Y16235000D01*
X12892857Y16192143D01*
X12850000Y16106429D01*
X12850000Y15977858D01*
X12892857Y15892143D01*
X12935714Y15849286D01*
X13021428Y15806429D01*
X13364285Y15806429D01*
X11992857Y15377858D02*
X12507142Y15377858D01*
X12250000Y15377858D02*
X12250000Y16277858D01*
X12335714Y16149286D01*
X12421428Y16063572D01*
X12507142Y16020715D01*
%TO.C,R17*%
X-11740429Y-9932142D02*
X-11440429Y-9503571D01*
X-11226143Y-9932142D02*
X-11226143Y-9032142D01*
X-11569000Y-9032142D01*
X-11654715Y-9075000D01*
X-11697572Y-9117857D01*
X-11740429Y-9203571D01*
X-11740429Y-9332142D01*
X-11697572Y-9417857D01*
X-11654715Y-9460714D01*
X-11569000Y-9503571D01*
X-11226143Y-9503571D01*
X-12597572Y-9932142D02*
X-12083286Y-9932142D01*
X-12340429Y-9932142D02*
X-12340429Y-9032142D01*
X-12254715Y-9160714D01*
X-12169000Y-9246428D01*
X-12083286Y-9289285D01*
X-12897572Y-9032142D02*
X-13497572Y-9032142D01*
X-13111858Y-9932142D01*
%TO.C,U5*%
X-7985858Y-14046285D02*
X-7257286Y-14046285D01*
X-7171572Y-14089142D01*
X-7128715Y-14132000D01*
X-7085858Y-14217714D01*
X-7085858Y-14389142D01*
X-7128715Y-14474857D01*
X-7171572Y-14517714D01*
X-7257286Y-14560571D01*
X-7985858Y-14560571D01*
X-7985858Y-15417714D02*
X-7985858Y-14989142D01*
X-7557286Y-14946285D01*
X-7600143Y-14989142D01*
X-7643000Y-15074857D01*
X-7643000Y-15289142D01*
X-7600143Y-15374857D01*
X-7557286Y-15417714D01*
X-7471572Y-15460571D01*
X-7257286Y-15460571D01*
X-7171572Y-15417714D01*
X-7128715Y-15374857D01*
X-7085858Y-15289142D01*
X-7085858Y-15074857D01*
X-7128715Y-14989142D01*
X-7171572Y-14946285D01*
%TO.C,C15*%
X-21936572Y15056572D02*
X-21893715Y15099429D01*
X-21850858Y15228000D01*
X-21850858Y15313715D01*
X-21893715Y15442286D01*
X-21979429Y15528000D01*
X-22065143Y15570858D01*
X-22236572Y15613715D01*
X-22365143Y15613715D01*
X-22536572Y15570858D01*
X-22622286Y15528000D01*
X-22708000Y15442286D01*
X-22750858Y15313715D01*
X-22750858Y15228000D01*
X-22708000Y15099429D01*
X-22665143Y15056572D01*
X-21850858Y14199429D02*
X-21850858Y14713715D01*
X-21850858Y14456572D02*
X-22750858Y14456572D01*
X-22622286Y14542286D01*
X-22536572Y14628000D01*
X-22493715Y14713715D01*
X-22750858Y13385143D02*
X-22750858Y13813715D01*
X-22322286Y13856572D01*
X-22365143Y13813715D01*
X-22408000Y13728000D01*
X-22408000Y13513715D01*
X-22365143Y13428000D01*
X-22322286Y13385143D01*
X-22236572Y13342286D01*
X-22022286Y13342286D01*
X-21936572Y13385143D01*
X-21893715Y13428000D01*
X-21850858Y13513715D01*
X-21850858Y13728000D01*
X-21893715Y13813715D01*
X-21936572Y13856572D01*
%TO.C,D6*%
X16220142Y-8352714D02*
X15320142Y-8352714D01*
X15320142Y-8567000D01*
X15363000Y-8695571D01*
X15448714Y-8781285D01*
X15534428Y-8824142D01*
X15705857Y-8867000D01*
X15834428Y-8867000D01*
X16005857Y-8824142D01*
X16091571Y-8781285D01*
X16177285Y-8695571D01*
X16220142Y-8567000D01*
X16220142Y-8352714D01*
X15320142Y-9638428D02*
X15320142Y-9467000D01*
X15363000Y-9381285D01*
X15405857Y-9338428D01*
X15534428Y-9252714D01*
X15705857Y-9209857D01*
X16048714Y-9209857D01*
X16134428Y-9252714D01*
X16177285Y-9295571D01*
X16220142Y-9381285D01*
X16220142Y-9552714D01*
X16177285Y-9638428D01*
X16134428Y-9681285D01*
X16048714Y-9724142D01*
X15834428Y-9724142D01*
X15748714Y-9681285D01*
X15705857Y-9638428D01*
X15663000Y-9552714D01*
X15663000Y-9381285D01*
X15705857Y-9295571D01*
X15748714Y-9252714D01*
X15834428Y-9209857D01*
%TO.C,C8*%
X-5057000Y22411572D02*
X-5014143Y22368715D01*
X-4885572Y22325858D01*
X-4799858Y22325858D01*
X-4671286Y22368715D01*
X-4585572Y22454429D01*
X-4542715Y22540143D01*
X-4499858Y22711572D01*
X-4499858Y22840143D01*
X-4542715Y23011572D01*
X-4585572Y23097286D01*
X-4671286Y23183000D01*
X-4799858Y23225858D01*
X-4885572Y23225858D01*
X-5014143Y23183000D01*
X-5057000Y23140143D01*
X-5571286Y22840143D02*
X-5485572Y22883000D01*
X-5442715Y22925858D01*
X-5399858Y23011572D01*
X-5399858Y23054429D01*
X-5442715Y23140143D01*
X-5485572Y23183000D01*
X-5571286Y23225858D01*
X-5742715Y23225858D01*
X-5828429Y23183000D01*
X-5871286Y23140143D01*
X-5914143Y23054429D01*
X-5914143Y23011572D01*
X-5871286Y22925858D01*
X-5828429Y22883000D01*
X-5742715Y22840143D01*
X-5571286Y22840143D01*
X-5485572Y22797286D01*
X-5442715Y22754429D01*
X-5399858Y22668715D01*
X-5399858Y22497286D01*
X-5442715Y22411572D01*
X-5485572Y22368715D01*
X-5571286Y22325858D01*
X-5742715Y22325858D01*
X-5828429Y22368715D01*
X-5871286Y22411572D01*
X-5914143Y22497286D01*
X-5914143Y22668715D01*
X-5871286Y22754429D01*
X-5828429Y22797286D01*
X-5742715Y22840143D01*
%TO.C,U9*%
X-746858Y-28651285D02*
X-18286Y-28651285D01*
X67428Y-28694142D01*
X110285Y-28737000D01*
X153142Y-28822714D01*
X153142Y-28994142D01*
X110285Y-29079857D01*
X67428Y-29122714D01*
X-18286Y-29165571D01*
X-746858Y-29165571D01*
X153142Y-29637000D02*
X153142Y-29808428D01*
X110285Y-29894142D01*
X67428Y-29937000D01*
X-61143Y-30022714D01*
X-232572Y-30065571D01*
X-575429Y-30065571D01*
X-661143Y-30022714D01*
X-704000Y-29979857D01*
X-746858Y-29894142D01*
X-746858Y-29722714D01*
X-704000Y-29637000D01*
X-661143Y-29594142D01*
X-575429Y-29551285D01*
X-361143Y-29551285D01*
X-275429Y-29594142D01*
X-232572Y-29637000D01*
X-189715Y-29722714D01*
X-189715Y-29894142D01*
X-232572Y-29979857D01*
X-275429Y-30022714D01*
X-361143Y-30065571D01*
%TO.C,Q2*%
X9737714Y-2524857D02*
X9823428Y-2482000D01*
X9909142Y-2396285D01*
X10037714Y-2267714D01*
X10123428Y-2224857D01*
X10209142Y-2224857D01*
X10166285Y-2439142D02*
X10252000Y-2396285D01*
X10337714Y-2310571D01*
X10380571Y-2139142D01*
X10380571Y-1839142D01*
X10337714Y-1667714D01*
X10252000Y-1582000D01*
X10166285Y-1539142D01*
X9994857Y-1539142D01*
X9909142Y-1582000D01*
X9823428Y-1667714D01*
X9780571Y-1839142D01*
X9780571Y-2139142D01*
X9823428Y-2310571D01*
X9909142Y-2396285D01*
X9994857Y-2439142D01*
X10166285Y-2439142D01*
X9437714Y-1624857D02*
X9394857Y-1582000D01*
X9309142Y-1539142D01*
X9094857Y-1539142D01*
X9009142Y-1582000D01*
X8966285Y-1624857D01*
X8923428Y-1710571D01*
X8923428Y-1796285D01*
X8966285Y-1924857D01*
X9480571Y-2439142D01*
X8923428Y-2439142D01*
%TO.C,R7*%
X3330499Y-5995142D02*
X3630499Y-5566571D01*
X3844784Y-5995142D02*
X3844784Y-5095142D01*
X3501927Y-5095142D01*
X3416213Y-5138000D01*
X3373356Y-5180857D01*
X3330499Y-5266571D01*
X3330499Y-5395142D01*
X3373356Y-5480857D01*
X3416213Y-5523714D01*
X3501927Y-5566571D01*
X3844784Y-5566571D01*
X3030499Y-5095142D02*
X2430499Y-5095142D01*
X2816213Y-5995142D01*
%TO.C,D4*%
X3971784Y-7989643D02*
X3971784Y-7089643D01*
X3757499Y-7089643D01*
X3628927Y-7132501D01*
X3543213Y-7218215D01*
X3500356Y-7303929D01*
X3457499Y-7475358D01*
X3457499Y-7603929D01*
X3500356Y-7775358D01*
X3543213Y-7861072D01*
X3628927Y-7946786D01*
X3757499Y-7989643D01*
X3971784Y-7989643D01*
X2686070Y-7389643D02*
X2686070Y-7989643D01*
X2900356Y-7046786D02*
X3114641Y-7689643D01*
X2557499Y-7689643D01*
%TO.C,U3*%
X-3989785Y-5438643D02*
X-3989785Y-6167215D01*
X-4032642Y-6252929D01*
X-4075499Y-6295786D01*
X-4161214Y-6338643D01*
X-4332642Y-6338643D01*
X-4418357Y-6295786D01*
X-4461214Y-6252929D01*
X-4504071Y-6167215D01*
X-4504071Y-5438643D01*
X-4846928Y-5438643D02*
X-5404071Y-5438643D01*
X-5104071Y-5781501D01*
X-5232642Y-5781501D01*
X-5318357Y-5824358D01*
X-5361214Y-5867215D01*
X-5404071Y-5952929D01*
X-5404071Y-6167215D01*
X-5361214Y-6252929D01*
X-5318357Y-6295786D01*
X-5232642Y-6338643D01*
X-4975499Y-6338643D01*
X-4889785Y-6295786D01*
X-4846928Y-6252929D01*
%TO.C,C1*%
X-6708000Y-702428D02*
X-6665143Y-745285D01*
X-6536572Y-788142D01*
X-6450858Y-788142D01*
X-6322286Y-745285D01*
X-6236572Y-659571D01*
X-6193715Y-573857D01*
X-6150858Y-402428D01*
X-6150858Y-273857D01*
X-6193715Y-102428D01*
X-6236572Y-16714D01*
X-6322286Y69000D01*
X-6450858Y111858D01*
X-6536572Y111858D01*
X-6665143Y69000D01*
X-6708000Y26143D01*
X-7565143Y-788142D02*
X-7050858Y-788142D01*
X-7308000Y-788142D02*
X-7308000Y111858D01*
X-7222286Y-16714D01*
X-7136572Y-102428D01*
X-7050858Y-145285D01*
%TO.C,C20*%
X4002571Y-15053428D02*
X4045428Y-15096285D01*
X4174000Y-15139142D01*
X4259714Y-15139142D01*
X4388285Y-15096285D01*
X4474000Y-15010571D01*
X4516857Y-14924857D01*
X4559714Y-14753428D01*
X4559714Y-14624857D01*
X4516857Y-14453428D01*
X4474000Y-14367714D01*
X4388285Y-14282000D01*
X4259714Y-14239142D01*
X4174000Y-14239142D01*
X4045428Y-14282000D01*
X4002571Y-14324857D01*
X3659714Y-14324857D02*
X3616857Y-14282000D01*
X3531142Y-14239142D01*
X3316857Y-14239142D01*
X3231142Y-14282000D01*
X3188285Y-14324857D01*
X3145428Y-14410571D01*
X3145428Y-14496285D01*
X3188285Y-14624857D01*
X3702571Y-15139142D01*
X3145428Y-15139142D01*
X2588285Y-14239142D02*
X2502571Y-14239142D01*
X2416857Y-14282000D01*
X2374000Y-14324857D01*
X2331142Y-14410571D01*
X2288285Y-14582000D01*
X2288285Y-14796285D01*
X2331142Y-14967714D01*
X2374000Y-15053428D01*
X2416857Y-15096285D01*
X2502571Y-15139142D01*
X2588285Y-15139142D01*
X2674000Y-15096285D01*
X2716857Y-15053428D01*
X2759714Y-14967714D01*
X2802571Y-14796285D01*
X2802571Y-14582000D01*
X2759714Y-14410571D01*
X2716857Y-14324857D01*
X2674000Y-14282000D01*
X2588285Y-14239142D01*
%TO.C,C11*%
X-10092572Y10056572D02*
X-10049715Y10099429D01*
X-10006858Y10228000D01*
X-10006858Y10313715D01*
X-10049715Y10442286D01*
X-10135429Y10528000D01*
X-10221143Y10570858D01*
X-10392572Y10613715D01*
X-10521143Y10613715D01*
X-10692572Y10570858D01*
X-10778286Y10528000D01*
X-10864000Y10442286D01*
X-10906858Y10313715D01*
X-10906858Y10228000D01*
X-10864000Y10099429D01*
X-10821143Y10056572D01*
X-10006858Y9199429D02*
X-10006858Y9713715D01*
X-10006858Y9456572D02*
X-10906858Y9456572D01*
X-10778286Y9542286D01*
X-10692572Y9628000D01*
X-10649715Y9713715D01*
X-10006858Y8342286D02*
X-10006858Y8856572D01*
X-10006858Y8599429D02*
X-10906858Y8599429D01*
X-10778286Y8685143D01*
X-10692572Y8770858D01*
X-10649715Y8856572D01*
%TO.C,C22*%
X-6787429Y1456572D02*
X-6744572Y1413715D01*
X-6616000Y1370858D01*
X-6530286Y1370858D01*
X-6401715Y1413715D01*
X-6316000Y1499429D01*
X-6273143Y1585143D01*
X-6230286Y1756572D01*
X-6230286Y1885143D01*
X-6273143Y2056572D01*
X-6316000Y2142286D01*
X-6401715Y2228000D01*
X-6530286Y2270858D01*
X-6616000Y2270858D01*
X-6744572Y2228000D01*
X-6787429Y2185143D01*
X-7130286Y2185143D02*
X-7173143Y2228000D01*
X-7258858Y2270858D01*
X-7473143Y2270858D01*
X-7558858Y2228000D01*
X-7601715Y2185143D01*
X-7644572Y2099429D01*
X-7644572Y2013715D01*
X-7601715Y1885143D01*
X-7087429Y1370858D01*
X-7644572Y1370858D01*
X-7987429Y2185143D02*
X-8030286Y2228000D01*
X-8116000Y2270858D01*
X-8330286Y2270858D01*
X-8416000Y2228000D01*
X-8458858Y2185143D01*
X-8501715Y2099429D01*
X-8501715Y2013715D01*
X-8458858Y1885143D01*
X-7944572Y1370858D01*
X-8501715Y1370858D01*
%TO.C,R4*%
X-12296000Y-12472142D02*
X-11996000Y-12043571D01*
X-11781715Y-12472142D02*
X-11781715Y-11572142D01*
X-12124572Y-11572142D01*
X-12210286Y-11615000D01*
X-12253143Y-11657857D01*
X-12296000Y-11743571D01*
X-12296000Y-11872142D01*
X-12253143Y-11957857D01*
X-12210286Y-12000714D01*
X-12124572Y-12043571D01*
X-11781715Y-12043571D01*
X-13067429Y-11872142D02*
X-13067429Y-12472142D01*
X-12853143Y-11529285D02*
X-12638858Y-12172142D01*
X-13196000Y-12172142D01*
%TO.C,D1*%
X4217142Y24794286D02*
X3317142Y24794286D01*
X3317142Y24580000D01*
X3360000Y24451429D01*
X3445714Y24365715D01*
X3531428Y24322858D01*
X3702857Y24280000D01*
X3831428Y24280000D01*
X4002857Y24322858D01*
X4088571Y24365715D01*
X4174285Y24451429D01*
X4217142Y24580000D01*
X4217142Y24794286D01*
X4217142Y23422858D02*
X4217142Y23937143D01*
X4217142Y23680000D02*
X3317142Y23680000D01*
X3445714Y23765715D01*
X3531428Y23851429D01*
X3574285Y23937143D01*
%TO.C,C17*%
X4140070Y-3877428D02*
X4182927Y-3920285D01*
X4311499Y-3963142D01*
X4397213Y-3963142D01*
X4525784Y-3920285D01*
X4611499Y-3834571D01*
X4654356Y-3748857D01*
X4697213Y-3577428D01*
X4697213Y-3448857D01*
X4654356Y-3277428D01*
X4611499Y-3191714D01*
X4525784Y-3106000D01*
X4397213Y-3063142D01*
X4311499Y-3063142D01*
X4182927Y-3106000D01*
X4140070Y-3148857D01*
X3282927Y-3963142D02*
X3797213Y-3963142D01*
X3540070Y-3963142D02*
X3540070Y-3063142D01*
X3625784Y-3191714D01*
X3711499Y-3277428D01*
X3797213Y-3320285D01*
X2982927Y-3063142D02*
X2382927Y-3063142D01*
X2768641Y-3963142D01*
%TO.C,R8*%
X-13629000Y2640858D02*
X-13329000Y3069429D01*
X-13114715Y2640858D02*
X-13114715Y3540858D01*
X-13457572Y3540858D01*
X-13543286Y3498000D01*
X-13586143Y3455143D01*
X-13629000Y3369429D01*
X-13629000Y3240858D01*
X-13586143Y3155143D01*
X-13543286Y3112286D01*
X-13457572Y3069429D01*
X-13114715Y3069429D01*
X-14143286Y3155143D02*
X-14057572Y3198000D01*
X-14014715Y3240858D01*
X-13971858Y3326572D01*
X-13971858Y3369429D01*
X-14014715Y3455143D01*
X-14057572Y3498000D01*
X-14143286Y3540858D01*
X-14314715Y3540858D01*
X-14400429Y3498000D01*
X-14443286Y3455143D01*
X-14486143Y3369429D01*
X-14486143Y3326572D01*
X-14443286Y3240858D01*
X-14400429Y3198000D01*
X-14314715Y3155143D01*
X-14143286Y3155143D01*
X-14057572Y3112286D01*
X-14014715Y3069429D01*
X-13971858Y2983715D01*
X-13971858Y2812286D01*
X-14014715Y2726572D01*
X-14057572Y2683715D01*
X-14143286Y2640858D01*
X-14314715Y2640858D01*
X-14400429Y2683715D01*
X-14443286Y2726572D01*
X-14486143Y2812286D01*
X-14486143Y2983715D01*
X-14443286Y3069429D01*
X-14400429Y3112286D01*
X-14314715Y3155143D01*
%TO.C,R13*%
X-2279715Y9544096D02*
X-2013048Y9925048D01*
X-1822572Y9544096D02*
X-1822572Y10344096D01*
X-2127334Y10344096D01*
X-2203524Y10306000D01*
X-2241620Y10267905D01*
X-2279715Y10191715D01*
X-2279715Y10077429D01*
X-2241620Y10001239D01*
X-2203524Y9963143D01*
X-2127334Y9925048D01*
X-1822572Y9925048D01*
X-3041620Y9544096D02*
X-2584477Y9544096D01*
X-2813048Y9544096D02*
X-2813048Y10344096D01*
X-2736858Y10229810D01*
X-2660667Y10153620D01*
X-2584477Y10115524D01*
X-3308286Y10344096D02*
X-3803524Y10344096D01*
X-3536858Y10039334D01*
X-3651143Y10039334D01*
X-3727334Y10001239D01*
X-3765429Y9963143D01*
X-3803524Y9886953D01*
X-3803524Y9696477D01*
X-3765429Y9620286D01*
X-3727334Y9582191D01*
X-3651143Y9544096D01*
X-3422572Y9544096D01*
X-3346381Y9582191D01*
X-3308286Y9620286D01*
%TO.C,C10*%
X-10597429Y29193372D02*
X-10554572Y29150515D01*
X-10426000Y29107658D01*
X-10340286Y29107658D01*
X-10211715Y29150515D01*
X-10126000Y29236229D01*
X-10083143Y29321943D01*
X-10040286Y29493372D01*
X-10040286Y29621943D01*
X-10083143Y29793372D01*
X-10126000Y29879086D01*
X-10211715Y29964800D01*
X-10340286Y30007658D01*
X-10426000Y30007658D01*
X-10554572Y29964800D01*
X-10597429Y29921943D01*
X-11454572Y29107658D02*
X-10940286Y29107658D01*
X-11197429Y29107658D02*
X-11197429Y30007658D01*
X-11111715Y29879086D01*
X-11026000Y29793372D01*
X-10940286Y29750515D01*
X-12011715Y30007658D02*
X-12097429Y30007658D01*
X-12183143Y29964800D01*
X-12226000Y29921943D01*
X-12268858Y29836229D01*
X-12311715Y29664800D01*
X-12311715Y29450515D01*
X-12268858Y29279086D01*
X-12226000Y29193372D01*
X-12183143Y29150515D01*
X-12097429Y29107658D01*
X-12011715Y29107658D01*
X-11926000Y29150515D01*
X-11883143Y29193372D01*
X-11840286Y29279086D01*
X-11797429Y29450515D01*
X-11797429Y29664800D01*
X-11840286Y29836229D01*
X-11883143Y29921943D01*
X-11926000Y29964800D01*
X-12011715Y30007658D01*
%TO.C,Q1*%
X11515714Y4587143D02*
X11601428Y4630000D01*
X11687142Y4715715D01*
X11815714Y4844286D01*
X11901428Y4887143D01*
X11987142Y4887143D01*
X11944285Y4672858D02*
X12030000Y4715715D01*
X12115714Y4801429D01*
X12158571Y4972858D01*
X12158571Y5272858D01*
X12115714Y5444286D01*
X12030000Y5530000D01*
X11944285Y5572858D01*
X11772857Y5572858D01*
X11687142Y5530000D01*
X11601428Y5444286D01*
X11558571Y5272858D01*
X11558571Y4972858D01*
X11601428Y4801429D01*
X11687142Y4715715D01*
X11772857Y4672858D01*
X11944285Y4672858D01*
X10701428Y4672858D02*
X11215714Y4672858D01*
X10958571Y4672858D02*
X10958571Y5572858D01*
X11044285Y5444286D01*
X11130000Y5358572D01*
X11215714Y5315715D01*
%TO.C,D2*%
X6757142Y16629286D02*
X5857142Y16629286D01*
X5857142Y16415000D01*
X5900000Y16286429D01*
X5985714Y16200715D01*
X6071428Y16157858D01*
X6242857Y16115000D01*
X6371428Y16115000D01*
X6542857Y16157858D01*
X6628571Y16200715D01*
X6714285Y16286429D01*
X6757142Y16415000D01*
X6757142Y16629286D01*
X5942857Y15772143D02*
X5900000Y15729286D01*
X5857142Y15643572D01*
X5857142Y15429286D01*
X5900000Y15343572D01*
X5942857Y15300715D01*
X6028571Y15257858D01*
X6114285Y15257858D01*
X6242857Y15300715D01*
X6757142Y15815000D01*
X6757142Y15257858D01*
%TO.C,C3*%
X17865000Y2253572D02*
X17907857Y2210715D01*
X18036428Y2167858D01*
X18122142Y2167858D01*
X18250714Y2210715D01*
X18336428Y2296429D01*
X18379285Y2382143D01*
X18422142Y2553572D01*
X18422142Y2682143D01*
X18379285Y2853572D01*
X18336428Y2939286D01*
X18250714Y3025000D01*
X18122142Y3067858D01*
X18036428Y3067858D01*
X17907857Y3025000D01*
X17865000Y2982143D01*
X17565000Y3067858D02*
X17007857Y3067858D01*
X17307857Y2725000D01*
X17179285Y2725000D01*
X17093571Y2682143D01*
X17050714Y2639286D01*
X17007857Y2553572D01*
X17007857Y2339286D01*
X17050714Y2253572D01*
X17093571Y2210715D01*
X17179285Y2167858D01*
X17436428Y2167858D01*
X17522142Y2210715D01*
X17565000Y2253572D01*
%TO.C,C14*%
X21149428Y-12883428D02*
X21192285Y-12840571D01*
X21235142Y-12712000D01*
X21235142Y-12626285D01*
X21192285Y-12497714D01*
X21106571Y-12412000D01*
X21020857Y-12369142D01*
X20849428Y-12326285D01*
X20720857Y-12326285D01*
X20549428Y-12369142D01*
X20463714Y-12412000D01*
X20378000Y-12497714D01*
X20335142Y-12626285D01*
X20335142Y-12712000D01*
X20378000Y-12840571D01*
X20420857Y-12883428D01*
X21235142Y-13740571D02*
X21235142Y-13226285D01*
X21235142Y-13483428D02*
X20335142Y-13483428D01*
X20463714Y-13397714D01*
X20549428Y-13312000D01*
X20592285Y-13226285D01*
X20635142Y-14512000D02*
X21235142Y-14512000D01*
X20292285Y-14297714D02*
X20935142Y-14083428D01*
X20935142Y-14640571D01*
%TO.C,Q3*%
X7705714Y-12176857D02*
X7791428Y-12134000D01*
X7877142Y-12048285D01*
X8005714Y-11919714D01*
X8091428Y-11876857D01*
X8177142Y-11876857D01*
X8134285Y-12091142D02*
X8220000Y-12048285D01*
X8305714Y-11962571D01*
X8348571Y-11791142D01*
X8348571Y-11491142D01*
X8305714Y-11319714D01*
X8220000Y-11234000D01*
X8134285Y-11191142D01*
X7962857Y-11191142D01*
X7877142Y-11234000D01*
X7791428Y-11319714D01*
X7748571Y-11491142D01*
X7748571Y-11791142D01*
X7791428Y-11962571D01*
X7877142Y-12048285D01*
X7962857Y-12091142D01*
X8134285Y-12091142D01*
X7448571Y-11191142D02*
X6891428Y-11191142D01*
X7191428Y-11534000D01*
X7062857Y-11534000D01*
X6977142Y-11576857D01*
X6934285Y-11619714D01*
X6891428Y-11705428D01*
X6891428Y-11919714D01*
X6934285Y-12005428D01*
X6977142Y-12048285D01*
X7062857Y-12091142D01*
X7320000Y-12091142D01*
X7405714Y-12048285D01*
X7448571Y-12005428D01*
%TO.C,Q4*%
X4556857Y-23282285D02*
X4514000Y-23196571D01*
X4428285Y-23110857D01*
X4299714Y-22982285D01*
X4256857Y-22896571D01*
X4256857Y-22810857D01*
X4471142Y-22853714D02*
X4428285Y-22768000D01*
X4342571Y-22682285D01*
X4171142Y-22639428D01*
X3871142Y-22639428D01*
X3699714Y-22682285D01*
X3614000Y-22768000D01*
X3571142Y-22853714D01*
X3571142Y-23025142D01*
X3614000Y-23110857D01*
X3699714Y-23196571D01*
X3871142Y-23239428D01*
X4171142Y-23239428D01*
X4342571Y-23196571D01*
X4428285Y-23110857D01*
X4471142Y-23025142D01*
X4471142Y-22853714D01*
X3871142Y-24010857D02*
X4471142Y-24010857D01*
X3528285Y-23796571D02*
X4171142Y-23582285D01*
X4171142Y-24139428D01*
%TO.C,R9*%
X-7978000Y22452858D02*
X-7678000Y22881429D01*
X-7463715Y22452858D02*
X-7463715Y23352858D01*
X-7806572Y23352858D01*
X-7892286Y23310000D01*
X-7935143Y23267143D01*
X-7978000Y23181429D01*
X-7978000Y23052858D01*
X-7935143Y22967143D01*
X-7892286Y22924286D01*
X-7806572Y22881429D01*
X-7463715Y22881429D01*
X-8406572Y22452858D02*
X-8578000Y22452858D01*
X-8663715Y22495715D01*
X-8706572Y22538572D01*
X-8792286Y22667143D01*
X-8835143Y22838572D01*
X-8835143Y23181429D01*
X-8792286Y23267143D01*
X-8749429Y23310000D01*
X-8663715Y23352858D01*
X-8492286Y23352858D01*
X-8406572Y23310000D01*
X-8363715Y23267143D01*
X-8320858Y23181429D01*
X-8320858Y22967143D01*
X-8363715Y22881429D01*
X-8406572Y22838572D01*
X-8492286Y22795715D01*
X-8663715Y22795715D01*
X-8749429Y22838572D01*
X-8792286Y22881429D01*
X-8835143Y22967143D01*
%TO.C,R20*%
X-7339858Y-25266428D02*
X-7768429Y-24966428D01*
X-7339858Y-24752142D02*
X-8239858Y-24752142D01*
X-8239858Y-25095000D01*
X-8197000Y-25180714D01*
X-8154143Y-25223571D01*
X-8068429Y-25266428D01*
X-7939858Y-25266428D01*
X-7854143Y-25223571D01*
X-7811286Y-25180714D01*
X-7768429Y-25095000D01*
X-7768429Y-24752142D01*
X-8154143Y-25609285D02*
X-8197000Y-25652142D01*
X-8239858Y-25737857D01*
X-8239858Y-25952142D01*
X-8197000Y-26037857D01*
X-8154143Y-26080714D01*
X-8068429Y-26123571D01*
X-7982715Y-26123571D01*
X-7854143Y-26080714D01*
X-7339858Y-25566428D01*
X-7339858Y-26123571D01*
X-8239858Y-26680714D02*
X-8239858Y-26766428D01*
X-8197000Y-26852142D01*
X-8154143Y-26895000D01*
X-8068429Y-26937857D01*
X-7897000Y-26980714D01*
X-7682715Y-26980714D01*
X-7511286Y-26937857D01*
X-7425572Y-26895000D01*
X-7382715Y-26852142D01*
X-7339858Y-26766428D01*
X-7339858Y-26680714D01*
X-7382715Y-26595000D01*
X-7425572Y-26552142D01*
X-7511286Y-26509285D01*
X-7682715Y-26466428D01*
X-7897000Y-26466428D01*
X-8068429Y-26509285D01*
X-8154143Y-26552142D01*
X-8197000Y-26595000D01*
X-8239858Y-26680714D01*
%TO.C,R5*%
X1931142Y10056000D02*
X1502571Y10356000D01*
X1931142Y10570286D02*
X1031142Y10570286D01*
X1031142Y10227429D01*
X1074000Y10141715D01*
X1116857Y10098858D01*
X1202571Y10056000D01*
X1331142Y10056000D01*
X1416857Y10098858D01*
X1459714Y10141715D01*
X1502571Y10227429D01*
X1502571Y10570286D01*
X1031142Y9241715D02*
X1031142Y9670286D01*
X1459714Y9713143D01*
X1416857Y9670286D01*
X1374000Y9584572D01*
X1374000Y9370286D01*
X1416857Y9284572D01*
X1459714Y9241715D01*
X1545428Y9198858D01*
X1759714Y9198858D01*
X1845428Y9241715D01*
X1888285Y9284572D01*
X1931142Y9370286D01*
X1931142Y9584572D01*
X1888285Y9670286D01*
X1845428Y9713143D01*
%TO.C,D8*%
X16031285Y-15774142D02*
X16031285Y-14874142D01*
X15817000Y-14874142D01*
X15688428Y-14917000D01*
X15602714Y-15002714D01*
X15559857Y-15088428D01*
X15517000Y-15259857D01*
X15517000Y-15388428D01*
X15559857Y-15559857D01*
X15602714Y-15645571D01*
X15688428Y-15731285D01*
X15817000Y-15774142D01*
X16031285Y-15774142D01*
X15002714Y-15259857D02*
X15088428Y-15217000D01*
X15131285Y-15174142D01*
X15174142Y-15088428D01*
X15174142Y-15045571D01*
X15131285Y-14959857D01*
X15088428Y-14917000D01*
X15002714Y-14874142D01*
X14831285Y-14874142D01*
X14745571Y-14917000D01*
X14702714Y-14959857D01*
X14659857Y-15045571D01*
X14659857Y-15088428D01*
X14702714Y-15174142D01*
X14745571Y-15217000D01*
X14831285Y-15259857D01*
X15002714Y-15259857D01*
X15088428Y-15302714D01*
X15131285Y-15345571D01*
X15174142Y-15431285D01*
X15174142Y-15602714D01*
X15131285Y-15688428D01*
X15088428Y-15731285D01*
X15002714Y-15774142D01*
X14831285Y-15774142D01*
X14745571Y-15731285D01*
X14702714Y-15688428D01*
X14659857Y-15602714D01*
X14659857Y-15431285D01*
X14702714Y-15345571D01*
X14745571Y-15302714D01*
X14831285Y-15259857D01*
%TO.C,C4*%
X1420000Y2599572D02*
X1462857Y2556715D01*
X1591428Y2513858D01*
X1677142Y2513858D01*
X1805714Y2556715D01*
X1891428Y2642429D01*
X1934285Y2728143D01*
X1977142Y2899572D01*
X1977142Y3028143D01*
X1934285Y3199572D01*
X1891428Y3285286D01*
X1805714Y3371000D01*
X1677142Y3413858D01*
X1591428Y3413858D01*
X1462857Y3371000D01*
X1420000Y3328143D01*
X648571Y3113858D02*
X648571Y2513858D01*
X862857Y3456715D02*
X1077142Y2813858D01*
X520000Y2813858D01*
%TO.C,R2*%
X8470000Y15377858D02*
X8770000Y15806429D01*
X8984285Y15377858D02*
X8984285Y16277858D01*
X8641428Y16277858D01*
X8555714Y16235000D01*
X8512857Y16192143D01*
X8470000Y16106429D01*
X8470000Y15977858D01*
X8512857Y15892143D01*
X8555714Y15849286D01*
X8641428Y15806429D01*
X8984285Y15806429D01*
X8127142Y16192143D02*
X8084285Y16235000D01*
X7998571Y16277858D01*
X7784285Y16277858D01*
X7698571Y16235000D01*
X7655714Y16192143D01*
X7612857Y16106429D01*
X7612857Y16020715D01*
X7655714Y15892143D01*
X8170000Y15377858D01*
X7612857Y15377858D01*
%TO.C,D17*%
X-13308858Y-28117142D02*
X-14208858Y-28117142D01*
X-14208858Y-28331428D01*
X-14166000Y-28460000D01*
X-14080286Y-28545714D01*
X-13994572Y-28588571D01*
X-13823143Y-28631428D01*
X-13694572Y-28631428D01*
X-13523143Y-28588571D01*
X-13437429Y-28545714D01*
X-13351715Y-28460000D01*
X-13308858Y-28331428D01*
X-13308858Y-28117142D01*
X-13308858Y-29488571D02*
X-13308858Y-28974285D01*
X-13308858Y-29231428D02*
X-14208858Y-29231428D01*
X-14080286Y-29145714D01*
X-13994572Y-29060000D01*
X-13951715Y-28974285D01*
X-14208858Y-29788571D02*
X-14208858Y-30388571D01*
X-13308858Y-30002857D01*
%TO.C,C18*%
X-7168429Y9330572D02*
X-7125572Y9287715D01*
X-6997000Y9244858D01*
X-6911286Y9244858D01*
X-6782715Y9287715D01*
X-6697000Y9373429D01*
X-6654143Y9459143D01*
X-6611286Y9630572D01*
X-6611286Y9759143D01*
X-6654143Y9930572D01*
X-6697000Y10016286D01*
X-6782715Y10102000D01*
X-6911286Y10144858D01*
X-6997000Y10144858D01*
X-7125572Y10102000D01*
X-7168429Y10059143D01*
X-8025572Y9244858D02*
X-7511286Y9244858D01*
X-7768429Y9244858D02*
X-7768429Y10144858D01*
X-7682715Y10016286D01*
X-7597000Y9930572D01*
X-7511286Y9887715D01*
X-8539858Y9759143D02*
X-8454143Y9802000D01*
X-8411286Y9844858D01*
X-8368429Y9930572D01*
X-8368429Y9973429D01*
X-8411286Y10059143D01*
X-8454143Y10102000D01*
X-8539858Y10144858D01*
X-8711286Y10144858D01*
X-8797000Y10102000D01*
X-8839858Y10059143D01*
X-8882715Y9973429D01*
X-8882715Y9930572D01*
X-8839858Y9844858D01*
X-8797000Y9802000D01*
X-8711286Y9759143D01*
X-8539858Y9759143D01*
X-8454143Y9716286D01*
X-8411286Y9673429D01*
X-8368429Y9587715D01*
X-8368429Y9416286D01*
X-8411286Y9330572D01*
X-8454143Y9287715D01*
X-8539858Y9244858D01*
X-8711286Y9244858D01*
X-8797000Y9287715D01*
X-8839858Y9330572D01*
X-8882715Y9416286D01*
X-8882715Y9587715D01*
X-8839858Y9673429D01*
X-8797000Y9716286D01*
X-8711286Y9759143D01*
%TO.C,L1*%
X1039000Y19531858D02*
X1467571Y19531858D01*
X1467571Y20431858D01*
X267571Y19531858D02*
X781857Y19531858D01*
X524714Y19531858D02*
X524714Y20431858D01*
X610428Y20303286D01*
X696142Y20217572D01*
X781857Y20174715D01*
%TO.C,C12*%
X-13521572Y26105572D02*
X-13478715Y26148429D01*
X-13435858Y26277000D01*
X-13435858Y26362715D01*
X-13478715Y26491286D01*
X-13564429Y26577000D01*
X-13650143Y26619858D01*
X-13821572Y26662715D01*
X-13950143Y26662715D01*
X-14121572Y26619858D01*
X-14207286Y26577000D01*
X-14293000Y26491286D01*
X-14335858Y26362715D01*
X-14335858Y26277000D01*
X-14293000Y26148429D01*
X-14250143Y26105572D01*
X-13435858Y25248429D02*
X-13435858Y25762715D01*
X-13435858Y25505572D02*
X-14335858Y25505572D01*
X-14207286Y25591286D01*
X-14121572Y25677000D01*
X-14078715Y25762715D01*
X-14250143Y24905572D02*
X-14293000Y24862715D01*
X-14335858Y24777000D01*
X-14335858Y24562715D01*
X-14293000Y24477000D01*
X-14250143Y24434143D01*
X-14164429Y24391286D01*
X-14078715Y24391286D01*
X-13950143Y24434143D01*
X-13435858Y24948429D01*
X-13435858Y24391286D01*
%TO.C,R10*%
X-7720858Y12135572D02*
X-8149429Y12435572D01*
X-7720858Y12649858D02*
X-8620858Y12649858D01*
X-8620858Y12307000D01*
X-8578000Y12221286D01*
X-8535143Y12178429D01*
X-8449429Y12135572D01*
X-8320858Y12135572D01*
X-8235143Y12178429D01*
X-8192286Y12221286D01*
X-8149429Y12307000D01*
X-8149429Y12649858D01*
X-7720858Y11278429D02*
X-7720858Y11792715D01*
X-7720858Y11535572D02*
X-8620858Y11535572D01*
X-8492286Y11621286D01*
X-8406572Y11707000D01*
X-8363715Y11792715D01*
X-8620858Y10721286D02*
X-8620858Y10635572D01*
X-8578000Y10549858D01*
X-8535143Y10507000D01*
X-8449429Y10464143D01*
X-8278000Y10421286D01*
X-8063715Y10421286D01*
X-7892286Y10464143D01*
X-7806572Y10507000D01*
X-7763715Y10549858D01*
X-7720858Y10635572D01*
X-7720858Y10721286D01*
X-7763715Y10807000D01*
X-7806572Y10849858D01*
X-7892286Y10892715D01*
X-8063715Y10935572D01*
X-8278000Y10935572D01*
X-8449429Y10892715D01*
X-8535143Y10849858D01*
X-8578000Y10807000D01*
X-8620858Y10721286D01*
%TO.C,D3*%
X3230142Y955785D02*
X2330142Y955785D01*
X2330142Y741499D01*
X2373000Y612928D01*
X2458714Y527214D01*
X2544428Y484357D01*
X2715857Y441499D01*
X2844428Y441499D01*
X3015857Y484357D01*
X3101571Y527214D01*
X3187285Y612928D01*
X3230142Y741499D01*
X3230142Y955785D01*
X2330142Y141499D02*
X2330142Y-415643D01*
X2673000Y-115643D01*
X2673000Y-244215D01*
X2715857Y-329929D01*
X2758714Y-372786D01*
X2844428Y-415643D01*
X3058714Y-415643D01*
X3144428Y-372786D01*
X3187285Y-329929D01*
X3230142Y-244215D01*
X3230142Y12928D01*
X3187285Y98642D01*
X3144428Y141499D01*
%TO.C,R12*%
X-7512096Y19310286D02*
X-7893048Y19576953D01*
X-7512096Y19767429D02*
X-8312096Y19767429D01*
X-8312096Y19462667D01*
X-8274000Y19386477D01*
X-8235905Y19348381D01*
X-8159715Y19310286D01*
X-8045429Y19310286D01*
X-7969239Y19348381D01*
X-7931143Y19386477D01*
X-7893048Y19462667D01*
X-7893048Y19767429D01*
X-7512096Y18548381D02*
X-7512096Y19005524D01*
X-7512096Y18776953D02*
X-8312096Y18776953D01*
X-8197810Y18853143D01*
X-8121620Y18929334D01*
X-8083524Y19005524D01*
X-8235905Y18243620D02*
X-8274000Y18205524D01*
X-8312096Y18129334D01*
X-8312096Y17938858D01*
X-8274000Y17862667D01*
X-8235905Y17824572D01*
X-8159715Y17786477D01*
X-8083524Y17786477D01*
X-7969239Y17824572D01*
X-7512096Y18281715D01*
X-7512096Y17786477D01*
%TO.C,D16*%
X-13308858Y-24942142D02*
X-14208858Y-24942142D01*
X-14208858Y-25156428D01*
X-14166000Y-25285000D01*
X-14080286Y-25370714D01*
X-13994572Y-25413571D01*
X-13823143Y-25456428D01*
X-13694572Y-25456428D01*
X-13523143Y-25413571D01*
X-13437429Y-25370714D01*
X-13351715Y-25285000D01*
X-13308858Y-25156428D01*
X-13308858Y-24942142D01*
X-13308858Y-26313571D02*
X-13308858Y-25799285D01*
X-13308858Y-26056428D02*
X-14208858Y-26056428D01*
X-14080286Y-25970714D01*
X-13994572Y-25885000D01*
X-13951715Y-25799285D01*
X-14208858Y-27085000D02*
X-14208858Y-26913571D01*
X-14166000Y-26827857D01*
X-14123143Y-26785000D01*
X-13994572Y-26699285D01*
X-13823143Y-26656428D01*
X-13480286Y-26656428D01*
X-13394572Y-26699285D01*
X-13351715Y-26742142D01*
X-13308858Y-26827857D01*
X-13308858Y-26999285D01*
X-13351715Y-27085000D01*
X-13394572Y-27127857D01*
X-13480286Y-27170714D01*
X-13694572Y-27170714D01*
X-13780286Y-27127857D01*
X-13823143Y-27085000D01*
X-13866000Y-26999285D01*
X-13866000Y-26827857D01*
X-13823143Y-26742142D01*
X-13780286Y-26699285D01*
X-13694572Y-26656428D01*
%TO.C,D14*%
X-4235572Y9544096D02*
X-4235572Y10344096D01*
X-4426048Y10344096D01*
X-4540334Y10306000D01*
X-4616524Y10229810D01*
X-4654620Y10153620D01*
X-4692715Y10001239D01*
X-4692715Y9886953D01*
X-4654620Y9734572D01*
X-4616524Y9658381D01*
X-4540334Y9582191D01*
X-4426048Y9544096D01*
X-4235572Y9544096D01*
X-5454620Y9544096D02*
X-4997477Y9544096D01*
X-5226048Y9544096D02*
X-5226048Y10344096D01*
X-5149858Y10229810D01*
X-5073667Y10153620D01*
X-4997477Y10115524D01*
X-6140334Y10077429D02*
X-6140334Y9544096D01*
X-5949858Y10382191D02*
X-5759381Y9810762D01*
X-6254620Y9810762D01*
%TO.C,D5*%
X16347142Y-986714D02*
X15447142Y-986714D01*
X15447142Y-1201000D01*
X15490000Y-1329571D01*
X15575714Y-1415285D01*
X15661428Y-1458142D01*
X15832857Y-1501000D01*
X15961428Y-1501000D01*
X16132857Y-1458142D01*
X16218571Y-1415285D01*
X16304285Y-1329571D01*
X16347142Y-1201000D01*
X16347142Y-986714D01*
X15447142Y-2315285D02*
X15447142Y-1886714D01*
X15875714Y-1843857D01*
X15832857Y-1886714D01*
X15790000Y-1972428D01*
X15790000Y-2186714D01*
X15832857Y-2272428D01*
X15875714Y-2315285D01*
X15961428Y-2358142D01*
X16175714Y-2358142D01*
X16261428Y-2315285D01*
X16304285Y-2272428D01*
X16347142Y-2186714D01*
X16347142Y-1972428D01*
X16304285Y-1886714D01*
X16261428Y-1843857D01*
%TO.C,U1*%
X-8204286Y30054858D02*
X-8204286Y29326286D01*
X-8247143Y29240572D01*
X-8290000Y29197715D01*
X-8375715Y29154858D01*
X-8547143Y29154858D01*
X-8632858Y29197715D01*
X-8675715Y29240572D01*
X-8718572Y29326286D01*
X-8718572Y30054858D01*
X-9618572Y29154858D02*
X-9104286Y29154858D01*
X-9361429Y29154858D02*
X-9361429Y30054858D01*
X-9275715Y29926286D01*
X-9190000Y29840572D01*
X-9104286Y29797715D01*
%TO.C,C7*%
X16356428Y13575000D02*
X16399285Y13617858D01*
X16442142Y13746429D01*
X16442142Y13832143D01*
X16399285Y13960715D01*
X16313571Y14046429D01*
X16227857Y14089286D01*
X16056428Y14132143D01*
X15927857Y14132143D01*
X15756428Y14089286D01*
X15670714Y14046429D01*
X15585000Y13960715D01*
X15542142Y13832143D01*
X15542142Y13746429D01*
X15585000Y13617858D01*
X15627857Y13575000D01*
X15542142Y13275000D02*
X15542142Y12675000D01*
X16442142Y13060715D01*
%TO.C,U6*%
X-3124286Y2143858D02*
X-3124286Y1415286D01*
X-3167143Y1329572D01*
X-3210000Y1286715D01*
X-3295715Y1243858D01*
X-3467143Y1243858D01*
X-3552858Y1286715D01*
X-3595715Y1329572D01*
X-3638572Y1415286D01*
X-3638572Y2143858D01*
X-4452858Y2143858D02*
X-4281429Y2143858D01*
X-4195715Y2101000D01*
X-4152858Y2058143D01*
X-4067143Y1929572D01*
X-4024286Y1758143D01*
X-4024286Y1415286D01*
X-4067143Y1329572D01*
X-4110000Y1286715D01*
X-4195715Y1243858D01*
X-4367143Y1243858D01*
X-4452858Y1286715D01*
X-4495715Y1329572D01*
X-4538572Y1415286D01*
X-4538572Y1629572D01*
X-4495715Y1715286D01*
X-4452858Y1758143D01*
X-4367143Y1801000D01*
X-4195715Y1801000D01*
X-4110000Y1758143D01*
X-4067143Y1715286D01*
X-4024286Y1629572D01*
%TO.C,C9*%
X-7588286Y16770334D02*
X-7550191Y16808429D01*
X-7512096Y16922715D01*
X-7512096Y16998905D01*
X-7550191Y17113191D01*
X-7626381Y17189381D01*
X-7702572Y17227477D01*
X-7854953Y17265572D01*
X-7969239Y17265572D01*
X-8121620Y17227477D01*
X-8197810Y17189381D01*
X-8274000Y17113191D01*
X-8312096Y16998905D01*
X-8312096Y16922715D01*
X-8274000Y16808429D01*
X-8235905Y16770334D01*
X-7512096Y16389381D02*
X-7512096Y16237000D01*
X-7550191Y16160810D01*
X-7588286Y16122715D01*
X-7702572Y16046524D01*
X-7854953Y16008429D01*
X-8159715Y16008429D01*
X-8235905Y16046524D01*
X-8274000Y16084620D01*
X-8312096Y16160810D01*
X-8312096Y16313191D01*
X-8274000Y16389381D01*
X-8235905Y16427477D01*
X-8159715Y16465572D01*
X-7969239Y16465572D01*
X-7893048Y16427477D01*
X-7854953Y16389381D01*
X-7816858Y16313191D01*
X-7816858Y16160810D01*
X-7854953Y16084620D01*
X-7893048Y16046524D01*
X-7969239Y16008429D01*
%TO.C,C19*%
X-13645429Y6790572D02*
X-13602572Y6747715D01*
X-13474000Y6704858D01*
X-13388286Y6704858D01*
X-13259715Y6747715D01*
X-13174000Y6833429D01*
X-13131143Y6919143D01*
X-13088286Y7090572D01*
X-13088286Y7219143D01*
X-13131143Y7390572D01*
X-13174000Y7476286D01*
X-13259715Y7562000D01*
X-13388286Y7604858D01*
X-13474000Y7604858D01*
X-13602572Y7562000D01*
X-13645429Y7519143D01*
X-14502572Y6704858D02*
X-13988286Y6704858D01*
X-14245429Y6704858D02*
X-14245429Y7604858D01*
X-14159715Y7476286D01*
X-14074000Y7390572D01*
X-13988286Y7347715D01*
X-14931143Y6704858D02*
X-15102572Y6704858D01*
X-15188286Y6747715D01*
X-15231143Y6790572D01*
X-15316858Y6919143D01*
X-15359715Y7090572D01*
X-15359715Y7433429D01*
X-15316858Y7519143D01*
X-15274000Y7562000D01*
X-15188286Y7604858D01*
X-15016858Y7604858D01*
X-14931143Y7562000D01*
X-14888286Y7519143D01*
X-14845429Y7433429D01*
X-14845429Y7219143D01*
X-14888286Y7133429D01*
X-14931143Y7090572D01*
X-15016858Y7047715D01*
X-15188286Y7047715D01*
X-15274000Y7090572D01*
X-15316858Y7133429D01*
X-15359715Y7219143D01*
%TO.C,R16*%
X-16356858Y-17074428D02*
X-16785429Y-16774428D01*
X-16356858Y-16560142D02*
X-17256858Y-16560142D01*
X-17256858Y-16903000D01*
X-17214000Y-16988714D01*
X-17171143Y-17031571D01*
X-17085429Y-17074428D01*
X-16956858Y-17074428D01*
X-16871143Y-17031571D01*
X-16828286Y-16988714D01*
X-16785429Y-16903000D01*
X-16785429Y-16560142D01*
X-16356858Y-17931571D02*
X-16356858Y-17417285D01*
X-16356858Y-17674428D02*
X-17256858Y-17674428D01*
X-17128286Y-17588714D01*
X-17042572Y-17503000D01*
X-16999715Y-17417285D01*
X-17256858Y-18703000D02*
X-17256858Y-18531571D01*
X-17214000Y-18445857D01*
X-17171143Y-18403000D01*
X-17042572Y-18317285D01*
X-16871143Y-18274428D01*
X-16528286Y-18274428D01*
X-16442572Y-18317285D01*
X-16399715Y-18360142D01*
X-16356858Y-18445857D01*
X-16356858Y-18617285D01*
X-16399715Y-18703000D01*
X-16442572Y-18745857D01*
X-16528286Y-18788714D01*
X-16742572Y-18788714D01*
X-16828286Y-18745857D01*
X-16871143Y-18703000D01*
X-16914000Y-18617285D01*
X-16914000Y-18445857D01*
X-16871143Y-18360142D01*
X-16828286Y-18317285D01*
X-16742572Y-18274428D01*
%TO.C,R19*%
X-7339858Y-22281428D02*
X-7768429Y-21981428D01*
X-7339858Y-21767142D02*
X-8239858Y-21767142D01*
X-8239858Y-22110000D01*
X-8197000Y-22195714D01*
X-8154143Y-22238571D01*
X-8068429Y-22281428D01*
X-7939858Y-22281428D01*
X-7854143Y-22238571D01*
X-7811286Y-22195714D01*
X-7768429Y-22110000D01*
X-7768429Y-21767142D01*
X-7339858Y-23138571D02*
X-7339858Y-22624285D01*
X-7339858Y-22881428D02*
X-8239858Y-22881428D01*
X-8111286Y-22795714D01*
X-8025572Y-22710000D01*
X-7982715Y-22624285D01*
X-7339858Y-23567142D02*
X-7339858Y-23738571D01*
X-7382715Y-23824285D01*
X-7425572Y-23867142D01*
X-7554143Y-23952857D01*
X-7725572Y-23995714D01*
X-8068429Y-23995714D01*
X-8154143Y-23952857D01*
X-8197000Y-23910000D01*
X-8239858Y-23824285D01*
X-8239858Y-23652857D01*
X-8197000Y-23567142D01*
X-8154143Y-23524285D01*
X-8068429Y-23481428D01*
X-7854143Y-23481428D01*
X-7768429Y-23524285D01*
X-7725572Y-23567142D01*
X-7682715Y-23652857D01*
X-7682715Y-23824285D01*
X-7725572Y-23910000D01*
X-7768429Y-23952857D01*
X-7854143Y-23995714D01*
%TO.C,U4*%
X3606714Y5318858D02*
X3606714Y4590286D01*
X3563857Y4504572D01*
X3521000Y4461715D01*
X3435285Y4418858D01*
X3263857Y4418858D01*
X3178142Y4461715D01*
X3135285Y4504572D01*
X3092428Y4590286D01*
X3092428Y5318858D01*
X2278142Y5018858D02*
X2278142Y4418858D01*
X2492428Y5361715D02*
X2706714Y4718858D01*
X2149571Y4718858D01*
%TO.C,U7*%
X-746858Y-20904285D02*
X-18286Y-20904285D01*
X67428Y-20947142D01*
X110285Y-20990000D01*
X153142Y-21075714D01*
X153142Y-21247142D01*
X110285Y-21332857D01*
X67428Y-21375714D01*
X-18286Y-21418571D01*
X-746858Y-21418571D01*
X-746858Y-21761428D02*
X-746858Y-22361428D01*
X153142Y-21975714D01*
%TO.C,D10*%
X4516857Y-11075142D02*
X4516857Y-10175142D01*
X4302571Y-10175142D01*
X4174000Y-10218000D01*
X4088285Y-10303714D01*
X4045428Y-10389428D01*
X4002571Y-10560857D01*
X4002571Y-10689428D01*
X4045428Y-10860857D01*
X4088285Y-10946571D01*
X4174000Y-11032285D01*
X4302571Y-11075142D01*
X4516857Y-11075142D01*
X3145428Y-11075142D02*
X3659714Y-11075142D01*
X3402571Y-11075142D02*
X3402571Y-10175142D01*
X3488285Y-10303714D01*
X3574000Y-10389428D01*
X3659714Y-10432285D01*
X2588285Y-10175142D02*
X2502571Y-10175142D01*
X2416857Y-10218000D01*
X2374000Y-10260857D01*
X2331142Y-10346571D01*
X2288285Y-10518000D01*
X2288285Y-10732285D01*
X2331142Y-10903714D01*
X2374000Y-10989428D01*
X2416857Y-11032285D01*
X2502571Y-11075142D01*
X2588285Y-11075142D01*
X2674000Y-11032285D01*
X2716857Y-10989428D01*
X2759714Y-10903714D01*
X2802571Y-10732285D01*
X2802571Y-10518000D01*
X2759714Y-10346571D01*
X2716857Y-10260857D01*
X2674000Y-10218000D01*
X2588285Y-10175142D01*
%TO.C,R6*%
X3100000Y-2020643D02*
X3400000Y-1592072D01*
X3614285Y-2020643D02*
X3614285Y-1120643D01*
X3271428Y-1120643D01*
X3185714Y-1163501D01*
X3142857Y-1206358D01*
X3100000Y-1292072D01*
X3100000Y-1420643D01*
X3142857Y-1506358D01*
X3185714Y-1549215D01*
X3271428Y-1592072D01*
X3614285Y-1592072D01*
X2328571Y-1120643D02*
X2500000Y-1120643D01*
X2585714Y-1163501D01*
X2628571Y-1206358D01*
X2714285Y-1334929D01*
X2757142Y-1506358D01*
X2757142Y-1849215D01*
X2714285Y-1934929D01*
X2671428Y-1977786D01*
X2585714Y-2020643D01*
X2414285Y-2020643D01*
X2328571Y-1977786D01*
X2285714Y-1934929D01*
X2242857Y-1849215D01*
X2242857Y-1634929D01*
X2285714Y-1549215D01*
X2328571Y-1506358D01*
X2414285Y-1463501D01*
X2585714Y-1463501D01*
X2671428Y-1506358D01*
X2714285Y-1549215D01*
X2757142Y-1634929D01*
%TO.C,C16*%
X133285Y9620286D02*
X171380Y9582191D01*
X285666Y9544096D01*
X361857Y9544096D01*
X476142Y9582191D01*
X552333Y9658381D01*
X590428Y9734572D01*
X628523Y9886953D01*
X628523Y10001239D01*
X590428Y10153620D01*
X552333Y10229810D01*
X476142Y10306000D01*
X361857Y10344096D01*
X285666Y10344096D01*
X171380Y10306000D01*
X133285Y10267905D01*
X-628620Y9544096D02*
X-171477Y9544096D01*
X-400048Y9544096D02*
X-400048Y10344096D01*
X-323858Y10229810D01*
X-247667Y10153620D01*
X-171477Y10115524D01*
X-1314334Y10344096D02*
X-1161953Y10344096D01*
X-1085762Y10306000D01*
X-1047667Y10267905D01*
X-971477Y10153620D01*
X-933381Y10001239D01*
X-933381Y9696477D01*
X-971477Y9620286D01*
X-1009572Y9582191D01*
X-1085762Y9544096D01*
X-1238143Y9544096D01*
X-1314334Y9582191D01*
X-1352429Y9620286D01*
X-1390524Y9696477D01*
X-1390524Y9886953D01*
X-1352429Y9963143D01*
X-1314334Y10001239D01*
X-1238143Y10039334D01*
X-1085762Y10039334D01*
X-1009572Y10001239D01*
X-971477Y9963143D01*
X-933381Y9886953D01*
%TO.C,R11*%
X6122142Y11754572D02*
X5693571Y12054572D01*
X6122142Y12268858D02*
X5222142Y12268858D01*
X5222142Y11926000D01*
X5265000Y11840286D01*
X5307857Y11797429D01*
X5393571Y11754572D01*
X5522142Y11754572D01*
X5607857Y11797429D01*
X5650714Y11840286D01*
X5693571Y11926000D01*
X5693571Y12268858D01*
X6122142Y10897429D02*
X6122142Y11411715D01*
X6122142Y11154572D02*
X5222142Y11154572D01*
X5350714Y11240286D01*
X5436428Y11326000D01*
X5479285Y11411715D01*
X6122142Y10040286D02*
X6122142Y10554572D01*
X6122142Y10297429D02*
X5222142Y10297429D01*
X5350714Y10383143D01*
X5436428Y10468858D01*
X5479285Y10554572D01*
%TO.C,D13*%
X-13308858Y-21767142D02*
X-14208858Y-21767142D01*
X-14208858Y-21981428D01*
X-14166000Y-22110000D01*
X-14080286Y-22195714D01*
X-13994572Y-22238571D01*
X-13823143Y-22281428D01*
X-13694572Y-22281428D01*
X-13523143Y-22238571D01*
X-13437429Y-22195714D01*
X-13351715Y-22110000D01*
X-13308858Y-21981428D01*
X-13308858Y-21767142D01*
X-13308858Y-23138571D02*
X-13308858Y-22624285D01*
X-13308858Y-22881428D02*
X-14208858Y-22881428D01*
X-14080286Y-22795714D01*
X-13994572Y-22710000D01*
X-13951715Y-22624285D01*
X-14208858Y-23438571D02*
X-14208858Y-23995714D01*
X-13866000Y-23695714D01*
X-13866000Y-23824285D01*
X-13823143Y-23910000D01*
X-13780286Y-23952857D01*
X-13694572Y-23995714D01*
X-13480286Y-23995714D01*
X-13394572Y-23952857D01*
X-13351715Y-23910000D01*
X-13308858Y-23824285D01*
X-13308858Y-23567142D01*
X-13351715Y-23481428D01*
X-13394572Y-23438571D01*
%TO.C,R21*%
X-7339858Y-28631428D02*
X-7768429Y-28331428D01*
X-7339858Y-28117142D02*
X-8239858Y-28117142D01*
X-8239858Y-28460000D01*
X-8197000Y-28545714D01*
X-8154143Y-28588571D01*
X-8068429Y-28631428D01*
X-7939858Y-28631428D01*
X-7854143Y-28588571D01*
X-7811286Y-28545714D01*
X-7768429Y-28460000D01*
X-7768429Y-28117142D01*
X-8154143Y-28974285D02*
X-8197000Y-29017142D01*
X-8239858Y-29102857D01*
X-8239858Y-29317142D01*
X-8197000Y-29402857D01*
X-8154143Y-29445714D01*
X-8068429Y-29488571D01*
X-7982715Y-29488571D01*
X-7854143Y-29445714D01*
X-7339858Y-28931428D01*
X-7339858Y-29488571D01*
X-7339858Y-30345714D02*
X-7339858Y-29831428D01*
X-7339858Y-30088571D02*
X-8239858Y-30088571D01*
X-8111286Y-30002857D01*
X-8025572Y-29917142D01*
X-7982715Y-29831428D01*
%TO.C,R15*%
X4129571Y-17171142D02*
X4429571Y-16742571D01*
X4643857Y-17171142D02*
X4643857Y-16271142D01*
X4301000Y-16271142D01*
X4215285Y-16314000D01*
X4172428Y-16356857D01*
X4129571Y-16442571D01*
X4129571Y-16571142D01*
X4172428Y-16656857D01*
X4215285Y-16699714D01*
X4301000Y-16742571D01*
X4643857Y-16742571D01*
X3272428Y-17171142D02*
X3786714Y-17171142D01*
X3529571Y-17171142D02*
X3529571Y-16271142D01*
X3615285Y-16399714D01*
X3701000Y-16485428D01*
X3786714Y-16528285D01*
X2458142Y-16271142D02*
X2886714Y-16271142D01*
X2929571Y-16699714D01*
X2886714Y-16656857D01*
X2801000Y-16614000D01*
X2586714Y-16614000D01*
X2501000Y-16656857D01*
X2458142Y-16699714D01*
X2415285Y-16785428D01*
X2415285Y-16999714D01*
X2458142Y-17085428D01*
X2501000Y-17128285D01*
X2586714Y-17171142D01*
X2801000Y-17171142D01*
X2886714Y-17128285D01*
X2929571Y-17085428D01*
%TO.C,U8*%
X-879358Y-24714285D02*
X-150786Y-24714285D01*
X-65072Y-24757142D01*
X-22215Y-24800000D01*
X20642Y-24885714D01*
X20642Y-25057142D01*
X-22215Y-25142857D01*
X-65072Y-25185714D01*
X-150786Y-25228571D01*
X-879358Y-25228571D01*
X-493643Y-25785714D02*
X-536500Y-25700000D01*
X-579358Y-25657142D01*
X-665072Y-25614285D01*
X-707929Y-25614285D01*
X-793643Y-25657142D01*
X-836500Y-25700000D01*
X-879358Y-25785714D01*
X-879358Y-25957142D01*
X-836500Y-26042857D01*
X-793643Y-26085714D01*
X-707929Y-26128571D01*
X-665072Y-26128571D01*
X-579358Y-26085714D01*
X-536500Y-26042857D01*
X-493643Y-25957142D01*
X-493643Y-25785714D01*
X-450786Y-25700000D01*
X-407929Y-25657142D01*
X-322215Y-25614285D01*
X-150786Y-25614285D01*
X-65072Y-25657142D01*
X-22215Y-25700000D01*
X20642Y-25785714D01*
X20642Y-25957142D01*
X-22215Y-26042857D01*
X-65072Y-26085714D01*
X-150786Y-26128571D01*
X-322215Y-26128571D01*
X-407929Y-26085714D01*
X-450786Y-26042857D01*
X-493643Y-25957142D01*
%TO.C,R3*%
X-15487742Y-1677142D02*
X-15187742Y-1248571D01*
X-14973457Y-1677142D02*
X-14973457Y-777142D01*
X-15316314Y-777142D01*
X-15402028Y-820000D01*
X-15444885Y-862857D01*
X-15487742Y-948571D01*
X-15487742Y-1077142D01*
X-15444885Y-1162857D01*
X-15402028Y-1205714D01*
X-15316314Y-1248571D01*
X-14973457Y-1248571D01*
X-15787742Y-777142D02*
X-16344885Y-777142D01*
X-16044885Y-1120000D01*
X-16173457Y-1120000D01*
X-16259171Y-1162857D01*
X-16302028Y-1205714D01*
X-16344885Y-1291428D01*
X-16344885Y-1505714D01*
X-16302028Y-1591428D01*
X-16259171Y-1634285D01*
X-16173457Y-1677142D01*
X-15916314Y-1677142D01*
X-15830600Y-1634285D01*
X-15787742Y-1591428D01*
%TO.C,D9*%
X15520142Y-22740714D02*
X14620142Y-22740714D01*
X14620142Y-22955000D01*
X14663000Y-23083571D01*
X14748714Y-23169285D01*
X14834428Y-23212142D01*
X15005857Y-23255000D01*
X15134428Y-23255000D01*
X15305857Y-23212142D01*
X15391571Y-23169285D01*
X15477285Y-23083571D01*
X15520142Y-22955000D01*
X15520142Y-22740714D01*
X15520142Y-23683571D02*
X15520142Y-23855000D01*
X15477285Y-23940714D01*
X15434428Y-23983571D01*
X15305857Y-24069285D01*
X15134428Y-24112142D01*
X14791571Y-24112142D01*
X14705857Y-24069285D01*
X14663000Y-24026428D01*
X14620142Y-23940714D01*
X14620142Y-23769285D01*
X14663000Y-23683571D01*
X14705857Y-23640714D01*
X14791571Y-23597857D01*
X15005857Y-23597857D01*
X15091571Y-23640714D01*
X15134428Y-23683571D01*
X15177285Y-23769285D01*
X15177285Y-23940714D01*
X15134428Y-24026428D01*
X15091571Y-24069285D01*
X15005857Y-24112142D01*
%TO.C,D15*%
X-13131143Y4672858D02*
X-13131143Y5572858D01*
X-13345429Y5572858D01*
X-13474000Y5530000D01*
X-13559715Y5444286D01*
X-13602572Y5358572D01*
X-13645429Y5187143D01*
X-13645429Y5058572D01*
X-13602572Y4887143D01*
X-13559715Y4801429D01*
X-13474000Y4715715D01*
X-13345429Y4672858D01*
X-13131143Y4672858D01*
X-14502572Y4672858D02*
X-13988286Y4672858D01*
X-14245429Y4672858D02*
X-14245429Y5572858D01*
X-14159715Y5444286D01*
X-14074000Y5358572D01*
X-13988286Y5315715D01*
X-15316858Y5572858D02*
X-14888286Y5572858D01*
X-14845429Y5144286D01*
X-14888286Y5187143D01*
X-14974000Y5230000D01*
X-15188286Y5230000D01*
X-15274000Y5187143D01*
X-15316858Y5144286D01*
X-15359715Y5058572D01*
X-15359715Y4844286D01*
X-15316858Y4758572D01*
X-15274000Y4715715D01*
X-15188286Y4672858D01*
X-14974000Y4672858D01*
X-14888286Y4715715D01*
X-14845429Y4758572D01*
%TO.C,D7*%
X-13308858Y-5685714D02*
X-14208858Y-5685714D01*
X-14208858Y-5900000D01*
X-14166000Y-6028571D01*
X-14080286Y-6114285D01*
X-13994572Y-6157142D01*
X-13823143Y-6200000D01*
X-13694572Y-6200000D01*
X-13523143Y-6157142D01*
X-13437429Y-6114285D01*
X-13351715Y-6028571D01*
X-13308858Y-5900000D01*
X-13308858Y-5685714D01*
X-14208858Y-6500000D02*
X-14208858Y-7100000D01*
X-13308858Y-6714285D01*
%TO.C,D11*%
X4516857Y-19203142D02*
X4516857Y-18303142D01*
X4302571Y-18303142D01*
X4174000Y-18346000D01*
X4088285Y-18431714D01*
X4045428Y-18517428D01*
X4002571Y-18688857D01*
X4002571Y-18817428D01*
X4045428Y-18988857D01*
X4088285Y-19074571D01*
X4174000Y-19160285D01*
X4302571Y-19203142D01*
X4516857Y-19203142D01*
X3145428Y-19203142D02*
X3659714Y-19203142D01*
X3402571Y-19203142D02*
X3402571Y-18303142D01*
X3488285Y-18431714D01*
X3574000Y-18517428D01*
X3659714Y-18560285D01*
X2288285Y-19203142D02*
X2802571Y-19203142D01*
X2545428Y-19203142D02*
X2545428Y-18303142D01*
X2631142Y-18431714D01*
X2716857Y-18517428D01*
X2802571Y-18560285D01*
%TO.C,C6*%
X-14664572Y-17249000D02*
X-14621715Y-17206142D01*
X-14578858Y-17077571D01*
X-14578858Y-16991857D01*
X-14621715Y-16863285D01*
X-14707429Y-16777571D01*
X-14793143Y-16734714D01*
X-14964572Y-16691857D01*
X-15093143Y-16691857D01*
X-15264572Y-16734714D01*
X-15350286Y-16777571D01*
X-15436000Y-16863285D01*
X-15478858Y-16991857D01*
X-15478858Y-17077571D01*
X-15436000Y-17206142D01*
X-15393143Y-17249000D01*
X-15478858Y-18020428D02*
X-15478858Y-17849000D01*
X-15436000Y-17763285D01*
X-15393143Y-17720428D01*
X-15264572Y-17634714D01*
X-15093143Y-17591857D01*
X-14750286Y-17591857D01*
X-14664572Y-17634714D01*
X-14621715Y-17677571D01*
X-14578858Y-17763285D01*
X-14578858Y-17934714D01*
X-14621715Y-18020428D01*
X-14664572Y-18063285D01*
X-14750286Y-18106142D01*
X-14964572Y-18106142D01*
X-15050286Y-18063285D01*
X-15093143Y-18020428D01*
X-15136000Y-17934714D01*
X-15136000Y-17763285D01*
X-15093143Y-17677571D01*
X-15050286Y-17634714D01*
X-14964572Y-17591857D01*
%TO.C,R14*%
X3875571Y-13107142D02*
X4175571Y-12678571D01*
X4389857Y-13107142D02*
X4389857Y-12207142D01*
X4047000Y-12207142D01*
X3961285Y-12250000D01*
X3918428Y-12292857D01*
X3875571Y-12378571D01*
X3875571Y-12507142D01*
X3918428Y-12592857D01*
X3961285Y-12635714D01*
X4047000Y-12678571D01*
X4389857Y-12678571D01*
X3018428Y-13107142D02*
X3532714Y-13107142D01*
X3275571Y-13107142D02*
X3275571Y-12207142D01*
X3361285Y-12335714D01*
X3447000Y-12421428D01*
X3532714Y-12464285D01*
X2247000Y-12507142D02*
X2247000Y-13107142D01*
X2461285Y-12164285D02*
X2675571Y-12807142D01*
X2118428Y-12807142D01*
D12*
%TO.C,U2*%
X-12297000Y19199000D02*
X-12567000Y19199000D01*
X-12297000Y17699000D02*
X-12297000Y19199000D01*
X-19197000Y19199000D02*
X-18927000Y19199000D01*
X-12567000Y19199000D02*
X-12567000Y20299000D01*
X-19197000Y17699000D02*
X-19197000Y19199000D01*
X-18927000Y19199000D02*
X-18927000Y22029000D01*
%TO.C,C21*%
X-4678580Y-12448000D02*
X-4397420Y-12448000D01*
X-4678580Y-11428000D02*
X-4397420Y-11428000D01*
%TO.C,C13*%
X-19918000Y19100748D02*
X-19918000Y20523252D01*
X-21738000Y19100748D02*
X-21738000Y20523252D01*
%TO.C,R1*%
X10925000Y13607064D02*
X10925000Y9252936D01*
X14345000Y13607064D02*
X14345000Y9252936D01*
%TO.C,R17*%
X-16112258Y-10047500D02*
X-15637742Y-10047500D01*
X-16112258Y-9002500D02*
X-15637742Y-9002500D01*
%TO.C,U5*%
X-3142000Y-16382000D02*
X-6442000Y-16382000D01*
X-3142000Y-13082000D02*
X-3142000Y-13432000D01*
X-3142000Y-13082000D02*
X-6442000Y-13082000D01*
%TO.C,C15*%
X-21338000Y14618580D02*
X-21338000Y14337420D01*
X-20318000Y14618580D02*
X-20318000Y14337420D01*
%TO.C,D6*%
X11558000Y-2950000D02*
X14858000Y-2950000D01*
X11558000Y-2950000D02*
X11558000Y-8350000D01*
X14858000Y-2950000D02*
X14858000Y-8350000D01*
%TO.C,C8*%
X-4037000Y21140748D02*
X-4037000Y21663252D01*
X-2567000Y21140748D02*
X-2567000Y21663252D01*
%TO.C,U9*%
X-3175000Y-30770000D02*
X-3975000Y-30770000D01*
X-3175000Y-27650000D02*
X-1375000Y-27650000D01*
X-3175000Y-27650000D02*
X-3975000Y-27650000D01*
X-3175000Y-30770000D02*
X-2375000Y-30770000D01*
%TO.C,Q2*%
X10265000Y-7785000D02*
X10265000Y-3235000D01*
X4845000Y-8785000D02*
X4845000Y-3235000D01*
%TO.C,R7*%
X172742Y-6073001D02*
X647258Y-6073001D01*
X172742Y-5028001D02*
X647258Y-5028001D01*
%TO.C,D4*%
X-1090000Y-8432501D02*
X-1090000Y-6732501D01*
X-1090000Y-8432501D02*
X1460000Y-8432501D01*
X-1090000Y-6732501D02*
X1460000Y-6732501D01*
%TO.C,U3*%
X-3025499Y-1868501D02*
X-3025499Y-2218501D01*
X-3025499Y-5168501D02*
X-6325499Y-5168501D01*
X-3025499Y-1868501D02*
X-6325499Y-1868501D01*
%TO.C,C1*%
X-4562079Y-1234501D02*
X-4280919Y-1234501D01*
X-4562079Y-214501D02*
X-4280919Y-214501D01*
%TO.C,C20*%
X671252Y-13997000D02*
X148748Y-13997000D01*
X671252Y-15467000D02*
X148748Y-15467000D01*
%TO.C,C11*%
X-11324000Y14253252D02*
X-11324000Y12830748D01*
X-9504000Y14253252D02*
X-9504000Y12830748D01*
%TO.C,C22*%
X-6856000Y3936420D02*
X-6856000Y4217580D01*
X-7876000Y3936420D02*
X-7876000Y4217580D01*
%TO.C,R4*%
X-16112258Y-12587500D02*
X-15637742Y-12587500D01*
X-16112258Y-11542500D02*
X-15637742Y-11542500D01*
%TO.C,D1*%
X2158000Y22874000D02*
X-1142000Y22874000D01*
X2158000Y22874000D02*
X2158000Y28274000D01*
X-1142000Y22874000D02*
X-1142000Y28274000D01*
%TO.C,C17*%
X671252Y-4253501D02*
X148748Y-4253501D01*
X671252Y-2783501D02*
X148748Y-2783501D01*
%TO.C,R8*%
X-11413258Y3570500D02*
X-10938742Y3570500D01*
X-11413258Y2525500D02*
X-10938742Y2525500D01*
%TO.C,R13*%
X-3316500Y7857258D02*
X-3316500Y7382742D01*
X-2271500Y7857258D02*
X-2271500Y7382742D01*
%TO.C,C10*%
X-10266000Y24768748D02*
X-10266000Y26191252D01*
X-12086000Y24768748D02*
X-12086000Y26191252D01*
%TO.C,Q1*%
X4910000Y-870000D02*
X4910000Y4680000D01*
X10330000Y130000D02*
X10330000Y4680000D01*
%TO.C,D2*%
X5460000Y19365000D02*
X5460000Y13965000D01*
X2160000Y19365000D02*
X2160000Y13965000D01*
X2160000Y19365000D02*
X5460000Y19365000D01*
%TO.C,C3*%
X18426252Y-185000D02*
X17003748Y-185000D01*
X18426252Y1635000D02*
X17003748Y1635000D01*
%TO.C,C14*%
X18426252Y-12552000D02*
X17003748Y-12552000D01*
X18426252Y-14372000D02*
X17003748Y-14372000D01*
%TO.C,Q3*%
X4845000Y-18560000D02*
X4845000Y-13010000D01*
X10265000Y-17560000D02*
X10265000Y-13010000D01*
%TO.C,Q4*%
X10265000Y-25180000D02*
X10265000Y-20630000D01*
X4845000Y-26180000D02*
X4845000Y-20630000D01*
%TO.C,R9*%
X-9871064Y22072000D02*
X-8416936Y22072000D01*
X-9871064Y20252000D02*
X-8416936Y20252000D01*
%TO.C,R20*%
X-5827500Y-26272258D02*
X-5827500Y-25797742D01*
X-6872500Y-26272258D02*
X-6872500Y-25797742D01*
%TO.C,R5*%
X1538500Y7794258D02*
X1538500Y7319742D01*
X493500Y7794258D02*
X493500Y7319742D01*
%TO.C,D8*%
X10985000Y-12385000D02*
X14285000Y-12385000D01*
X10985000Y-12385000D02*
X10985000Y-17785000D01*
X14285000Y-12385000D02*
X14285000Y-17785000D01*
%TO.C,C4*%
X521580Y4955000D02*
X240420Y4955000D01*
X521580Y3935000D02*
X240420Y3935000D01*
%TO.C,R2*%
X9965000Y13607064D02*
X9965000Y9252936D01*
X6545000Y13607064D02*
X6545000Y9252936D01*
%TO.C,D17*%
X-12395000Y-27750000D02*
X-8510000Y-27750000D01*
X-8510000Y-30670000D02*
X-12395000Y-30670000D01*
X-8510000Y-27750000D02*
X-8510000Y-30670000D01*
%TO.C,C18*%
X-7876000Y7747580D02*
X-7876000Y7466420D01*
X-6856000Y7747580D02*
X-6856000Y7466420D01*
%TO.C,L1*%
X958000Y19086000D02*
X-7042000Y19086000D01*
X958000Y10886000D02*
X-7042000Y10886000D01*
%TO.C,C12*%
X-13829420Y23878000D02*
X-14110580Y23878000D01*
X-13829420Y22858000D02*
X-14110580Y22858000D01*
%TO.C,R10*%
X-8650500Y14066742D02*
X-8650500Y14541258D01*
X-7605500Y14066742D02*
X-7605500Y14541258D01*
%TO.C,D3*%
X-1090000Y-685501D02*
X-1090000Y1014499D01*
X-1090000Y-685501D02*
X1460000Y-685501D01*
X-1090000Y1014499D02*
X1460000Y1014499D01*
%TO.C,R12*%
X-9668742Y18353500D02*
X-10143258Y18353500D01*
X-9668742Y19398500D02*
X-10143258Y19398500D01*
%TO.C,D16*%
X-12395000Y-24575000D02*
X-8510000Y-24575000D01*
X-8510000Y-24575000D02*
X-8510000Y-27495000D01*
X-8510000Y-27495000D02*
X-12395000Y-27495000D01*
%TO.C,D14*%
X-4091000Y6135000D02*
X-5561000Y6135000D01*
X-4091000Y8420000D02*
X-4091000Y6135000D01*
X-5561000Y6135000D02*
X-5561000Y8420000D01*
%TO.C,D5*%
X11558000Y4384000D02*
X11558000Y-1016000D01*
X11558000Y4384000D02*
X14858000Y4384000D01*
X14858000Y4384000D02*
X14858000Y-1016000D01*
%TO.C,U1*%
X-6034000Y28722000D02*
X-7984000Y28722000D01*
X-6034000Y28722000D02*
X-2584000Y28722000D01*
X-6034000Y23602000D02*
X-7984000Y23602000D01*
X-6034000Y23602000D02*
X-4084000Y23602000D01*
%TO.C,C7*%
X18450000Y13686252D02*
X18450000Y13163748D01*
X16980000Y13686252D02*
X16980000Y13163748D01*
%TO.C,U6*%
X-3810000Y2504000D02*
X-3010000Y2504000D01*
X-3810000Y5624000D02*
X-4610000Y5624000D01*
X-3810000Y5624000D02*
X-2010000Y5624000D01*
X-3810000Y2504000D02*
X-4610000Y2504000D01*
%TO.C,C9*%
X-10046580Y17862000D02*
X-9765420Y17862000D01*
X-10046580Y16842000D02*
X-9765420Y16842000D01*
%TO.C,C19*%
X-11316580Y7622000D02*
X-11035420Y7622000D01*
X-11316580Y6602000D02*
X-11035420Y6602000D01*
%TO.C,R16*%
X-16241500Y-20463742D02*
X-16241500Y-20938258D01*
X-17286500Y-20463742D02*
X-17286500Y-20938258D01*
%TO.C,R19*%
X-6872500Y-23097258D02*
X-6872500Y-22622742D01*
X-5827500Y-23097258D02*
X-5827500Y-22622742D01*
%TO.C,U4*%
X2185000Y7620000D02*
X2185000Y6820000D01*
X5305000Y7620000D02*
X5305000Y8420000D01*
X5305000Y7620000D02*
X5305000Y6820000D01*
X2185000Y7620000D02*
X2185000Y9420000D01*
%TO.C,U7*%
X-3175000Y-20030000D02*
X-1375000Y-20030000D01*
X-3175000Y-23150000D02*
X-3975000Y-23150000D01*
X-3175000Y-20030000D02*
X-3975000Y-20030000D01*
X-3175000Y-23150000D02*
X-2375000Y-23150000D01*
%TO.C,D10*%
X-1090000Y-9818000D02*
X1460000Y-9818000D01*
X-1090000Y-11518000D02*
X-1090000Y-9818000D01*
X-1090000Y-11518000D02*
X1460000Y-11518000D01*
%TO.C,R6*%
X172742Y-1091001D02*
X647258Y-1091001D01*
X172742Y-2136001D02*
X647258Y-2136001D01*
%TO.C,C16*%
X-252000Y7760580D02*
X-252000Y7479420D01*
X-1272000Y7760580D02*
X-1272000Y7479420D01*
%TO.C,R11*%
X3318742Y11952500D02*
X3793258Y11952500D01*
X3318742Y10907500D02*
X3793258Y10907500D01*
%TO.C,D13*%
X-12395000Y-21400000D02*
X-8510000Y-21400000D01*
X-8510000Y-24320000D02*
X-12395000Y-24320000D01*
X-8510000Y-21400000D02*
X-8510000Y-24320000D01*
%TO.C,R21*%
X-6872500Y-29447258D02*
X-6872500Y-28972742D01*
X-5827500Y-29447258D02*
X-5827500Y-28972742D01*
%TO.C,R15*%
X172742Y-16241500D02*
X647258Y-16241500D01*
X172742Y-17286500D02*
X647258Y-17286500D01*
%TO.C,U8*%
X-3175000Y-26960000D02*
X-3975000Y-26960000D01*
X-3175000Y-23840000D02*
X-1375000Y-23840000D01*
X-3175000Y-23840000D02*
X-3975000Y-23840000D01*
X-3175000Y-26960000D02*
X-2375000Y-26960000D01*
%TO.C,R3*%
X-16112258Y-2017500D02*
X-15637742Y-2017500D01*
X-16112258Y-3062500D02*
X-15637742Y-3062500D01*
%TO.C,D9*%
X10985000Y-20005000D02*
X10985000Y-25405000D01*
X14285000Y-20005000D02*
X14285000Y-25405000D01*
X10985000Y-20005000D02*
X14285000Y-20005000D01*
%TO.C,D15*%
X-9691000Y5815000D02*
X-9691000Y4345000D01*
X-9691000Y4345000D02*
X-11976000Y4345000D01*
X-11976000Y5815000D02*
X-9691000Y5815000D01*
%TO.C,D7*%
X-14715000Y-5650000D02*
X-14715000Y-7550000D01*
X-17035000Y-7050000D02*
X-17035000Y-5650000D01*
%TO.C,D11*%
X-1090000Y-19646000D02*
X1460000Y-19646000D01*
X-1090000Y-19646000D02*
X-1090000Y-17946000D01*
X-1090000Y-17946000D02*
X1460000Y-17946000D01*
%TO.C,C6*%
X-14476000Y-20841580D02*
X-14476000Y-20560420D01*
X-15496000Y-20841580D02*
X-15496000Y-20560420D01*
%TO.C,R14*%
X172742Y-13222500D02*
X647258Y-13222500D01*
X172742Y-12177500D02*
X647258Y-12177500D01*
%TD*%
%LPC*%
D13*
%TO.C,M2*%
X17715000Y7075000D03*
%TD*%
D14*
%TO.C,C5*%
X6566041Y24765000D03*
D15*
X11566041Y24765000D03*
%TD*%
D16*
%TO.C,M3*%
X-19095000Y-18288000D03*
D17*
X-19095000Y-15748000D03*
X-19095000Y-13208000D03*
X-19095000Y-10668000D03*
X-19095000Y-8128000D03*
X-19095000Y-5588000D03*
%TD*%
D13*
%TO.C,M1*%
X17715000Y18280000D03*
%TD*%
D16*
%TO.C,P1*%
X-19115000Y7112000D03*
D17*
X-19115000Y9652000D03*
%TD*%
D18*
%TO.C,C2*%
X-5669677Y21162000D03*
D19*
X-669677Y21162000D03*
%TD*%
D20*
%TO.C,H1*%
X21400000Y27000000D03*
X19000000Y29400000D03*
X20697056Y28697056D03*
D21*
X19000000Y27000000D03*
D20*
X17302944Y25302944D03*
X20697056Y25302944D03*
X19000000Y24600000D03*
X17302944Y28697056D03*
X16600000Y27000000D03*
%TD*%
%TO.C,H2*%
X16600000Y-27000000D03*
X20697056Y-28697056D03*
X19000000Y-24600000D03*
X21400000Y-27000000D03*
X20697056Y-25302944D03*
X17302944Y-28697056D03*
X17302944Y-25302944D03*
D21*
X19000000Y-27000000D03*
D20*
X19000000Y-29400000D03*
%TD*%
%TO.C,H4*%
X-21400000Y-27000000D03*
X-17302944Y-25302944D03*
D21*
X-19000000Y-27000000D03*
D20*
X-20697056Y-25302944D03*
X-19000000Y-24600000D03*
X-16600000Y-27000000D03*
X-19000000Y-29400000D03*
X-20697056Y-28697056D03*
X-17302944Y-28697056D03*
%TD*%
%TO.C,H3*%
X-19000000Y24600000D03*
X-16600000Y27000000D03*
X-19000000Y29400000D03*
X-20697056Y28697056D03*
X-17302944Y28697056D03*
X-20697056Y25302944D03*
X-17302944Y25302944D03*
X-21400000Y27000000D03*
D21*
X-19000000Y27000000D03*
%TD*%
D13*
%TO.C,OUTA1*%
X17715000Y-5625000D03*
%TD*%
D16*
%TO.C,P2*%
X-19050000Y-508000D03*
D17*
X-19050000Y2032000D03*
%TD*%
D13*
%TO.C,OUTB1*%
X17715000Y-18325000D03*
%TD*%
D22*
%TO.C,U2*%
X-18027000Y20929000D03*
D23*
X-15747000Y14629000D03*
D22*
X-13467000Y20929000D03*
%TD*%
D24*
%TO.C,C21*%
X-5313000Y-11938000D03*
X-3763000Y-11938000D03*
%TD*%
D25*
%TO.C,C13*%
X-20828000Y18249500D03*
X-20828000Y21374500D03*
%TD*%
D26*
%TO.C,R1*%
X12635000Y14392500D03*
X12635000Y8467500D03*
%TD*%
D27*
%TO.C,R17*%
X-16700000Y-9525000D03*
X-15050000Y-9525000D03*
%TD*%
D28*
%TO.C,U5*%
X-3442000Y-13732000D03*
X-3442000Y-14232000D03*
X-3442000Y-14732000D03*
X-3442000Y-15232000D03*
X-3442000Y-15732000D03*
X-6142000Y-15732000D03*
X-6142000Y-15232000D03*
X-6142000Y-14732000D03*
X-6142000Y-14232000D03*
X-6142000Y-13732000D03*
D29*
X-4792000Y-14732000D03*
%TD*%
D30*
%TO.C,C15*%
X-20828000Y15253000D03*
X-20828000Y13703000D03*
%TD*%
D31*
%TO.C,D6*%
X13208000Y-4350000D03*
X13208000Y-8350000D03*
%TD*%
D32*
%TO.C,C8*%
X-3302000Y20452000D03*
X-3302000Y22352000D03*
%TD*%
D33*
%TO.C,U9*%
X-2037500Y-28260000D03*
X-2037500Y-29210000D03*
X-2037500Y-30160000D03*
X-4312500Y-30160000D03*
X-4312500Y-28260000D03*
%TD*%
D34*
%TO.C,Q2*%
X9460000Y-8760000D03*
X6920000Y-8760000D03*
X8190000Y-8760000D03*
X5650000Y-8760000D03*
X5650000Y-3260000D03*
D35*
X7555000Y-5365000D03*
D34*
X8190000Y-3260000D03*
X9460000Y-3260000D03*
X6920000Y-3260000D03*
%TD*%
D27*
%TO.C,R7*%
X-415000Y-5550501D03*
X1235000Y-5550501D03*
%TD*%
D36*
%TO.C,D4*%
X-640000Y-7582501D03*
X1460000Y-7582501D03*
%TD*%
D28*
%TO.C,U3*%
X-3325499Y-2518501D03*
X-3325499Y-3018501D03*
X-3325499Y-3518501D03*
X-3325499Y-4018501D03*
X-3325499Y-4518501D03*
X-6025499Y-4518501D03*
X-6025499Y-4018501D03*
X-6025499Y-3518501D03*
X-6025499Y-3018501D03*
X-6025499Y-2518501D03*
D29*
X-4675499Y-3518501D03*
%TD*%
D24*
%TO.C,C1*%
X-5196499Y-724501D03*
X-3646499Y-724501D03*
%TD*%
D37*
%TO.C,C20*%
X1360000Y-14732000D03*
X-540000Y-14732000D03*
%TD*%
D38*
%TO.C,C11*%
X-10414000Y15104500D03*
X-10414000Y11979500D03*
%TD*%
D39*
%TO.C,C22*%
X-7366000Y3302000D03*
X-7366000Y4852000D03*
%TD*%
D27*
%TO.C,R4*%
X-16700000Y-12065000D03*
X-15050000Y-12065000D03*
%TD*%
D40*
%TO.C,D1*%
X508000Y24274000D03*
X508000Y28274000D03*
%TD*%
D37*
%TO.C,C17*%
X1360000Y-3518501D03*
X-540000Y-3518501D03*
%TD*%
D27*
%TO.C,R8*%
X-12001000Y3048000D03*
X-10351000Y3048000D03*
%TD*%
D41*
%TO.C,R13*%
X-2794000Y8445000D03*
X-2794000Y6795000D03*
%TD*%
D25*
%TO.C,C10*%
X-11176000Y23917500D03*
X-11176000Y27042500D03*
%TD*%
D34*
%TO.C,Q1*%
X8255000Y-845000D03*
X9525000Y-845000D03*
X6985000Y-845000D03*
X5715000Y-845000D03*
D35*
X7620000Y2550000D03*
D34*
X5715000Y4655000D03*
X8255000Y4655000D03*
X6985000Y4655000D03*
X9525000Y4655000D03*
%TD*%
D31*
%TO.C,D2*%
X3810000Y17965000D03*
X3810000Y13965000D03*
%TD*%
D42*
%TO.C,C3*%
X19277500Y725000D03*
X16152500Y725000D03*
%TD*%
%TO.C,C14*%
X19277500Y-13462000D03*
X16152500Y-13462000D03*
%TD*%
D34*
%TO.C,Q3*%
X9460000Y-18535000D03*
X6920000Y-18535000D03*
X8190000Y-18535000D03*
X5650000Y-18535000D03*
X5650000Y-13035000D03*
X8190000Y-13035000D03*
D35*
X7555000Y-15140000D03*
D34*
X9460000Y-13035000D03*
X6920000Y-13035000D03*
%TD*%
%TO.C,Q4*%
X6920000Y-26155000D03*
X8190000Y-26155000D03*
X9460000Y-26155000D03*
X5650000Y-26155000D03*
X9460000Y-20655000D03*
X8190000Y-20655000D03*
D35*
X7555000Y-22760000D03*
D34*
X6920000Y-20655000D03*
X5650000Y-20655000D03*
%TD*%
D43*
%TO.C,R9*%
X-10606500Y21162000D03*
X-7681500Y21162000D03*
%TD*%
D44*
%TO.C,R20*%
X-6350000Y-26860000D03*
X-6350000Y-25210000D03*
%TD*%
D41*
%TO.C,R5*%
X1016000Y8382000D03*
X1016000Y6732000D03*
%TD*%
D31*
%TO.C,D8*%
X12635000Y-13785000D03*
X12635000Y-17785000D03*
%TD*%
D45*
%TO.C,C4*%
X1156000Y4445000D03*
X-394000Y4445000D03*
%TD*%
D26*
%TO.C,R2*%
X8255000Y14392500D03*
X8255000Y8467500D03*
%TD*%
D46*
%TO.C,D17*%
X-10795000Y-29210000D03*
D47*
X-9245000Y-29210000D03*
X-12345000Y-29210000D03*
%TD*%
D30*
%TO.C,C18*%
X-7366000Y8382000D03*
X-7366000Y6832000D03*
%TD*%
D48*
%TO.C,L1*%
X-242000Y14986000D03*
X-5842000Y14986000D03*
%TD*%
D45*
%TO.C,C12*%
X-13195000Y23368000D03*
X-14745000Y23368000D03*
%TD*%
D44*
%TO.C,R10*%
X-8128000Y13479000D03*
X-8128000Y15129000D03*
%TD*%
D36*
%TO.C,D3*%
X-640000Y164499D03*
X1460000Y164499D03*
%TD*%
D49*
%TO.C,R12*%
X-9081000Y18876000D03*
X-10731000Y18876000D03*
%TD*%
D46*
%TO.C,D16*%
X-10795000Y-26035000D03*
D47*
X-9245000Y-26035000D03*
X-12345000Y-26035000D03*
%TD*%
D50*
%TO.C,D14*%
X-4826000Y6832500D03*
X-4826000Y8407500D03*
%TD*%
D31*
%TO.C,D5*%
X13208000Y2984000D03*
X13208000Y-1016000D03*
%TD*%
D51*
%TO.C,U1*%
X-3559000Y28067000D03*
X-3559000Y26797000D03*
X-3559000Y25527000D03*
X-3559000Y24257000D03*
X-8509000Y24257000D03*
X-8509000Y25527000D03*
X-8509000Y26797000D03*
X-8509000Y28067000D03*
D52*
X-6034000Y26162000D03*
%TD*%
D53*
%TO.C,C7*%
X17715000Y14375000D03*
X17715000Y12475000D03*
%TD*%
D33*
%TO.C,U6*%
X-2672500Y5014000D03*
X-2672500Y4064000D03*
X-2672500Y3114000D03*
X-4947500Y3114000D03*
X-4947500Y5014000D03*
%TD*%
D24*
%TO.C,C9*%
X-10681000Y17352000D03*
X-9131000Y17352000D03*
%TD*%
%TO.C,C19*%
X-11951000Y7112000D03*
X-10401000Y7112000D03*
%TD*%
D41*
%TO.C,R16*%
X-16764000Y-19876000D03*
X-16764000Y-21526000D03*
%TD*%
D44*
%TO.C,R19*%
X-6350000Y-23685000D03*
X-6350000Y-22035000D03*
%TD*%
D54*
%TO.C,U4*%
X2795000Y8757500D03*
X3745000Y8757500D03*
X4695000Y8757500D03*
X4695000Y6482500D03*
X2795000Y6482500D03*
%TD*%
D33*
%TO.C,U7*%
X-2037500Y-20640000D03*
X-2037500Y-21590000D03*
X-2037500Y-22540000D03*
X-4312500Y-22540000D03*
X-4312500Y-20640000D03*
%TD*%
D36*
%TO.C,D10*%
X-640000Y-10668000D03*
X1460000Y-10668000D03*
%TD*%
D27*
%TO.C,R6*%
X-415000Y-1613501D03*
X1235000Y-1613501D03*
%TD*%
D30*
%TO.C,C16*%
X-762000Y8395000D03*
X-762000Y6845000D03*
%TD*%
D27*
%TO.C,R11*%
X2731000Y11430000D03*
X4381000Y11430000D03*
%TD*%
D46*
%TO.C,D13*%
X-10795000Y-22860000D03*
D47*
X-9245000Y-22860000D03*
X-12345000Y-22860000D03*
%TD*%
D44*
%TO.C,R21*%
X-6350000Y-30035000D03*
X-6350000Y-28385000D03*
%TD*%
D27*
%TO.C,R15*%
X-415000Y-16764000D03*
X1235000Y-16764000D03*
%TD*%
D33*
%TO.C,U8*%
X-2037500Y-24450000D03*
X-2037500Y-25400000D03*
X-2037500Y-26350000D03*
X-4312500Y-26350000D03*
X-4312500Y-24450000D03*
%TD*%
D27*
%TO.C,R3*%
X-16700000Y-2540000D03*
X-15050000Y-2540000D03*
%TD*%
D31*
%TO.C,D9*%
X12635000Y-21405000D03*
X12635000Y-25405000D03*
%TD*%
D55*
%TO.C,D15*%
X-10388500Y5080000D03*
X-11963500Y5080000D03*
%TD*%
D56*
%TO.C,D7*%
X-15225000Y-7300000D03*
X-15875000Y-7300000D03*
X-16525000Y-7300000D03*
X-16525000Y-5400000D03*
X-15875000Y-5400000D03*
X-15225000Y-5400000D03*
%TD*%
D36*
%TO.C,D11*%
X-640000Y-18796000D03*
X1460000Y-18796000D03*
%TD*%
D39*
%TO.C,C6*%
X-14986000Y-21476000D03*
X-14986000Y-19926000D03*
%TD*%
D27*
%TO.C,R14*%
X-415000Y-12700000D03*
X1235000Y-12700000D03*
%TD*%
M02*
